<?xml version="1.0" standalone="no"?>
<!DOCTYPE svg PUBLIC "-//W3C//DTD SVG 1.1//EN" "http://www.w3.org/Graphics/SVG/1.1/DTD/svg11.dtd" >
<svg xmlns="http://www.w3.org/2000/svg" xmlns:xlink="http://www.w3.org/1999/xlink" version="1.1">
<metadata>
Created by FontForge 20170731 at Wed May 31 05:54:28 2017
 By Aleksey,,,
(c) 2015-2017 Apple Inc. All rights reserved.
</metadata>
<defs>
<font id="SFCompactDisplay-Medium" horiz-adv-x="1800" >
  <font-face 
    font-family="SF Compact Display"
    font-weight="500"
    font-stretch="normal"
    units-per-em="2048"
    panose-1="2 11 5 4 3 2 2 6 2 4"
    ascent="1638"
    descent="-410"
    x-height="1057"
    cap-height="1365"
    bbox="-472 -511 2382 2094"
    underline-thickness="50"
    underline-position="-250"
    unicode-range="U+0020-1F189"
  />
<missing-glyph horiz-adv-x="2048" 
d="M100 -494v252h1848v-252h-1848zM100 -56v252h1848v-252h-1848zM100 383v252h1848v-252h-1848zM100 821v252h1848v-252h-1848zM100 1260v252h1848v-252h-1848zM100 1698v252h1848v-252h-1848z" />
    <glyph glyph-name="uni2460" unicode="&#x31;&#x20dd;" 
d="M1000 377h-146v498h-3l-152 -101v127l153 105h148v-629zM900 92q158 0 291.5 79t210.5 215.5t77 297.5q0 162 -77 298t-210 215t-292 79t-292 -79t-210 -215t-77 -298q0 -161 77 -297.5t210.5 -215.5t291.5 -79zM900 -36q-147 0 -280.5 57t-229.5 153t-153 229.5
t-57 280.5t57 280.5t153 229.5t229.5 153t280.5 57t280.5 -57t229.5 -153t153 -229.5t57 -280.5t-57 -280.5t-153 -229.5t-229.5 -153t-280.5 -57z" />
    <glyph glyph-name="uni2461" unicode="&#x32;&#x20dd;" 
d="M807 813h-138v3q0 90 64.5 146t168.5 56q102 0 165.5 -50.5t63.5 -130.5q0 -44 -27 -90t-90 -108l-141 -144v-2q35 0 135 -0.5t134 -0.5v-115h-465v90l236 237q40 40 56 67t16 54q0 35 -25 57.5t-63 22.5q-39 0 -65 -25.5t-25 -63.5v-3zM900 92q158 0 291.5 79
t210.5 215.5t77 297.5q0 162 -77 298t-210 215t-292 79t-292 -79t-210 -215t-77 -298q0 -161 77 -297.5t210.5 -215.5t291.5 -79zM900 -36q-147 0 -280.5 57t-229.5 153t-153 229.5t-57 280.5t57 280.5t153 229.5t229.5 153t280.5 57t280.5 -57t229.5 -153t153 -229.5
t57 -280.5t-57 -280.5t-153 -229.5t-229.5 -153t-280.5 -57z" />
    <glyph glyph-name="uni2462" unicode="&#x33;&#x20dd;" 
d="M831 646v107h65q41 0 68 23t27 58q0 34 -26.5 55t-68.5 21q-38 0 -65.5 -21.5t-31.5 -52.5h-135q4 84 67.5 132.5t168.5 48.5q108 0 169 -44t62 -121q1 -52 -32 -90.5t-87 -49.5v-8q62 -8 100.5 -49t39.5 -102q1 -84 -69.5 -135.5t-185.5 -51.5q-107 0 -173.5 50
t-69.5 132h133q4 -32 34.5 -53t74.5 -21q50 0 81 24t31 62t-30 62t-78 24h-69zM900 92q158 0 291.5 79t210.5 215.5t77 297.5q0 162 -77 298t-210 215t-292 79t-292 -79t-210 -215t-77 -298q0 -161 77 -297.5t210.5 -215.5t291.5 -79zM900 -36q-147 0 -280.5 57t-229.5 153
t-153 229.5t-57 280.5t57 280.5t153 229.5t229.5 153t280.5 57t280.5 -57t229.5 -153t153 -229.5t57 -280.5t-57 -280.5t-153 -229.5t-229.5 -153t-280.5 -57z" />
    <glyph glyph-name="uni2463" unicode="&#x34;&#x20dd;" 
d="M853 1006h208v-406h84v-110h-84v-113h-129v113h-318v113q84 160 239 403zM932 600v308h-5q-133 -201 -187 -308h192zM900 92q158 0 291.5 79t210.5 215.5t77 297.5q0 162 -77 298t-210 215t-292 79t-292 -79t-210 -215t-77 -298q0 -161 77 -297.5t210.5 -215.5t291.5 -79
zM900 -36q-147 0 -280.5 57t-229.5 153t-153 229.5t-57 280.5t57 280.5t153 229.5t229.5 153t280.5 57t280.5 -57t229.5 -153t153 -229.5t57 -280.5t-57 -280.5t-153 -229.5t-229.5 -153t-280.5 -57z" />
    <glyph glyph-name="uni2464" unicode="&#x35;&#x20dd;" 
d="M806 546q8 -31 37 -49.5t69 -18.5q48 0 79 31.5t31 78.5q0 45 -31 75t-77 30q-30 0 -57 -14.5t-41 -37.5h-133l27 367h413v-108h-301l-14 -162h9q18 26 55 41.5t80 15.5q94 0 151.5 -55.5t57.5 -147.5q0 -102 -69.5 -163.5t-184.5 -61.5q-101 0 -167.5 50t-70.5 129h137z
M900 92q158 0 291.5 79t210.5 215.5t77 297.5q0 162 -77 298t-210 215t-292 79t-292 -79t-210 -215t-77 -298q0 -161 77 -297.5t210.5 -215.5t291.5 -79zM900 -36q-147 0 -280.5 57t-229.5 153t-153 229.5t-57 280.5t57 280.5t153 229.5t229.5 153t280.5 57t280.5 -57
t229.5 -153t153 -229.5t57 -280.5t-57 -280.5t-153 -229.5t-229.5 -153t-280.5 -57z" />
    <glyph glyph-name="uni2465" unicode="&#x36;&#x20dd;" 
d="M999 862q-8 21 -32.5 34.5t-55.5 13.5q-54 0 -89 -48.5t-40 -128.5q-1 -9 -1 -30h5q18 38 62 61.5t96 23.5q93 0 150 -55.5t57 -147.5q0 -100 -67 -159.5t-180 -59.5q-134 0 -202 93q-61 81 -61 227q0 162 69.5 246.5t200.5 84.5q92 0 154 -43t70 -112h-136zM800 585
q0 -48 29 -78t77 -30q46 0 75 29.5t29 76.5t-29 76t-76 29t-76 -28.5t-29 -74.5zM900 92q158 0 291.5 79t210.5 215.5t77 297.5q0 162 -77 298t-210 215t-292 79t-292 -79t-210 -215t-77 -298q0 -161 77 -297.5t210.5 -215.5t291.5 -79zM900 -36q-147 0 -280.5 57
t-229.5 153t-153 229.5t-57 280.5t57 280.5t153 229.5t229.5 153t280.5 57t280.5 -57t229.5 -153t153 -229.5t57 -280.5t-57 -280.5t-153 -229.5t-229.5 -153t-280.5 -57z" />
    <glyph glyph-name="uni2466" unicode="&#x37;&#x20dd;" 
d="M681 998h468v-116l-262 -513h-154l269 511v2h-321v116zM900 92q158 0 291.5 79t210.5 215.5t77 297.5q0 162 -77 298t-210 215t-292 79t-292 -79t-210 -215t-77 -298q0 -161 77 -297.5t210.5 -215.5t291.5 -79zM900 -36q-147 0 -280.5 57t-229.5 153t-153 229.5
t-57 280.5t57 280.5t153 229.5t229.5 153t280.5 57t280.5 -57t229.5 -153t153 -229.5t57 -280.5t-57 -280.5t-153 -229.5t-229.5 -153t-280.5 -57z" />
    <glyph glyph-name="uni2467" unicode="&#x38;&#x20dd;" 
d="M900 751q41 0 68 23.5t27 59.5t-27 60t-68 24t-68 -24t-27 -60t27 -59.5t68 -23.5zM900 464q49 0 82 28t33 69q0 42 -33 70t-82 28t-82 -28t-33 -70q0 -41 33 -69t82 -28zM900 366q-119 0 -190 50t-71 135q0 58 40 100t108 56v4q-59 17 -90.5 53.5t-31.5 85.5
q0 75 64.5 121t170.5 46t170.5 -46t64.5 -121q0 -49 -31.5 -85.5t-90.5 -53.5v-4q68 -14 108 -56t40 -100q0 -85 -71 -135t-190 -50zM900 92q158 0 291.5 79t210.5 215.5t77 297.5q0 162 -77 298t-210 215t-292 79t-292 -79t-210 -215t-77 -298q0 -161 77 -297.5
t210.5 -215.5t291.5 -79zM900 -36q-147 0 -280.5 57t-229.5 153t-153 229.5t-57 280.5t57 280.5t153 229.5t229.5 153t280.5 57t280.5 -57t229.5 -153t153 -229.5t57 -280.5t-57 -280.5t-153 -229.5t-229.5 -153t-280.5 -57z" />
    <glyph glyph-name="uni2468" unicode="&#x39;&#x20dd;" 
d="M1003 799q0 48 -29 78t-75 30t-76 -30t-30 -76q0 -47 29 -75.5t76 -28.5t76 28.5t29 73.5zM804 522q8 -21 33 -34.5t56 -13.5q64 0 97.5 53.5t31.5 151.5h-6q-19 -37 -62 -60t-95 -23q-93 0 -150.5 56t-57.5 147q0 98 68.5 158t180.5 60q126 0 193.5 -81.5t67.5 -234.5
q0 -164 -68.5 -249.5t-201.5 -85.5q-91 0 -153 43.5t-70 112.5h136zM900 92q158 0 291.5 79t210.5 215.5t77 297.5q0 162 -77 298t-210 215t-292 79t-292 -79t-210 -215t-77 -298q0 -161 77 -297.5t210.5 -215.5t291.5 -79zM900 -36q-147 0 -280.5 57t-229.5 153t-153 229.5
t-57 280.5t57 280.5t153 229.5t229.5 153t280.5 57t280.5 -57t229.5 -153t153 -229.5t57 -280.5t-57 -280.5t-153 -229.5t-229.5 -153t-280.5 -57z" />
    <glyph glyph-name="uni24B6" unicode="A&#x20dd;" 
d="M981 653l-78 249h-6l-78 -249h162zM597 398l216 632h174l216 -632h-150l-46 150h-213l-47 -150h-150zM900 92q158 0 291.5 79t210.5 215.5t77 297.5q0 162 -77 298t-210 215t-292 79t-292 -79t-210 -215t-77 -298q0 -161 77 -297.5t210.5 -215.5t291.5 -79zM900 -36
q-147 0 -280.5 57t-229.5 153t-153 229.5t-57 280.5t57 280.5t153 229.5t229.5 153t280.5 57t280.5 -57t229.5 -153t153 -229.5t57 -280.5t-57 -280.5t-153 -229.5t-229.5 -153t-280.5 -57z" />
    <glyph glyph-name="uni24B7" unicode="B&#x20dd;" 
d="M675 377v630h288q90 0 141.5 -41t51.5 -113q0 -53 -29.5 -89t-83.5 -50v-8q68 -10 107 -50.5t39 -102.5q0 -80 -61 -128t-164 -48h-289zM815 908v-162h83q119 0 119 83q0 37 -25 58t-68 21h-109zM815 658v-179h92q136 0 136 86q0 44 -29.5 68.5t-82.5 24.5h-116zM900 92
q158 0 291.5 79t210.5 215.5t77 297.5q0 162 -77 298t-210 215t-292 79t-292 -79t-210 -215t-77 -298q0 -161 77 -297.5t210.5 -215.5t291.5 -79zM900 -36q-147 0 -280.5 57t-229.5 153t-153 229.5t-57 280.5t57 280.5t153 229.5t229.5 153t280.5 57t280.5 -57t229.5 -153
t153 -229.5t57 -280.5t-57 -280.5t-153 -229.5t-229.5 -153t-280.5 -57z" />
    <glyph glyph-name="uni24B8" unicode="C&#x20dd;" 
d="M783 655q0 -82 34.5 -126.5t97.5 -44.5q53 0 86.5 31.5t34.5 81.5h141v-11q0 -97 -74 -158.5t-190 -61.5q-133 0 -206 76t-73 213v72q0 137 73.5 213.5t205.5 76.5q117 0 190.5 -62.5t73.5 -162.5v-11h-141q-1 52 -34.5 85t-86.5 33q-63 0 -97.5 -45t-34.5 -127v-72z
M900 92q158 0 291.5 79t210.5 215.5t77 297.5q0 162 -77 298t-210 215t-292 79t-292 -79t-210 -215t-77 -298q0 -161 77 -297.5t210.5 -215.5t291.5 -79zM900 -36q-147 0 -280.5 57t-229.5 153t-153 229.5t-57 280.5t57 280.5t153 229.5t229.5 153t280.5 57t280.5 -57
t229.5 -153t153 -229.5t57 -280.5t-57 -280.5t-153 -229.5t-229.5 -153t-280.5 -57z" />
    <glyph glyph-name="uni24B9" unicode="D&#x20dd;" 
d="M662 1007h250q144 0 219 -80t75 -234q0 -155 -75 -235.5t-219 -80.5h-250v630zM805 894v-404h85q86 0 126.5 49.5t40.5 152.5t-41 152.5t-126 49.5h-85zM900 92q158 0 291.5 79t210.5 215.5t77 297.5q0 162 -77 298t-210 215t-292 79t-292 -79t-210 -215t-77 -298
q0 -161 77 -297.5t210.5 -215.5t291.5 -79zM900 -36q-147 0 -280.5 57t-229.5 153t-153 229.5t-57 280.5t57 280.5t153 229.5t229.5 153t280.5 57t280.5 -57t229.5 -153t153 -229.5t57 -280.5t-57 -280.5t-153 -229.5t-229.5 -153t-280.5 -57z" />
    <glyph glyph-name="uni24BA" unicode="E&#x20dd;" 
d="M1125 489v-112h-432v630h432v-112h-291v-149h273v-100h-273v-157h291zM900 92q158 0 291.5 79t210.5 215.5t77 297.5q0 162 -77 298t-210 215t-292 79t-292 -79t-210 -215t-77 -298q0 -161 77 -297.5t210.5 -215.5t291.5 -79zM900 -36q-147 0 -280.5 57t-229.5 153
t-153 229.5t-57 280.5t57 280.5t153 229.5t229.5 153t280.5 57t280.5 -57t229.5 -153t153 -229.5t57 -280.5t-57 -280.5t-153 -229.5t-229.5 -153t-280.5 -57z" />
    <glyph glyph-name="uni24BB" unicode="F&#x20dd;" 
d="M862 377h-144v630h427v-113h-283v-162h259v-111h-259v-244zM900 92q158 0 291.5 79t210.5 215.5t77 297.5q0 162 -77 298t-210 215t-292 79t-292 -79t-210 -215t-77 -298q0 -161 77 -297.5t210.5 -215.5t291.5 -79zM900 -36q-147 0 -280.5 57t-229.5 153t-153 229.5
t-57 280.5t57 280.5t153 229.5t229.5 153t280.5 57t280.5 -57t229.5 -153t153 -229.5t57 -280.5t-57 -280.5t-153 -229.5t-229.5 -153t-280.5 -57z" />
    <glyph glyph-name="uni24BC" unicode="G&#x20dd;" 
d="M1036 804q-9 47 -43 73.5t-84 26.5q-67 0 -103 -45.5t-36 -128.5v-78q0 -85 37 -130.5t106 -45.5q57 0 92 29t37 77v37h-133v100h269v-122q0 -106 -72 -168.5t-194 -62.5q-135 0 -210.5 76.5t-75.5 213.5v77q0 131 76.5 207.5t209.5 76.5q112 0 186 -59t79 -154h-141z
M900 92q158 0 291.5 79t210.5 215.5t77 297.5q0 162 -77 298t-210 215t-292 79t-292 -79t-210 -215t-77 -298q0 -161 77 -297.5t210.5 -215.5t291.5 -79zM900 -36q-147 0 -280.5 57t-229.5 153t-153 229.5t-57 280.5t57 280.5t153 229.5t229.5 153t280.5 57t280.5 -57
t229.5 -153t153 -229.5t57 -280.5t-57 -280.5t-153 -229.5t-229.5 -153t-280.5 -57z" />
    <glyph glyph-name="uni24BD" unicode="H&#x20dd;" 
d="M1171 377h-141v262h-260v-262h-141v630h141v-252h260v252h141v-630zM900 92q158 0 291.5 79t210.5 215.5t77 297.5q0 162 -77 298t-210 215t-292 79t-292 -79t-210 -215t-77 -298q0 -161 77 -297.5t210.5 -215.5t291.5 -79zM900 -36q-147 0 -280.5 57t-229.5 153
t-153 229.5t-57 280.5t57 280.5t153 229.5t229.5 153t280.5 57t280.5 -57t229.5 -153t153 -229.5t57 -280.5t-57 -280.5t-153 -229.5t-229.5 -153t-280.5 -57z" />
    <glyph glyph-name="uni24BE" unicode="I&#x20dd;" 
d="M976 377h-151v630h151v-630zM900 92q158 0 291.5 79t210.5 215.5t77 297.5q0 162 -77 298t-210 215t-292 79t-292 -79t-210 -215t-77 -298q0 -161 77 -297.5t210.5 -215.5t291.5 -79zM900 -36q-147 0 -280.5 57t-229.5 153t-153 229.5t-57 280.5t57 280.5t153 229.5
t229.5 153t280.5 57t280.5 -57t229.5 -153t153 -229.5t57 -280.5t-57 -280.5t-153 -229.5t-229.5 -153t-280.5 -57z" />
    <glyph glyph-name="uni24BF" unicode="J&#x20dd;" 
d="M787 566q1 -37 22.5 -58t56.5 -21q85 0 85 95v420h147v-419q0 -105 -60.5 -164t-168.5 -59q-102 0 -163 56t-62 150h143zM900 92q158 0 291.5 79t210.5 215.5t77 297.5q0 162 -77 298t-210 215t-292 79t-292 -79t-210 -215t-77 -298q0 -161 77 -297.5t210.5 -215.5
t291.5 -79zM900 -36q-147 0 -280.5 57t-229.5 153t-153 229.5t-57 280.5t57 280.5t153 229.5t229.5 153t280.5 57t280.5 -57t229.5 -153t153 -229.5t57 -280.5t-57 -280.5t-153 -229.5t-229.5 -153t-280.5 -57z" />
    <glyph glyph-name="uni24C0" unicode="K&#x20dd;" 
d="M1197 1007l-224 -276l233 -354h-173l-170 262l-65 -74v-188h-139v630h139v-277h6l232 277h161zM900 92q158 0 291.5 79t210.5 215.5t77 297.5q0 162 -77 298t-210 215t-292 79t-292 -79t-210 -215t-77 -298q0 -161 77 -297.5t210.5 -215.5t291.5 -79zM900 -36
q-147 0 -280.5 57t-229.5 153t-153 229.5t-57 280.5t57 280.5t153 229.5t229.5 153t280.5 57t280.5 -57t229.5 -153t153 -229.5t57 -280.5t-57 -280.5t-153 -229.5t-229.5 -153t-280.5 -57z" />
    <glyph glyph-name="uni24C1" unicode="L&#x20dd;" 
d="M1154 503v-121h-422v630h147v-509h275zM900 92q158 0 291.5 79t210.5 215.5t77 297.5q0 162 -77 298t-210 215t-292 79t-292 -79t-210 -215t-77 -298q0 -161 77 -297.5t210.5 -215.5t291.5 -79zM900 -36q-147 0 -280.5 57t-229.5 153t-153 229.5t-57 280.5t57 280.5
t153 229.5t229.5 153t280.5 57t280.5 -57t229.5 -153t153 -229.5t57 -280.5t-57 -280.5t-153 -229.5t-229.5 -153t-280.5 -57z" />
    <glyph glyph-name="uni24C2" unicode="M&#x20dd;" 
d="M706 785v-408h-124v630h143l173 -400h5l172 400h143v-630h-126v408h-10l-138 -328h-88l-139 328h-11zM900 92q158 0 291.5 79t210.5 215.5t77 297.5q0 162 -77 298t-210 215t-292 79t-292 -79t-210 -215t-77 -298q0 -161 77 -297.5t210.5 -215.5t291.5 -79zM900 -36
q-147 0 -280.5 57t-229.5 153t-153 229.5t-57 280.5t57 280.5t153 229.5t229.5 153t280.5 57t280.5 -57t229.5 -153t153 -229.5t57 -280.5t-57 -280.5t-153 -229.5t-229.5 -153t-280.5 -57z" />
    <glyph glyph-name="uni24C3" unicode="N&#x20dd;" 
d="M766 377h-131v630h114l279 -405h7v405h130v-630h-113l-280 409h-6v-409zM900 92q158 0 291.5 79t210.5 215.5t77 297.5q0 162 -77 298t-210 215t-292 79t-292 -79t-210 -215t-77 -298q0 -161 77 -297.5t210.5 -215.5t291.5 -79zM900 -36q-147 0 -280.5 57t-229.5 153
t-153 229.5t-57 280.5t57 280.5t153 229.5t229.5 153t280.5 57t280.5 -57t229.5 -153t153 -229.5t57 -280.5t-57 -280.5t-153 -229.5t-229.5 -153t-280.5 -57z" />
    <glyph glyph-name="uni24C4" unicode="O&#x20dd;" 
d="M900 482q64 0 101.5 46t37.5 125v77q0 79 -37 125t-102 46t-102 -46t-37 -125v-77q0 -79 37.5 -125t101.5 -46zM900 366q-135 0 -211.5 76.5t-76.5 212.5v74q0 136 76 212t212 76t212 -76t76 -212v-74q0 -136 -76.5 -212.5t-211.5 -76.5zM900 92q158 0 291.5 79
t210.5 215.5t77 297.5q0 162 -77 298t-210 215t-292 79t-292 -79t-210 -215t-77 -298q0 -161 77 -297.5t210.5 -215.5t291.5 -79zM900 -36q-147 0 -280.5 57t-229.5 153t-153 229.5t-57 280.5t57 280.5t153 229.5t229.5 153t280.5 57t280.5 -57t229.5 -153t153 -229.5
t57 -280.5t-57 -280.5t-153 -229.5t-229.5 -153t-280.5 -57z" />
    <glyph glyph-name="uni24C5" unicode="P&#x20dd;" 
d="M965 1007q104 0 165 -58.5t61 -157.5q0 -98 -61.5 -156t-165.5 -58h-123v-200h-146v630h270zM1046 791q0 51 -27.5 78.5t-79.5 27.5h-103v-212h103q51 0 79 28t28 78zM900 92q158 0 291.5 79t210.5 215.5t77 297.5q0 162 -77 298t-210 215t-292 79t-292 -79t-210 -215
t-77 -298q0 -161 77 -297.5t210.5 -215.5t291.5 -79zM900 -36q-147 0 -280.5 57t-229.5 153t-153 229.5t-57 280.5t57 280.5t153 229.5t229.5 153t280.5 57t280.5 -57t229.5 -153t153 -229.5t57 -280.5t-57 -280.5t-153 -229.5t-229.5 -153t-280.5 -57z" />
    <glyph glyph-name="uni24C6" unicode="Q&#x20dd;" 
d="M1180 317h-148l-42 61q-42 -13 -90 -13q-135 0 -211.5 77t-76.5 212v75q0 135 76 211.5t212 76.5t212 -76.5t76 -211.5v-75q0 -148 -91 -225zM893 477q22 0 36 5l-61 90h113l29 -38q30 44 30 118v74q0 83 -37 130t-103 47t-103 -47t-37 -130v-74q0 -80 35.5 -126.5
t97.5 -48.5zM900 92q158 0 291.5 79t210.5 215.5t77 297.5q0 162 -77 298t-210 215t-292 79t-292 -79t-210 -215t-77 -298q0 -161 77 -297.5t210.5 -215.5t291.5 -79zM900 -36q-147 0 -280.5 57t-229.5 153t-153 229.5t-57 280.5t57 280.5t153 229.5t229.5 153t280.5 57
t280.5 -57t229.5 -153t153 -229.5t57 -280.5t-57 -280.5t-153 -229.5t-229.5 -153t-280.5 -57z" />
    <glyph glyph-name="uni24C7" unicode="R&#x20dd;" 
d="M804 707h110q52 0 80.5 24.5t28.5 69.5q0 46 -28.5 72t-78.5 26h-112v-192zM935 1007q111 0 174 -52.5t63 -146.5q0 -62 -33 -108.5t-91 -68.5l136 -254h-159l-111 231h-110v-231h-138v630h269zM900 92q158 0 291.5 79t210.5 215.5t77 297.5q0 162 -77 298t-210 215
t-292 79t-292 -79t-210 -215t-77 -298q0 -161 77 -297.5t210.5 -215.5t291.5 -79zM900 -36q-147 0 -280.5 57t-229.5 153t-153 229.5t-57 280.5t57 280.5t153 229.5t229.5 153t280.5 57t280.5 -57t229.5 -153t153 -229.5t57 -280.5t-57 -280.5t-153 -229.5t-229.5 -153
t-280.5 -57z" />
    <glyph glyph-name="uni24C8" unicode="S&#x20dd;" 
d="M780 556q4 -38 37.5 -60.5t87.5 -22.5q53 0 84 22t31 59q0 29 -23.5 47t-78.5 29l-94 20q-83 16 -127 61.5t-44 113.5q0 88 68.5 140t181.5 52q109 0 177 -50t72 -133h-137q-4 37 -34.5 58t-78.5 21t-77 -21t-29 -56q0 -54 91 -72l98 -20q177 -35 177 -179
q0 -92 -71.5 -145.5t-193.5 -53.5q-116 0 -185.5 51t-72.5 139h141zM900 92q158 0 291.5 79t210.5 215.5t77 297.5q0 162 -77 298t-210 215t-292 79t-292 -79t-210 -215t-77 -298q0 -161 77 -297.5t210.5 -215.5t291.5 -79zM900 -36q-147 0 -280.5 57t-229.5 153t-153 229.5
t-57 280.5t57 280.5t153 229.5t229.5 153t280.5 57t280.5 -57t229.5 -153t153 -229.5t57 -280.5t-57 -280.5t-153 -229.5t-229.5 -153t-280.5 -57z" />
    <glyph glyph-name="uni24C9" unicode="T&#x20dd;" 
d="M973 356h-146v512h-185v118h516v-118h-185v-512zM900 92q158 0 291.5 79t210.5 215.5t77 297.5q0 162 -77 298t-210 215t-292 79t-292 -79t-210 -215t-77 -298q0 -161 77 -297.5t210.5 -215.5t291.5 -79zM900 -36q-147 0 -280.5 57t-229.5 153t-153 229.5t-57 280.5
t57 280.5t153 229.5t229.5 153t280.5 57t280.5 -57t229.5 -153t153 -229.5t57 -280.5t-57 -280.5t-153 -229.5t-229.5 -153t-280.5 -57z" />
    <glyph glyph-name="uni24CA" unicode="U&#x20dd;" 
d="M900 455q57 0 90.5 33t33.5 89v402h145v-419q0 -101 -73.5 -162.5t-195.5 -61.5t-195.5 61.5t-73.5 162.5v419h145v-402q0 -56 33.5 -89t90.5 -33zM900 92q158 0 291.5 79t210.5 215.5t77 297.5q0 162 -77 298t-210 215t-292 79t-292 -79t-210 -215t-77 -298
q0 -161 77 -297.5t210.5 -215.5t291.5 -79zM900 -36q-147 0 -280.5 57t-229.5 153t-153 229.5t-57 280.5t57 280.5t153 229.5t229.5 153t280.5 57t280.5 -57t229.5 -153t153 -229.5t57 -280.5t-57 -280.5t-153 -229.5t-229.5 -153t-280.5 -57z" />
    <glyph glyph-name="uni24CB" unicode="V&#x20dd;" 
d="M993 346h-186l-208 630h166l127 -477h16l127 477h166zM900 92q158 0 291.5 79t210.5 215.5t77 297.5q0 162 -77 298t-210 215t-292 79t-292 -79t-210 -215t-77 -298q0 -161 77 -297.5t210.5 -215.5t291.5 -79zM900 -36q-147 0 -280.5 57t-229.5 153t-153 229.5t-57 280.5
t57 280.5t153 229.5t229.5 153t280.5 57t280.5 -57t229.5 -153t153 -229.5t57 -280.5t-57 -280.5t-153 -229.5t-229.5 -153t-280.5 -57z" />
    <glyph glyph-name="uni24CC" unicode="W&#x20dd;" 
d="M786 348h-130l-162 631h144l89 -451h9l108 451h112l108 -451h9l89 451h144l-162 -631h-130l-112 436h-4zM900 92q158 0 291.5 79t210.5 215.5t77 297.5q0 162 -77 298t-210 215t-292 79t-292 -79t-210 -215t-77 -298q0 -161 77 -297.5t210.5 -215.5t291.5 -79zM900 -36
q-147 0 -280.5 57t-229.5 153t-153 229.5t-57 280.5t57 280.5t153 229.5t229.5 153t280.5 57t280.5 -57t229.5 -153t153 -229.5t57 -280.5t-57 -280.5t-153 -229.5t-229.5 -153t-280.5 -57z" />
    <glyph glyph-name="uni24CD" unicode="X&#x20dd;" 
d="M1196 1000l-202 -315l200 -315h-170l-127 213h-3l-129 -213h-160l194 317l-193 313h175l121 -219h3l124 219h167zM900 92q158 0 291.5 79t210.5 215.5t77 297.5q0 162 -77 298t-210 215t-292 79t-292 -79t-210 -215t-77 -298q0 -161 77 -297.5t210.5 -215.5t291.5 -79z
M900 -36q-147 0 -280.5 57t-229.5 153t-153 229.5t-57 280.5t57 280.5t153 229.5t229.5 153t280.5 57t280.5 -57t229.5 -153t153 -229.5t57 -280.5t-57 -280.5t-153 -229.5t-229.5 -153t-280.5 -57z" />
    <glyph glyph-name="uni24CE" unicode="Y&#x20dd;" 
d="M974 360h-148v229l-219 401h161l128 -264h8l128 264h161l-219 -401v-229zM900 92q158 0 291.5 79t210.5 215.5t77 297.5q0 162 -77 298t-210 215t-292 79t-292 -79t-210 -215t-77 -298q0 -161 77 -297.5t210.5 -215.5t291.5 -79zM900 -36q-147 0 -280.5 57t-229.5 153
t-153 229.5t-57 280.5t57 280.5t153 229.5t229.5 153t280.5 57t280.5 -57t229.5 -153t153 -229.5t57 -280.5t-57 -280.5t-153 -229.5t-229.5 -153t-280.5 -57z" />
    <glyph glyph-name="uni24CF" unicode="Z&#x20dd;" 
d="M657 377v94l300 415v4h-295v117h475v-94l-302 -414v-5h311v-117h-489zM900 92q158 0 291.5 79t210.5 215.5t77 297.5q0 162 -77 298t-210 215t-292 79t-292 -79t-210 -215t-77 -298q0 -161 77 -297.5t210.5 -215.5t291.5 -79zM900 -36q-147 0 -280.5 57t-229.5 153
t-153 229.5t-57 280.5t57 280.5t153 229.5t229.5 153t280.5 57t280.5 -57t229.5 -153t153 -229.5t57 -280.5t-57 -280.5t-153 -229.5t-229.5 -153t-280.5 -57z" />
    <glyph glyph-name="uni24EA" unicode="&#x30;&#x20dd;" 
d="M900 480q53 0 82.5 52t29.5 145v30q0 93 -29.5 144.5t-82.5 51.5t-82 -51.5t-29 -144.5v-30q0 -94 29 -145.5t82 -51.5zM899 366q-118 0 -186.5 83.5t-68.5 227.5v30q0 143 69.5 226.5t187.5 83.5t186.5 -83.5t68.5 -226.5v-30q0 -142 -69.5 -226.5t-187.5 -84.5zM900 92
q158 0 291.5 79t210.5 215.5t77 297.5q0 162 -77 298t-210 215t-292 79t-292 -79t-210 -215t-77 -298q0 -161 77 -297.5t210.5 -215.5t291.5 -79zM900 -36q-147 0 -280.5 57t-229.5 153t-153 229.5t-57 280.5t57 280.5t153 229.5t229.5 153t280.5 57t280.5 -57t229.5 -153
t153 -229.5t57 -280.5t-57 -280.5t-153 -229.5t-229.5 -153t-280.5 -57z" />
    <glyph glyph-name="uni1F130" unicode="A&#x20de;" 
d="M981 632l-78 249h-6l-78 -249h162zM597 377l216 631h174l216 -631h-150l-46 150h-213l-47 -150h-150zM444 1386h912q103 0 175 -71.5t72 -172.5v-915q0 -101 -72 -172.5t-175 -71.5h-912q-102 0 -174.5 71.5t-72.5 172.5v915q0 101 72.5 172.5t174.5 71.5zM1325 1250
h-850q-56 0 -94 -37t-38 -90v-877q0 -53 38.5 -90.5t93.5 -37.5h850q55 0 93.5 37.5t38.5 90.5v877q0 54 -38 90.5t-94 36.5z" />
    <glyph glyph-name="uni1F131" unicode="B&#x20de;" 
d="M675 378v630h288q90 0 141.5 -41t51.5 -113q0 -52 -29.5 -88.5t-83.5 -50.5v-8q68 -9 107 -50t39 -103q0 -80 -61 -128t-164 -48h-289zM815 910v-162h83q119 0 119 82q0 37 -25 58.5t-68 21.5h-109zM815 659v-179h92q136 0 136 87q0 44 -29.5 68t-82.5 24h-116zM444 1386
h912q103 0 175 -71.5t72 -172.5v-915q0 -101 -72 -172.5t-175 -71.5h-912q-102 0 -174.5 71.5t-72.5 172.5v915q0 101 72.5 172.5t174.5 71.5zM1325 1250h-850q-56 0 -94 -37t-38 -90v-877q0 -53 38.5 -90.5t93.5 -37.5h850q55 0 93.5 37.5t38.5 90.5v877q0 54 -38 90.5
t-94 36.5z" />
    <glyph glyph-name="uni1F132" unicode="C&#x20de;" 
d="M783 654q0 -82 34.5 -126.5t97.5 -44.5q53 0 86.5 31.5t34.5 80.5h141v-10q0 -97 -74 -159t-190 -62q-133 0 -206 76t-73 214v72q0 137 73.5 213.5t205.5 76.5q117 0 190.5 -62.5t73.5 -162.5v-11h-141q-1 52 -35 85t-86 33q-63 0 -97.5 -45t-34.5 -127v-72zM444 1386
h912q103 0 175 -71.5t72 -172.5v-915q0 -101 -72 -172.5t-175 -71.5h-912q-102 0 -174.5 71.5t-72.5 172.5v915q0 101 72.5 172.5t174.5 71.5zM1325 1250h-850q-56 0 -94 -37t-38 -90v-877q0 -53 38.5 -90.5t93.5 -37.5h850q55 0 93.5 37.5t38.5 90.5v877q0 54 -38 90.5
t-94 36.5z" />
    <glyph glyph-name="uni1F133" unicode="D&#x20de;" 
d="M650 1008h251q144 0 219 -80t75 -234q0 -155 -75 -235.5t-219 -80.5h-251v630zM794 895v-404h85q85 0 125.5 49t40.5 153q0 103 -40.5 152.5t-125.5 49.5h-85zM444 1386h912q103 0 175 -71.5t72 -172.5v-915q0 -101 -72 -172.5t-175 -71.5h-912q-102 0 -174.5 71.5
t-72.5 172.5v915q0 101 72.5 172.5t174.5 71.5zM1325 1250h-850q-56 0 -94 -37t-38 -90v-877q0 -53 38.5 -90.5t93.5 -37.5h850q55 0 93.5 37.5t38.5 90.5v877q0 54 -38 90.5t-94 36.5z" />
    <glyph glyph-name="uni1F134" unicode="E&#x20de;" 
d="M1122 488v-112h-432v630h432v-112h-291v-150h274v-100h-274v-156h291zM444 1386h912q103 0 175 -71.5t72 -172.5v-915q0 -101 -72 -172.5t-175 -71.5h-912q-102 0 -174.5 71.5t-72.5 172.5v915q0 101 72.5 172.5t174.5 71.5zM1325 1250h-850q-56 0 -94 -37t-38 -90v-877
q0 -53 38.5 -90.5t93.5 -37.5h850q55 0 93.5 37.5t38.5 90.5v877q0 54 -38 90.5t-94 36.5z" />
    <glyph glyph-name="uni1F135" unicode="F&#x20de;" 
d="M862 378h-144v630h427v-113h-283v-161h259v-112h-259v-244zM444 1386h912q103 0 175 -71.5t72 -172.5v-915q0 -101 -72 -172.5t-175 -71.5h-912q-102 0 -174.5 71.5t-72.5 172.5v915q0 101 72.5 172.5t174.5 71.5zM1325 1250h-850q-56 0 -94 -37t-38 -90v-877
q0 -53 38.5 -90.5t93.5 -37.5h850q55 0 93.5 37.5t38.5 90.5v877q0 54 -38 90.5t-94 36.5z" />
    <glyph glyph-name="uni1F136" unicode="G&#x20de;" 
d="M1036 805q-9 47 -43 73.5t-84 26.5q-67 0 -103 -45.5t-36 -128.5v-78q0 -84 37 -130t106 -46q57 0 92 29t37 77v37h-133v100h269v-122q0 -106 -72 -168.5t-194 -62.5q-135 0 -210.5 76.5t-75.5 213.5v77q0 131 76.5 207.5t209.5 76.5q112 0 186 -59t79 -154h-141z
M444 1386h912q103 0 175 -71.5t72 -172.5v-915q0 -101 -72 -172.5t-175 -71.5h-912q-102 0 -174.5 71.5t-72.5 172.5v915q0 101 72.5 172.5t174.5 71.5zM1325 1250h-850q-56 0 -94 -37t-38 -90v-877q0 -53 38.5 -90.5t93.5 -37.5h850q55 0 93.5 37.5t38.5 90.5v877
q0 54 -38 90.5t-94 36.5z" />
    <glyph glyph-name="uni1F137" unicode="H&#x20de;" 
d="M1172 378h-141v262h-262v-262h-141v630h141v-252h262v252h141v-630zM444 1386h912q103 0 175 -71.5t72 -172.5v-915q0 -101 -72 -172.5t-175 -71.5h-912q-102 0 -174.5 71.5t-72.5 172.5v915q0 101 72.5 172.5t174.5 71.5zM1325 1250h-850q-56 0 -94 -37t-38 -90v-877
q0 -53 38.5 -90.5t93.5 -37.5h850q55 0 93.5 37.5t38.5 90.5v877q0 54 -38 90.5t-94 36.5z" />
    <glyph glyph-name="uni1F138" unicode="I&#x20de;" 
d="M976 378h-151v630h151v-630zM444 1386h912q103 0 175 -71.5t72 -172.5v-915q0 -101 -72 -172.5t-175 -71.5h-912q-102 0 -174.5 71.5t-72.5 172.5v915q0 101 72.5 172.5t174.5 71.5zM1325 1250h-850q-56 0 -94 -37t-38 -90v-877q0 -53 38.5 -90.5t93.5 -37.5h850
q55 0 93.5 37.5t38.5 90.5v877q0 54 -38 90.5t-94 36.5z" />
    <glyph glyph-name="uni1F139" unicode="J&#x20de;" 
d="M788 572q1 -37 22.5 -58t56.5 -21q85 0 85 95v420h147v-419q0 -105 -60.5 -164t-168.5 -59q-102 0 -163 56t-62 150h143zM444 1386h912q103 0 175 -71.5t72 -172.5v-915q0 -101 -72 -172.5t-175 -71.5h-912q-102 0 -174.5 71.5t-72.5 172.5v915q0 101 72.5 172.5
t174.5 71.5zM1325 1250h-850q-56 0 -94 -37t-38 -90v-877q0 -53 38.5 -90.5t93.5 -37.5h850q55 0 93.5 37.5t38.5 90.5v877q0 54 -38 90.5t-94 36.5z" />
    <glyph glyph-name="uni1F13A" unicode="K&#x20de;" 
d="M1199 1008l-224 -276l233 -354h-172l-170 262l-65 -74v-188h-140v630h140v-277h5l233 277h160zM444 1386h912q103 0 175 -71.5t72 -172.5v-915q0 -101 -72 -172.5t-175 -71.5h-912q-102 0 -174.5 71.5t-72.5 172.5v915q0 101 72.5 172.5t174.5 71.5zM1325 1250h-850
q-56 0 -94 -37t-38 -90v-877q0 -53 38.5 -90.5t93.5 -37.5h850q55 0 93.5 37.5t38.5 90.5v877q0 54 -38 90.5t-94 36.5z" />
    <glyph glyph-name="uni1F13B" unicode="L&#x20de;" 
d="M1159 499v-121h-421v630h146v-509h275zM444 1386h912q103 0 175 -71.5t72 -172.5v-915q0 -101 -72 -172.5t-175 -71.5h-912q-102 0 -174.5 71.5t-72.5 172.5v915q0 101 72.5 172.5t174.5 71.5zM1325 1250h-850q-56 0 -94 -37t-38 -90v-877q0 -53 38.5 -90.5t93.5 -37.5
h850q55 0 93.5 37.5t38.5 90.5v877q0 54 -38 90.5t-94 36.5z" />
    <glyph glyph-name="uni1F13C" unicode="M&#x20de;" 
d="M706 786v-408h-124v630h143l173 -399h5l172 399h143v-630h-126v408h-10l-138 -328h-88l-139 328h-11zM444 1386h912q103 0 175 -71.5t72 -172.5v-915q0 -101 -72 -172.5t-175 -71.5h-912q-102 0 -174.5 71.5t-72.5 172.5v915q0 101 72.5 172.5t174.5 71.5zM1325 1250
h-850q-56 0 -94 -37t-38 -90v-877q0 -53 38.5 -90.5t93.5 -37.5h850q55 0 93.5 37.5t38.5 90.5v877q0 54 -38 90.5t-94 36.5z" />
    <glyph glyph-name="uni1F13D" unicode="N&#x20de;" 
d="M771 378h-139v630h120l274 -395h4v395h138v-630h-118l-275 399h-4v-399zM444 1386h912q103 0 175 -71.5t72 -172.5v-915q0 -101 -72 -172.5t-175 -71.5h-912q-102 0 -174.5 71.5t-72.5 172.5v915q0 101 72.5 172.5t174.5 71.5zM1325 1250h-850q-56 0 -94 -37t-38 -90
v-877q0 -53 38.5 -90.5t93.5 -37.5h850q55 0 93.5 37.5t38.5 90.5v877q0 54 -38 90.5t-94 36.5z" />
    <glyph glyph-name="uni1F13E" unicode="O&#x20de;" 
d="M900 483q64 0 101.5 46t37.5 126v76q0 79 -37 125t-102 46t-102 -46t-37 -125v-76q0 -80 37.5 -126t101.5 -46zM900 367q-135 0 -211.5 76.5t-76.5 212.5v74q0 136 76 212t212 76t212 -76t76 -212v-74q0 -136 -76.5 -212.5t-211.5 -76.5zM444 1386h912q103 0 175 -71.5
t72 -172.5v-915q0 -101 -72 -172.5t-175 -71.5h-912q-102 0 -174.5 71.5t-72.5 172.5v915q0 101 72.5 172.5t174.5 71.5zM1325 1250h-850q-56 0 -94 -37t-38 -90v-877q0 -53 38.5 -90.5t93.5 -37.5h850q55 0 93.5 37.5t38.5 90.5v877q0 54 -38 90.5t-94 36.5z" />
    <glyph glyph-name="uni1F13F" unicode="P&#x20de;" 
d="M965 1008q104 0 165 -58.5t61 -157.5q0 -98 -61.5 -155.5t-165.5 -57.5h-123v-201h-146v630h270zM1046 792q0 51 -27.5 78.5t-79.5 27.5h-103v-212h103q51 0 79 28t28 78zM444 1386h912q103 0 175 -71.5t72 -172.5v-915q0 -101 -72 -172.5t-175 -71.5h-912
q-102 0 -174.5 71.5t-72.5 172.5v915q0 101 72.5 172.5t174.5 71.5zM1325 1250h-850q-56 0 -94 -37t-38 -90v-877q0 -53 38.5 -90.5t93.5 -37.5h850q55 0 93.5 37.5t38.5 90.5v877q0 54 -38 90.5t-94 36.5z" />
    <glyph glyph-name="uni1F140" unicode="Q&#x20de;" 
d="M1180 318h-148l-42 62q-40 -14 -90 -14q-135 0 -211.5 77t-76.5 213v74q0 136 76 212t212 76t212 -76t76 -212v-74q0 -149 -91 -226zM893 478q18 0 36 5l-61 90h113l29 -38q30 43 30 118v75q0 83 -37 129.5t-103 46.5t-103 -46.5t-37 -129.5v-75q0 -79 35.5 -125.5
t97.5 -49.5zM444 1386h912q103 0 175 -71.5t72 -172.5v-915q0 -101 -72 -172.5t-175 -71.5h-912q-102 0 -174.5 71.5t-72.5 172.5v915q0 101 72.5 172.5t174.5 71.5zM1325 1250h-850q-56 0 -94 -37t-38 -90v-877q0 -53 38.5 -90.5t93.5 -37.5h850q55 0 93.5 37.5t38.5 90.5
v877q0 54 -38 90.5t-94 36.5z" />
    <glyph glyph-name="uni1F141" unicode="R&#x20de;" 
d="M804 708h110q52 0 80.5 24.5t28.5 69.5q0 46 -28.5 72t-78.5 26h-112v-192zM935 1008q111 0 174 -52.5t63 -146.5q0 -62 -33 -108.5t-91 -68.5l136 -254h-159l-111 231h-110v-231h-138v630h269zM444 1386h912q103 0 175 -71.5t72 -172.5v-915q0 -101 -72 -172.5
t-175 -71.5h-912q-102 0 -174.5 71.5t-72.5 172.5v915q0 101 72.5 172.5t174.5 71.5zM1325 1250h-850q-56 0 -94 -37t-38 -90v-877q0 -53 38.5 -90.5t93.5 -37.5h850q55 0 93.5 37.5t38.5 90.5v877q0 54 -38 90.5t-94 36.5z" />
    <glyph glyph-name="uni1F142" unicode="S&#x20de;" 
d="M780 557q4 -38 37.5 -60.5t87.5 -22.5q53 0 84 22t31 59q0 29 -23.5 47t-78.5 29l-94 20q-83 17 -127 62t-44 113q0 88 68.5 140.5t181.5 52.5q109 0 176.5 -50.5t72.5 -133.5h-137q-5 37 -35 58.5t-78 21.5t-77 -21.5t-29 -56.5q0 -54 91 -72l98 -20q177 -35 177 -178
q0 -92 -71.5 -146t-193.5 -54q-116 0 -185.5 51t-72.5 139h141zM444 1386h912q103 0 175 -71.5t72 -172.5v-915q0 -101 -72 -172.5t-175 -71.5h-912q-102 0 -174.5 71.5t-72.5 172.5v915q0 101 72.5 172.5t174.5 71.5zM1325 1250h-850q-56 0 -94 -37t-38 -90v-877
q0 -53 38.5 -90.5t93.5 -37.5h850q55 0 93.5 37.5t38.5 90.5v877q0 54 -38 90.5t-94 36.5z" />
    <glyph glyph-name="uni1F143" unicode="T&#x20de;" 
d="M973 378h-146v512h-185v118h516v-118h-185v-512zM444 1386h912q103 0 175 -71.5t72 -172.5v-915q0 -101 -72 -172.5t-175 -71.5h-912q-102 0 -174.5 71.5t-72.5 172.5v915q0 101 72.5 172.5t174.5 71.5zM1325 1250h-850q-56 0 -94 -37t-38 -90v-877q0 -53 38.5 -90.5
t93.5 -37.5h850q55 0 93.5 37.5t38.5 90.5v877q0 54 -38 90.5t-94 36.5z" />
    <glyph glyph-name="uni1F144" unicode="U&#x20de;" 
d="M900 485q57 0 90.5 33t33.5 89v401h145v-418q0 -101 -73.5 -162.5t-195.5 -61.5t-195.5 61.5t-73.5 162.5v418h145v-401q0 -56 33.5 -89t90.5 -33zM444 1386h912q103 0 175 -71.5t72 -172.5v-915q0 -101 -72 -172.5t-175 -71.5h-912q-102 0 -174.5 71.5t-72.5 172.5v915
q0 101 72.5 172.5t174.5 71.5zM1325 1250h-850q-56 0 -94 -37t-38 -90v-877q0 -53 38.5 -90.5t93.5 -37.5h850q55 0 93.5 37.5t38.5 90.5v877q0 54 -38 90.5t-94 36.5z" />
    <glyph glyph-name="uni1F145" unicode="V&#x20de;" 
d="M993 378h-186l-208 630h166l127 -477h16l127 477h166zM444 1386h912q103 0 175 -71.5t72 -172.5v-915q0 -101 -72 -172.5t-175 -71.5h-912q-102 0 -174.5 71.5t-72.5 172.5v915q0 101 72.5 172.5t174.5 71.5zM1325 1250h-850q-56 0 -94 -37t-38 -90v-877
q0 -53 38.5 -90.5t93.5 -37.5h850q55 0 93.5 37.5t38.5 90.5v877q0 54 -38 90.5t-94 36.5z" />
    <glyph glyph-name="uni1F146" unicode="W&#x20de;" 
d="M786 379h-130l-162 631h144l89 -451h9l108 451h112l108 -451h9l89 451h144l-162 -631h-130l-112 436h-4zM444 1386h912q103 0 175 -71.5t72 -172.5v-915q0 -101 -72 -172.5t-175 -71.5h-912q-102 0 -174.5 71.5t-72.5 172.5v915q0 101 72.5 172.5t174.5 71.5zM1325 1250
h-850q-56 0 -94 -37t-38 -90v-877q0 -53 38.5 -90.5t93.5 -37.5h850q55 0 93.5 37.5t38.5 90.5v877q0 54 -38 90.5t-94 36.5z" />
    <glyph glyph-name="uni1F147" unicode="X&#x20de;" 
d="M1196 1008l-202 -315l200 -315h-170l-127 214h-3l-129 -214h-160l194 317l-193 313h175l121 -219h3l124 219h167zM444 1386h912q103 0 175 -71.5t72 -172.5v-915q0 -101 -72 -172.5t-175 -71.5h-912q-102 0 -174.5 71.5t-72.5 172.5v915q0 101 72.5 172.5t174.5 71.5z
M1325 1250h-850q-56 0 -94 -37t-38 -90v-877q0 -53 38.5 -90.5t93.5 -37.5h850q55 0 93.5 37.5t38.5 90.5v877q0 54 -38 90.5t-94 36.5z" />
    <glyph glyph-name="uni1F148" unicode="Y&#x20de;" 
d="M974 378h-148v229l-219 401h161l128 -264h8l128 264h161l-219 -401v-229zM444 1386h912q103 0 175 -71.5t72 -172.5v-915q0 -101 -72 -172.5t-175 -71.5h-912q-102 0 -174.5 71.5t-72.5 172.5v915q0 101 72.5 172.5t174.5 71.5zM1325 1250h-850q-56 0 -94 -37t-38 -90
v-877q0 -53 38.5 -90.5t93.5 -37.5h850q55 0 93.5 37.5t38.5 90.5v877q0 54 -38 90.5t-94 36.5z" />
    <glyph glyph-name="uni1F149" unicode="Z&#x20de;" 
d="M657 378v94l300 415v4h-295v117h475v-94l-302 -414v-5h311v-117h-489zM444 1386h912q103 0 175 -71.5t72 -172.5v-915q0 -101 -72 -172.5t-175 -71.5h-912q-102 0 -174.5 71.5t-72.5 172.5v915q0 101 72.5 172.5t174.5 71.5zM1325 1250h-850q-56 0 -94 -37t-38 -90v-877
q0 -53 38.5 -90.5t93.5 -37.5h850q55 0 93.5 37.5t38.5 90.5v877q0 54 -38 90.5t-94 36.5z" />
    <glyph glyph-name="plus.uc.whitecircle" unicode="&#x2b;&#x20dd;" 
d="M962 632v-191h-124v191h-186v119h186v184h124v-184h186v-119h-186zM900 92q158 0 291.5 79t210.5 215.5t77 297.5q0 162 -77 298t-210 215t-292 79t-292 -79t-210 -215t-77 -298q0 -161 77 -297.5t210.5 -215.5t291.5 -79zM900 -36q-147 0 -280.5 57t-229.5 153
t-153 229.5t-57 280.5t57 280.5t153 229.5t229.5 153t280.5 57t280.5 -57t229.5 -153t153 -229.5t57 -280.5t-57 -280.5t-153 -229.5t-229.5 -153t-280.5 -57z" />
    <glyph glyph-name="minus.uc.whitecircle" unicode="&#x2212;&#x20dd;" 
d="M1131 628h-462v122h462v-122zM900 92q158 0 291.5 79t210.5 215.5t77 297.5q0 162 -77 298t-210 215t-292 79t-292 -79t-210 -215t-77 -298q0 -161 77 -297.5t210.5 -215.5t291.5 -79zM900 -36q-147 0 -280.5 57t-229.5 153t-153 229.5t-57 280.5t57 280.5t153 229.5
t229.5 153t280.5 57t280.5 -57t229.5 -153t153 -229.5t57 -280.5t-57 -280.5t-153 -229.5t-229.5 -153t-280.5 -57z" />
    <glyph glyph-name="multiply.uc.whitecircle" unicode="&#xd7;&#x20dd;" 
d="M900 775l145 138l86 -87l-142 -138l142 -139l-86 -86l-145 140l-145 -140l-86 86l142 139l-142 138l87 87zM900 92q158 0 291.5 79t210.5 215.5t77 297.5q0 162 -77 298t-210 215t-292 79t-292 -79t-210 -215t-77 -298q0 -161 77 -297.5t210.5 -215.5t291.5 -79zM900 -36
q-147 0 -280.5 57t-229.5 153t-153 229.5t-57 280.5t57 280.5t153 229.5t229.5 153t280.5 57t280.5 -57t229.5 -153t153 -229.5t57 -280.5t-57 -280.5t-153 -229.5t-229.5 -153t-280.5 -57z" />
    <glyph glyph-name="divide.uc.whitecircle" unicode="&#xf7;&#x20dd;" 
d="M821 882q0 33 21.5 53.5t56.5 20.5q36 0 58.5 -20.5t22.5 -53.5q0 -32 -22.5 -53t-58.5 -21q-34 0 -56 21t-22 53zM1131 639h-462v100h462v-100zM821 496q0 33 22 53.5t57 20.5t58 -21t23 -53t-22.5 -52.5t-58.5 -20.5q-35 0 -57 20.5t-22 52.5zM900 92q158 0 291.5 79
t210.5 215.5t77 297.5q0 162 -77 298t-210 215t-292 79t-292 -79t-210 -215t-77 -298q0 -161 77 -297.5t210.5 -215.5t291.5 -79zM900 -36q-147 0 -280.5 57t-229.5 153t-153 229.5t-57 280.5t57 280.5t153 229.5t229.5 153t280.5 57t280.5 -57t229.5 -153t153 -229.5
t57 -280.5t-57 -280.5t-153 -229.5t-229.5 -153t-280.5 -57z" />
    <glyph glyph-name="equal.uc.whitecircle" unicode="&#x3d;&#x20dd;" 
d="M1131 746h-462v107h462v-107zM1131 522h-462v108h462v-108zM900 92q158 0 291.5 79t210.5 215.5t77 297.5q0 162 -77 298t-210 215t-292 79t-292 -79t-210 -215t-77 -298q0 -161 77 -297.5t210.5 -215.5t291.5 -79zM900 -36q-147 0 -280.5 57t-229.5 153t-153 229.5
t-57 280.5t57 280.5t153 229.5t229.5 153t280.5 57t280.5 -57t229.5 -153t153 -229.5t57 -280.5t-57 -280.5t-153 -229.5t-229.5 -153t-280.5 -57z" />
    <glyph glyph-name="greater.uc.whitecircle" unicode="&#x3e;&#x20dd;" 
d="M681 405v135l283 141v5l-283 138v137l453 -236v-84zM900 92q158 0 291.5 79t210.5 215.5t77 297.5q0 162 -77 298t-210 215t-292 79t-292 -79t-210 -215t-77 -298q0 -161 77 -297.5t210.5 -215.5t291.5 -79zM900 -36q-147 0 -280.5 57t-229.5 153t-153 229.5t-57 280.5
t57 280.5t153 229.5t229.5 153t280.5 57t280.5 -57t229.5 -153t153 -229.5t57 -280.5t-57 -280.5t-153 -229.5t-229.5 -153t-280.5 -57z" />
    <glyph glyph-name="less.uc.whitecircle" unicode="&#x3c;&#x20dd;" 
d="M1119 405l-453 236v84l453 236v-137l-283 -138v-5l283 -141v-135zM900 92q158 0 291.5 79t210.5 215.5t77 297.5q0 162 -77 298t-210 215t-292 79t-292 -79t-210 -215t-77 -298q0 -161 77 -297.5t210.5 -215.5t291.5 -79zM900 -36q-147 0 -280.5 57t-229.5 153
t-153 229.5t-57 280.5t57 280.5t153 229.5t229.5 153t280.5 57t280.5 -57t229.5 -153t153 -229.5t57 -280.5t-57 -280.5t-153 -229.5t-229.5 -153t-280.5 -57z" />
    <glyph glyph-name="numbersign.whitecircle" unicode="&#x23;&#x20dd;" 
d="M850 755l-28 -132h123l28 132h-123zM1163 748h-96l-25 -111h95l-20 -97h-94l-35 -166h-104l35 166h-105l-36 -166h-102l34 166h-92l19 97h90l26 111h-89l18 96h90l32 159h104l-33 -159h106l32 159h105l-32 -159h96zM900 92q158 0 291.5 79t210.5 215.5t77 297.5
q0 162 -77 298t-210 215t-292 79t-292 -79t-210 -215t-77 -298q0 -161 77 -297.5t210.5 -215.5t291.5 -79zM900 -36q-147 0 -280.5 57t-229.5 153t-153 229.5t-57 280.5t57 280.5t153 229.5t229.5 153t280.5 57t280.5 -57t229.5 -153t153 -229.5t57 -280.5t-57 -280.5
t-153 -229.5t-229.5 -153t-280.5 -57z" />
    <glyph glyph-name="uni25BC.whitecircle" unicode="&#x25bc;&#x20dd;" 
d="M610 881h581l-291 -502zM900 92q158 0 291.5 79t210.5 215.5t77 297.5q0 162 -77 298t-210 215t-292 79t-292 -79t-210 -215t-77 -298q0 -161 77 -297.5t210.5 -215.5t291.5 -79zM900 -36q-147 0 -280.5 57t-229.5 153t-153 229.5t-57 280.5t57 280.5t153 229.5
t229.5 153t280.5 57t280.5 -57t229.5 -153t153 -229.5t57 -280.5t-57 -280.5t-153 -229.5t-229.5 -153t-280.5 -57z" />
    <glyph glyph-name="uni25B2.whitecircle" unicode="&#x25b2;&#x20dd;" 
d="M610 496l290 502l291 -502h-581zM900 92q158 0 291.5 79t210.5 215.5t77 297.5q0 162 -77 298t-210 215t-292 79t-292 -79t-210 -215t-77 -298q0 -161 77 -297.5t210.5 -215.5t291.5 -79zM900 -36q-147 0 -280.5 57t-229.5 153t-153 229.5t-57 280.5t57 280.5t153 229.5
t229.5 153t280.5 57t280.5 -57t229.5 -153t153 -229.5t57 -280.5t-57 -280.5t-153 -229.5t-229.5 -153t-280.5 -57z" />
    <glyph glyph-name="uni25C0.whitecircle" unicode="&#x25c0;&#x20dd;" 
d="M1094 399l-503 291l503 290v-581zM900 92q158 0 291.5 79t210.5 215.5t77 297.5q0 162 -77 298t-210 215t-292 79t-292 -79t-210 -215t-77 -298q0 -161 77 -297.5t210.5 -215.5t291.5 -79zM900 -36q-147 0 -280.5 57t-229.5 153t-153 229.5t-57 280.5t57 280.5t153 229.5
t229.5 153t280.5 57t280.5 -57t229.5 -153t153 -229.5t57 -280.5t-57 -280.5t-153 -229.5t-229.5 -153t-280.5 -57z" />
    <glyph glyph-name="uni25B6.whitecircle" unicode="&#x25b6;&#x20dd;" 
d="M706 399v581l503 -290zM900 92q158 0 291.5 79t210.5 215.5t77 297.5q0 162 -77 298t-210 215t-292 79t-292 -79t-210 -215t-77 -298q0 -161 77 -297.5t210.5 -215.5t291.5 -79zM900 -36q-147 0 -280.5 57t-229.5 153t-153 229.5t-57 280.5t57 280.5t153 229.5t229.5 153
t280.5 57t280.5 -57t229.5 -153t153 -229.5t57 -280.5t-57 -280.5t-153 -229.5t-229.5 -153t-280.5 -57z" />
    <glyph glyph-name="question.whitecircle" unicode="&#x3f;&#x20dd;" 
d="M689 830q0 88 59.5 138.5t163.5 50.5q99 0 158 -46.5t59 -125.5q0 -45 -22.5 -79t-70.5 -69q-51 -35 -67 -54t-16 -50v-19h-126q-1 3 -1 32q-4 83 82 141q42 29 58.5 48.5t16.5 43.5q0 32 -22.5 51t-59.5 19t-59.5 -22t-23.5 -59h-129zM801 443q0 34 24.5 54t66.5 20
t66.5 -20t24.5 -54t-24.5 -54t-66.5 -20t-66.5 20t-24.5 54zM900 92q158 0 291.5 79t210.5 215.5t77 297.5q0 162 -77 298t-210 215t-292 79t-292 -79t-210 -215t-77 -298q0 -161 77 -297.5t210.5 -215.5t291.5 -79zM900 -36q-147 0 -280.5 57t-229.5 153t-153 229.5
t-57 280.5t57 280.5t153 229.5t229.5 153t280.5 57t280.5 -57t229.5 -153t153 -229.5t57 -280.5t-57 -280.5t-153 -229.5t-229.5 -153t-280.5 -57z" />
    <glyph glyph-name="exclam.whitecircle" unicode="&#x21;&#x20dd;" 
d="M823 1007h157l-16 -412h-125zM810 442q0 35 25 54.5t67 19.5t67 -20t25 -54t-25 -54t-67 -20q-41 0 -66.5 20t-25.5 54zM900 92q158 0 291.5 79t210.5 215.5t77 297.5q0 162 -77 298t-210 215t-292 79t-292 -79t-210 -215t-77 -298q0 -161 77 -297.5t210.5 -215.5
t291.5 -79zM900 -36q-147 0 -280.5 57t-229.5 153t-153 229.5t-57 280.5t57 280.5t153 229.5t229.5 153t280.5 57t280.5 -57t229.5 -153t153 -229.5t57 -280.5t-57 -280.5t-153 -229.5t-229.5 -153t-280.5 -57z" />
    <glyph glyph-name="uni2717.whitecircle" unicode="&#x2717;&#x20dd;" 
d="M901 772l223 223l88 -87l-223 -223l222 -222l-89 -88l-221 222l-222 -222l-88 87l222 223l-223 223l88 88zM900 92q158 0 291.5 79t210.5 215.5t77 297.5q0 162 -77 298t-210 215t-292 79t-292 -79t-210 -215t-77 -298q0 -161 77 -297.5t210.5 -215.5t291.5 -79zM900 -36
q-147 0 -280.5 57t-229.5 153t-153 229.5t-57 280.5t57 280.5t153 229.5t229.5 153t280.5 57t280.5 -57t229.5 -153t153 -229.5t57 -280.5t-57 -280.5t-153 -229.5t-229.5 -153t-280.5 -57z" />
    <glyph glyph-name="uni2713.whitecircle" unicode="&#x2713;&#x20dd;" 
d="M1287 874l-493 -489l-269 266l92 92l177 -178l403 402zM900 92q158 0 291.5 79t210.5 215.5t77 297.5q0 162 -77 298t-210 215t-292 79t-292 -79t-210 -215t-77 -298q0 -161 77 -297.5t210.5 -215.5t291.5 -79zM900 -36q-147 0 -280.5 57t-229.5 153t-153 229.5
t-57 280.5t57 280.5t153 229.5t229.5 153t280.5 57t280.5 -57t229.5 -153t153 -229.5t57 -280.5t-57 -280.5t-153 -229.5t-229.5 -153t-280.5 -57z" />
    <glyph glyph-name="zero.whitesquare" unicode="&#x30;&#x20de;" 
d="M900 481q53 0 82.5 52t29.5 145v30q0 93 -29.5 144.5t-82.5 51.5t-82 -51.5t-29 -144.5v-30q0 -94 29 -145.5t82 -51.5zM899 367q-118 0 -186.5 83.5t-68.5 227.5v31q0 142 69.5 225.5t187.5 83.5t186.5 -83t68.5 -226v-31q0 -142 -69.5 -226.5t-187.5 -84.5zM444 1386
h912q103 0 175 -71.5t72 -172.5v-915q0 -101 -72 -172.5t-175 -71.5h-912q-102 0 -174.5 71.5t-72.5 172.5v915q0 101 72.5 172.5t174.5 71.5zM1325 1250h-850q-56 0 -94 -37t-38 -90v-877q0 -53 38.5 -90.5t93.5 -37.5h850q55 0 93.5 37.5t38.5 90.5v877q0 54 -38 90.5
t-94 36.5z" />
    <glyph glyph-name="one.whitesquare" unicode="&#x31;&#x20de;" 
d="M1008 378h-146v498h-4l-151 -101v127l152 105h149v-629zM444 1386h912q103 0 175 -71.5t72 -172.5v-915q0 -101 -72 -172.5t-175 -71.5h-912q-102 0 -174.5 71.5t-72.5 172.5v915q0 101 72.5 172.5t174.5 71.5zM1325 1250h-850q-56 0 -94 -37t-38 -90v-877
q0 -53 38.5 -90.5t93.5 -37.5h850q55 0 93.5 37.5t38.5 90.5v877q0 54 -38 90.5t-94 36.5z" />
    <glyph glyph-name="two.whitesquare" unicode="&#x32;&#x20de;" 
d="M807 815h-138v3q0 89 64.5 145t168.5 56q102 0 165.5 -50.5t63.5 -130.5q0 -44 -27 -90t-90 -108l-141 -143v-3q35 0 135 -0.5t134 -0.5v-115h-465v90l236 237q72 72 72 121q0 35 -25 57.5t-63 22.5q-39 0 -65 -25t-25 -63v-3zM444 1386h912q103 0 175 -71.5t72 -172.5
v-915q0 -101 -72 -172.5t-175 -71.5h-912q-102 0 -174.5 71.5t-72.5 172.5v915q0 101 72.5 172.5t174.5 71.5zM1325 1250h-850q-56 0 -94 -37t-38 -90v-877q0 -53 38.5 -90.5t93.5 -37.5h850q55 0 93.5 37.5t38.5 90.5v877q0 54 -38 90.5t-94 36.5z" />
    <glyph glyph-name="three.whitesquare" unicode="&#x33;&#x20de;" 
d="M831 647v108h65q41 0 68 22.5t27 57.5q0 34 -26.5 55.5t-68.5 21.5q-38 0 -65.5 -21.5t-31.5 -53.5h-135q4 84 67.5 132.5t168.5 48.5q108 0 169 -44t62 -121q1 -52 -32 -90.5t-87 -49.5v-8q62 -8 100 -49t40 -101q1 -85 -69 -136.5t-186 -51.5q-107 0 -173.5 50
t-69.5 133h133q4 -33 34.5 -54t74.5 -21q50 0 81 24t31 62t-30 62t-78 24h-69zM444 1386h912q103 0 175 -71.5t72 -172.5v-915q0 -101 -72 -172.5t-175 -71.5h-912q-102 0 -174.5 71.5t-72.5 172.5v915q0 101 72.5 172.5t174.5 71.5zM1325 1250h-850q-56 0 -94 -37t-38 -90
v-877q0 -53 38.5 -90.5t93.5 -37.5h850q55 0 93.5 37.5t38.5 90.5v877q0 54 -38 90.5t-94 36.5z" />
    <glyph glyph-name="four.whitesquare" unicode="&#x34;&#x20de;" 
d="M869 1007h215v-406h77v-112h-77v-111h-139v111h-315v115q64 123 239 403zM945 601v307h-2q-132 -196 -188 -307h190zM444 1386h912q103 0 175 -71.5t72 -172.5v-915q0 -101 -72 -172.5t-175 -71.5h-912q-102 0 -174.5 71.5t-72.5 172.5v915q0 101 72.5 172.5t174.5 71.5z
M1325 1250h-850q-56 0 -94 -37t-38 -90v-877q0 -53 38.5 -90.5t93.5 -37.5h850q55 0 93.5 37.5t38.5 90.5v877q0 54 -38 90.5t-94 36.5z" />
    <glyph glyph-name="five.whitesquare" unicode="&#x35;&#x20de;" 
d="M806 545q8 -31 37 -49.5t69 -18.5q48 0 79 31t31 79q0 44 -31 74.5t-77 30.5q-31 0 -57.5 -14.5t-40.5 -38.5h-133l27 368h413v-108h-301l-14 -162h9q18 26 55 41.5t80 15.5q94 0 151.5 -55.5t57.5 -147.5q0 -102 -69.5 -163.5t-184.5 -61.5q-101 0 -167.5 50t-70.5 129
h137zM444 1386h912q103 0 175 -71.5t72 -172.5v-915q0 -101 -72 -172.5t-175 -71.5h-912q-102 0 -174.5 71.5t-72.5 172.5v915q0 101 72.5 172.5t174.5 71.5zM1325 1250h-850q-56 0 -94 -37t-38 -90v-877q0 -53 38.5 -90.5t93.5 -37.5h850q55 0 93.5 37.5t38.5 90.5v877
q0 54 -38 90.5t-94 36.5z" />
    <glyph glyph-name="six.whitesquare" unicode="&#x36;&#x20de;" 
d="M1007 861q-8 21 -32.5 34.5t-55.5 13.5q-51 0 -85.5 -43t-41.5 -115q-4 -30 -4 -49h6q18 38 61.5 61.5t95.5 23.5q94 0 151 -56t57 -147q0 -100 -67.5 -159.5t-180.5 -59.5q-133 0 -201 93q-61 81 -61 227q0 162 69 246.5t201 84.5q91 0 153 -43.5t70 -111.5h-135z
M807 583q0 -48 29.5 -77.5t76.5 -29.5q46 0 75 29.5t29 75.5q0 47 -29 76.5t-75 29.5q-47 0 -76.5 -29t-29.5 -75zM444 1386h912q103 0 175 -71.5t72 -172.5v-915q0 -101 -72 -172.5t-175 -71.5h-912q-102 0 -174.5 71.5t-72.5 172.5v915q0 101 72.5 172.5t174.5 71.5z
M1325 1250h-850q-56 0 -94 -37t-38 -90v-877q0 -53 38.5 -90.5t93.5 -37.5h850q55 0 93.5 37.5t38.5 90.5v877q0 54 -38 90.5t-94 36.5z" />
    <glyph glyph-name="seven.whitesquare" unicode="&#x37;&#x20de;" 
d="M673 1007h470v-116l-264 -513h-154l267 511v2h-319v116zM444 1386h912q103 0 175 -71.5t72 -172.5v-915q0 -101 -72 -172.5t-175 -71.5h-912q-102 0 -174.5 71.5t-72.5 172.5v915q0 101 72.5 172.5t174.5 71.5zM1325 1250h-850q-56 0 -94 -37t-38 -90v-877
q0 -53 38.5 -90.5t93.5 -37.5h850q55 0 93.5 37.5t38.5 90.5v877q0 54 -38 90.5t-94 36.5z" />
    <glyph glyph-name="eight.whitesquare" unicode="&#x38;&#x20de;" 
d="M900 752q41 0 68 23.5t27 60.5q0 36 -27 59.5t-68 23.5t-68 -23.5t-27 -59.5q0 -37 27 -60.5t68 -23.5zM900 465q49 0 82 28t33 69q0 42 -33 70t-82 28t-82 -28t-33 -70q0 -41 33 -69t82 -28zM900 367q-119 0 -190 50.5t-71 135.5q0 58 40 100t108 55v4q-122 38 -122 139
q0 75 64.5 121t170.5 46t170.5 -46t64.5 -121q0 -101 -122 -139v-4q68 -13 108 -55t40 -100q0 -85 -71 -135.5t-190 -50.5zM444 1386h912q103 0 175 -71.5t72 -172.5v-915q0 -101 -72 -172.5t-175 -71.5h-912q-102 0 -174.5 71.5t-72.5 172.5v915q0 101 72.5 172.5
t174.5 71.5zM1325 1250h-850q-56 0 -94 -37t-38 -90v-877q0 -53 38.5 -90.5t93.5 -37.5h850q55 0 93.5 37.5t38.5 90.5v877q0 54 -38 90.5t-94 36.5z" />
    <glyph glyph-name="nine.whitesquare" unicode="&#x39;&#x20de;" 
d="M996 800q0 48 -29 78t-75 30t-76.5 -30t-30.5 -76t29.5 -75t76.5 -29q46 0 75.5 29t29.5 73zM796 523q9 -21 33.5 -34.5t55.5 -13.5q64 0 97.5 53.5t31.5 151.5h-6q-19 -37 -62 -60t-94 -23q-93 0 -150.5 56t-57.5 147q0 98 68.5 158.5t180.5 60.5q125 0 193 -82t68 -235
q0 -164 -69 -249.5t-201 -85.5q-91 0 -153.5 43.5t-70.5 112.5h136zM444 1386h912q103 0 175 -71.5t72 -172.5v-915q0 -101 -72 -172.5t-175 -71.5h-912q-102 0 -174.5 71.5t-72.5 172.5v915q0 101 72.5 172.5t174.5 71.5zM1325 1250h-850q-56 0 -94 -37t-38 -90v-877
q0 -53 38.5 -90.5t93.5 -37.5h850q55 0 93.5 37.5t38.5 90.5v877q0 54 -38 90.5t-94 36.5z" />
    <glyph glyph-name="plus.uc.whitesquare" unicode="&#x2b;&#x20de;" 
d="M962 631v-191h-124v191h-186v119h186v184h124v-184h186v-119h-186zM444 1386h912q103 0 175 -71.5t72 -172.5v-915q0 -101 -72 -172.5t-175 -71.5h-912q-102 0 -174.5 71.5t-72.5 172.5v915q0 101 72.5 172.5t174.5 71.5zM1325 1250h-850q-56 0 -94 -37t-38 -90v-877
q0 -53 38.5 -90.5t93.5 -37.5h850q55 0 93.5 37.5t38.5 90.5v877q0 54 -38 90.5t-94 36.5z" />
    <glyph glyph-name="minus.uc.whitesquare" unicode="&#x2212;&#x20de;" 
d="M1131 627h-462v122h462v-122zM444 1386h912q103 0 175 -71.5t72 -172.5v-915q0 -101 -72 -172.5t-175 -71.5h-912q-102 0 -174.5 71.5t-72.5 172.5v915q0 101 72.5 172.5t174.5 71.5zM1325 1250h-850q-56 0 -94 -37t-38 -90v-877q0 -53 38.5 -90.5t93.5 -37.5h850
q55 0 93.5 37.5t38.5 90.5v877q0 54 -38 90.5t-94 36.5z" />
    <glyph glyph-name="multiply.uc.whitesquare" unicode="&#xd7;&#x20de;" 
d="M900 774l145 138l86 -87l-142 -138l142 -139l-86 -86l-145 140l-145 -140l-86 86l142 139l-142 138l87 87zM444 1386h912q103 0 175 -71.5t72 -172.5v-915q0 -101 -72 -172.5t-175 -71.5h-912q-102 0 -174.5 71.5t-72.5 172.5v915q0 101 72.5 172.5t174.5 71.5z
M1325 1250h-850q-56 0 -94 -37t-38 -90v-877q0 -53 38.5 -90.5t93.5 -37.5h850q55 0 93.5 37.5t38.5 90.5v877q0 54 -38 90.5t-94 36.5z" />
    <glyph glyph-name="divide.uc.whitesquare" unicode="&#xf7;&#x20de;" 
d="M821 881q0 33 21.5 53t56.5 20q36 0 58.5 -20t22.5 -53t-22.5 -53.5t-58.5 -20.5q-34 0 -56 20.5t-22 53.5zM1131 638h-462v100h462v-100zM821 495q0 32 22.5 53t56.5 21q35 0 58 -21t23 -53t-22.5 -53t-58.5 -21q-34 0 -56.5 21t-22.5 53zM444 1386h912q103 0 175 -71.5
t72 -172.5v-915q0 -101 -72 -172.5t-175 -71.5h-912q-102 0 -174.5 71.5t-72.5 172.5v915q0 101 72.5 172.5t174.5 71.5zM1325 1250h-850q-56 0 -94 -37t-38 -90v-877q0 -53 38.5 -90.5t93.5 -37.5h850q55 0 93.5 37.5t38.5 90.5v877q0 54 -38 90.5t-94 36.5z" />
    <glyph glyph-name="equal.uc.whitesquare" unicode="&#x3d;&#x20de;" 
d="M1131 744h-462v108h462v-108zM1131 521h-462v108h462v-108zM444 1386h912q103 0 175 -71.5t72 -172.5v-915q0 -101 -72 -172.5t-175 -71.5h-912q-102 0 -174.5 71.5t-72.5 172.5v915q0 101 72.5 172.5t174.5 71.5zM1325 1250h-850q-56 0 -94 -37t-38 -90v-877
q0 -53 38.5 -90.5t93.5 -37.5h850q55 0 93.5 37.5t38.5 90.5v877q0 54 -38 90.5t-94 36.5z" />
    <glyph glyph-name="greater.uc.whitesquare" unicode="&#x3e;&#x20de;" 
d="M703 403v136l283 141v5l-283 138v137l453 -236v-84zM444 1386h912q103 0 175 -71.5t72 -172.5v-915q0 -101 -72 -172.5t-175 -71.5h-912q-102 0 -174.5 71.5t-72.5 172.5v915q0 101 72.5 172.5t174.5 71.5zM1325 1250h-850q-56 0 -94 -37t-38 -90v-877q0 -53 38.5 -90.5
t93.5 -37.5h850q55 0 93.5 37.5t38.5 90.5v877q0 54 -38 90.5t-94 36.5z" />
    <glyph glyph-name="less.uc.whitesquare" unicode="&#x3c;&#x20de;" 
d="M1105 403l-453 237v84l453 236v-137l-284 -138v-5l284 -141v-136zM444 1386h912q103 0 175 -71.5t72 -172.5v-915q0 -101 -72 -172.5t-175 -71.5h-912q-102 0 -174.5 71.5t-72.5 172.5v915q0 101 72.5 172.5t174.5 71.5zM1325 1250h-850q-56 0 -94 -37t-38 -90v-877
q0 -53 38.5 -90.5t93.5 -37.5h850q55 0 93.5 37.5t38.5 90.5v877q0 54 -38 90.5t-94 36.5z" />
    <glyph glyph-name="numbersign.whitesquare" unicode="&#x23;&#x20de;" 
d="M850 759l-28 -132h123l28 132h-123zM1163 752h-96l-25 -112h95l-20 -96h-94l-35 -166h-104l35 166h-105l-36 -166h-102l34 166h-92l19 96h90l26 112h-89l18 95h90l32 160h104l-33 -160h106l32 160h105l-32 -160h96zM444 1386h912q103 0 175 -71.5t72 -172.5v-915
q0 -101 -72 -172.5t-175 -71.5h-912q-102 0 -174.5 71.5t-72.5 172.5v915q0 101 72.5 172.5t174.5 71.5zM1325 1250h-850q-56 0 -94 -37t-38 -90v-877q0 -53 38.5 -90.5t93.5 -37.5h850q55 0 93.5 37.5t38.5 90.5v877q0 54 -38 90.5t-94 36.5z" />
    <glyph glyph-name="uni25BC.whitesquare" unicode="&#x25bc;&#x20de;" 
d="M610 887h581l-291 -502zM444 1386h912q103 0 175 -71.5t72 -172.5v-915q0 -101 -72 -172.5t-175 -71.5h-912q-102 0 -174.5 71.5t-72.5 172.5v915q0 101 72.5 172.5t174.5 71.5zM1325 1250h-850q-56 0 -94 -37t-38 -90v-877q0 -53 38.5 -90.5t93.5 -37.5h850
q55 0 93.5 37.5t38.5 90.5v877q0 54 -38 90.5t-94 36.5z" />
    <glyph glyph-name="uni25B2.whitesquare" unicode="&#x25b2;&#x20de;" 
d="M610 488l290 502l291 -502h-581zM444 1386h912q103 0 175 -71.5t72 -172.5v-915q0 -101 -72 -172.5t-175 -71.5h-912q-102 0 -174.5 71.5t-72.5 172.5v915q0 101 72.5 172.5t174.5 71.5zM1325 1250h-850q-56 0 -94 -37t-38 -90v-877q0 -53 38.5 -90.5t93.5 -37.5h850
q55 0 93.5 37.5t38.5 90.5v877q0 54 -38 90.5t-94 36.5z" />
    <glyph glyph-name="uni25C0.whitesquare" unicode="&#x25c0;&#x20de;" 
d="M1094 398l-503 290l503 291v-581zM444 1386h912q103 0 175 -71.5t72 -172.5v-915q0 -101 -72 -172.5t-175 -71.5h-912q-102 0 -174.5 71.5t-72.5 172.5v915q0 101 72.5 172.5t174.5 71.5zM1325 1250h-850q-56 0 -94 -37t-38 -90v-877q0 -53 38.5 -90.5t93.5 -37.5h850
q55 0 93.5 37.5t38.5 90.5v877q0 54 -38 90.5t-94 36.5z" />
    <glyph glyph-name="uni25B6.whitesquare" unicode="&#x25b6;&#x20de;" 
d="M706 398v581l503 -291zM444 1386h912q103 0 175 -71.5t72 -172.5v-915q0 -101 -72 -172.5t-175 -71.5h-912q-102 0 -174.5 71.5t-72.5 172.5v915q0 101 72.5 172.5t174.5 71.5zM1325 1250h-850q-56 0 -94 -37t-38 -90v-877q0 -53 38.5 -90.5t93.5 -37.5h850
q55 0 93.5 37.5t38.5 90.5v877q0 54 -38 90.5t-94 36.5z" />
    <glyph glyph-name="question.whitesquare" unicode="&#x3f;&#x20de;" 
d="M694 829q0 88 59.5 138.5t163.5 50.5q99 0 158 -46.5t59 -125.5q0 -46 -22.5 -79.5t-70.5 -68.5q-51 -36 -67 -54.5t-16 -50.5v-18h-126q-1 2 -1 32q-3 83 82 141q41 29 58 48t17 43q0 32 -22.5 51.5t-59.5 19.5t-59.5 -22t-23.5 -59h-129zM806 441q0 35 24.5 55t66.5 20
t66.5 -20t24.5 -55q0 -34 -24.5 -53.5t-66.5 -19.5t-66.5 19.5t-24.5 53.5zM444 1386h912q103 0 175 -71.5t72 -172.5v-915q0 -101 -72 -172.5t-175 -71.5h-912q-102 0 -174.5 71.5t-72.5 172.5v915q0 101 72.5 172.5t174.5 71.5zM1325 1250h-850q-56 0 -94 -37t-38 -90
v-877q0 -53 38.5 -90.5t93.5 -37.5h850q55 0 93.5 37.5t38.5 90.5v877q0 54 -38 90.5t-94 36.5z" />
    <glyph glyph-name="exclam.whitesquare" unicode="&#x21;&#x20de;" 
d="M823 1006h157l-16 -412h-125zM810 441q0 34 25 54t67 20t67 -20t25 -54t-25 -54t-67 -20q-41 0 -66.5 20t-25.5 54zM444 1386h912q103 0 175 -71.5t72 -172.5v-915q0 -101 -72 -172.5t-175 -71.5h-912q-102 0 -174.5 71.5t-72.5 172.5v915q0 101 72.5 172.5t174.5 71.5z
M1325 1250h-850q-56 0 -94 -37t-38 -90v-877q0 -53 38.5 -90.5t93.5 -37.5h850q55 0 93.5 37.5t38.5 90.5v877q0 54 -38 90.5t-94 36.5z" />
    <glyph glyph-name="uni2717.whitesquare" unicode="&#x2717;&#x20de;" 
d="M901 771l223 223l88 -88l-223 -222l222 -222l-89 -88l-221 222l-222 -222l-88 87l222 223l-223 222l88 88zM444 1386h912q103 0 175 -71.5t72 -172.5v-915q0 -101 -72 -172.5t-175 -71.5h-912q-102 0 -174.5 71.5t-72.5 172.5v915q0 101 72.5 172.5t174.5 71.5z
M1325 1250h-850q-56 0 -94 -37t-38 -90v-877q0 -53 38.5 -90.5t93.5 -37.5h850q55 0 93.5 37.5t38.5 90.5v877q0 54 -38 90.5t-94 36.5z" />
    <glyph glyph-name="uni2713.whitesquare" unicode="&#x2713;&#x20de;" 
d="M1287 878l-493 -489l-269 266l92 91l177 -177l403 401zM444 1386h912q103 0 175 -71.5t72 -172.5v-915q0 -101 -72 -172.5t-175 -71.5h-912q-102 0 -174.5 71.5t-72.5 172.5v915q0 101 72.5 172.5t174.5 71.5zM1325 1250h-850q-56 0 -94 -37t-38 -90v-877
q0 -53 38.5 -90.5t93.5 -37.5h850q55 0 93.5 37.5t38.5 90.5v877q0 54 -38 90.5t-94 36.5z" />
    <glyph glyph-name=".notdef" horiz-adv-x="2048" 
d="M100 -494v252h1848v-252h-1848zM100 -56v252h1848v-252h-1848zM100 383v252h1848v-252h-1848zM100 821v252h1848v-252h-1848zM100 1260v252h1848v-252h-1848zM100 1698v252h1848v-252h-1848z" />
    <glyph glyph-name=".null" horiz-adv-x="0" 
 />
    <glyph glyph-name="nonmarkingreturn" horiz-adv-x="0" 
 />
    <glyph glyph-name="space" unicode=" " horiz-adv-x="406" 
 />
    <glyph glyph-name="exclam" unicode="!" horiz-adv-x="538" 
d="M146 1365h247l-27 -954h-194zM134 109q0 55 39.5 91.5t95.5 36.5t95.5 -36.5t39.5 -91.5t-39.5 -92t-95.5 -37t-95.5 37t-39.5 92z" />
    <glyph glyph-name="quotedbl" unicode="&#x22;" horiz-adv-x="786" 
d="M108 1365h209l-26 -462h-156zM468 1365h209l-26 -462h-156z" />
    <glyph glyph-name="numbersign" unicode="#" horiz-adv-x="1212" 
d="M1166 836h-223l-60 -294h220l-33 -164h-218l-76 -378h-171l76 378h-286l-77 -378h-172l76 378h-207l32 164h211l60 294h-208l31 164h208l73 365h173l-74 -365h286l74 365h171l-73 -365h219zM482 847l-65 -316h302l64 316h-301z" />
    <glyph glyph-name="dollar" unicode="$" horiz-adv-x="1171" 
d="M315 1017q0 -126 158 -183q22 -9 48 -16v396q-93 -12 -149.5 -62.5t-56.5 -134.5zM889 377q0 76 -46 125t-156 83q-18 4 -28 7v-427q105 9 167.5 64.5t62.5 147.5zM660 -129h-142v126q-212 16 -321.5 125.5t-111.5 260.5h197q6 -86 67.5 -144t171.5 -73v456l-79 20
q-66 16 -122 43.5t-103 70t-74 105.5t-27 141q0 167 112 265t291 115v131h141v-130q176 -18 288 -118.5t116 -258.5h-194q-2 79 -58.5 137t-152.5 71v-429l81 -19q168 -41 258 -128t90 -244q0 -174 -117 -276.5t-312 -119.5z" />
    <glyph glyph-name="percent" unicode="%" horiz-adv-x="1471" 
d="M1063 350v-43q0 -83 25 -127t67 -44t66.5 43.5t24.5 127.5v43q0 84 -24.5 127.5t-66.5 43.5t-67 -44t-25 -127zM880 307v44q0 145 74 232.5t202 87.5q129 0 201.5 -87t72.5 -233v-44q0 -142 -73 -231.5t-204 -89.5q-128 0 -200.5 87.5t-72.5 233.5zM224 1089v-43
q0 -83 25 -127t67 -44t66.5 43.5t24.5 127.5v43q0 84 -24.5 127.5t-66.5 43.5t-67 -44t-25 -127zM41 1046v44q0 145 74 232.5t202 87.5q129 0 201.5 -87t72.5 -233v-44q0 -142 -73 -231.5t-204 -89.5q-128 0 -200.5 87.5t-72.5 233.5zM308 0h-189l540 700l506 665h189
l-535 -693z" />
    <glyph glyph-name="ampersand" unicode="&#x26;" horiz-adv-x="1328" 
d="M1082 0l-115 124q-88 -77 -200 -114t-227 -37q-204 0 -334.5 104.5t-130.5 279.5q0 125 68 213.5t192 157.5q6 3 25 13t30 15q-83 87 -125.5 158t-42.5 155q0 132 103.5 220t259.5 88q151 0 255.5 -84.5t104.5 -223.5q0 -62 -22 -114.5t-64 -95t-87.5 -74t-109.5 -65.5
l299 -325q56 105 56 324v54h191v-62q0 -290 -113 -454l244 -257h-257zM457 614q-83 -46 -128 -103t-45 -138q0 -74 39.5 -128t101 -79t135.5 -25q78 0 157 28t130 84l-349 382q-37 -18 -41 -21zM554 830q99 51 149 102t50 126q0 73 -47 118t-120 45q-74 0 -121 -46t-47 -118
q0 -51 30 -101t106 -126z" />
    <glyph glyph-name="quotesingle" unicode="'" horiz-adv-x="426" 
d="M108 1365h209l-26 -462h-156z" />
    <glyph glyph-name="parenleft" unicode="(" horiz-adv-x="702" 
d="M469 1437h195q-103 -119 -176 -356.5t-73 -499.5q0 -253 62 -464.5t184 -427.5h-202q-123 157 -195.5 387t-72.5 503q0 277 69.5 483t208.5 375z" />
    <glyph glyph-name="parenright" unicode=")" horiz-adv-x="702" 
d="M37 1437h196q139 -170 208.5 -376t69.5 -482q0 -273 -73 -503t-196 -387h-202q122 216 184 427.5t62 464.5q0 262 -73 499.5t-176 356.5z" />
    <glyph glyph-name="asterisk" unicode="*" horiz-adv-x="930" 
d="M536 713h-141l18 245l-205 -139l-70 124l217 106l-218 107l71 125l203 -141l-16 247h141l-17 -245l202 139l72 -125l-219 -107l219 -106l-71 -124l-204 139z" />
    <glyph glyph-name="plus" unicode="+" horiz-adv-x="1171" 
d="M679 458v-434h-187v434h-400v185h400v415h187v-415h402v-185h-402z" />
    <glyph glyph-name="comma" unicode="," horiz-adv-x="442" 
d="M188 -245h-166l104 439h223z" />
    <glyph glyph-name="hyphen" unicode="&#x2011;" horiz-adv-x="787" 
d="M709 461h-630v198h630v-198z" />
    <glyph glyph-name="hyphen" unicode="-" horiz-adv-x="787" 
d="M709 461h-630v198h630v-198z" />
    <glyph glyph-name="period" unicode="." horiz-adv-x="510" 
d="M119 117q0 56 40 96.5t97 40.5q56 0 96.5 -40.5t40.5 -96.5q0 -57 -40.5 -97.5t-96.5 -40.5q-57 0 -97 40.5t-40 97.5z" />
    <glyph glyph-name="slash" unicode="/" horiz-adv-x="702" 
d="M206 -311h-203l492 1748h204z" />
    <glyph glyph-name="zero" unicode="0" horiz-adv-x="1174" 
d="M313 731v-97q0 -227 73 -349.5t201 -122.5t201.5 123t73.5 349v97q0 226 -73.5 349t-201.5 123t-201 -122.5t-73 -349.5zM87 632v100q0 304 132 482t371 178q238 0 367.5 -177.5t129.5 -482.5v-100q0 -300 -130 -479.5t-371 -179.5q-239 0 -369 177.5t-130 481.5z" />
    <glyph glyph-name="one" unicode="1" horiz-adv-x="824" 
d="M647 0h-224v1141h-7q-40 -22 -152.5 -93t-164.5 -108v217q60 43 168 110.5t164 97.5h216v-1365z" />
    <glyph glyph-name="two" unicode="2" horiz-adv-x="1125" 
d="M321 971h-217v11q0 172 124 291t331 119q198 0 320 -106t122 -272q0 -59 -15 -111t-50.5 -107.5t-71 -99.5t-99.5 -116l-336 -385v-6h597v-189h-909v142l503 562q76 83 115 148.5t39 142.5q0 95 -63 153t-161 58q-103 0 -166 -65t-63 -158v-12z" />
    <glyph glyph-name="three" unicode="3" horiz-adv-x="1148" 
d="M414 612v183h136q106 0 172 59.5t66 153.5q-1 89 -64.5 145.5t-167.5 56.5q-107 0 -165.5 -60.5t-64.5 -142.5h-214q2 77 32 145.5t85 122.5t140.5 85.5t191.5 31.5q196 0 322 -99t130 -252q1 -69 -22 -129.5t-61 -100t-80.5 -63.5t-83.5 -30v-7q48 -4 97 -25.5t93.5 -60
t73.5 -102.5t30 -142q2 -179 -143.5 -294t-363.5 -115q-114 0 -204 31.5t-146.5 86.5t-86.5 125.5t-33 152.5h211q11 -94 79 -153t186 -59q128 0 201 65t72 167q-2 101 -74.5 162.5t-199.5 61.5h-144z" />
    <glyph glyph-name="four" unicode="4" horiz-adv-x="1186" 
d="M632 1365h324v-910h172v-189h-172v-266h-214v266h-662v188q217 400 552 911zM293 455h449v729h-7q-251 -378 -442 -726v-3z" />
    <glyph glyph-name="five" unicode="5" horiz-adv-x="1199" 
d="M124 356h212q14 -93 86.5 -145.5t182.5 -52.5q68 0 129.5 32t104 99.5t42.5 155.5q0 128 -78.5 206t-195.5 78q-104 0 -171.5 -47t-98.5 -114h-196l69 798h794v-188h-609l-40 -387h7q30 43 109.5 80t183.5 37q187 0 319 -126.5t132 -327.5q0 -215 -144.5 -348
t-366.5 -133q-213 0 -337.5 110t-133.5 273z" />
    <glyph glyph-name="six" unicode="6" horiz-adv-x="1153" 
d="M1044 1036h-218q-7 63 -66.5 116.5t-155.5 53.5q-135 0 -217.5 -133t-86.5 -380h1h6q33 80 120 139.5t211 59.5q85 0 163 -30t140.5 -84.5t99.5 -141t37 -190.5q0 -146 -65.5 -255t-174 -163.5t-243.5 -54.5q-237 0 -371 167q-140 173 -140 502q0 363 143 555.5
t384 192.5q97 0 179 -31.5t135 -83.5t83.5 -113.5t35.5 -125.5zM329 434q0 -129 77.5 -202.5t190.5 -73.5q110 0 186 72t76 205q0 132 -77.5 205t-186.5 73q-113 0 -189.5 -75t-76.5 -204z" />
    <glyph glyph-name="seven" unicode="7" horiz-adv-x="1092" 
d="M84 1365h907v-196l-556 -1169h-239l574 1170v6h-686v189z" />
    <glyph glyph-name="eight" unicode="8" horiz-adv-x="1198" 
d="M600 145q122 0 202.5 67.5t80.5 173.5q0 107 -80.5 175t-202.5 68t-203 -68t-81 -175q0 -106 81 -173.5t203 -67.5zM600 794q102 0 168.5 60t66.5 154q0 93 -66 151.5t-169 58.5t-169.5 -58.5t-66.5 -151.5q0 -94 66.5 -154t169.5 -60zM596 -27q-225 0 -364.5 111
t-139.5 289q0 77 26.5 140.5t70 104t90 64.5t94.5 35v6q-93 29 -160 107t-67 200q0 158 127 260t327 102t326.5 -102t126.5 -260q0 -65 -21 -119.5t-55.5 -91t-72.5 -60t-79 -36.5v-6q49 -11 95.5 -35.5t89.5 -64.5t69.5 -103t26.5 -139q0 -179 -142 -290.5t-368 -111.5z
" />
    <glyph glyph-name="nine" unicode="9" horiz-adv-x="1153" 
d="M102 342h217q10 -73 73.5 -128t166.5 -55q150 0 228 141.5t76 372.5h-10q-30 -84 -118.5 -141.5t-222.5 -57.5q-84 0 -159.5 29.5t-135 84.5t-95 141.5t-35.5 193.5q0 143 67.5 251.5t174 162.5t233.5 54q245 0 381 -168.5t136 -518.5q0 -343 -138.5 -536t-388.5 -193
q-106 0 -192.5 33.5t-140 88t-83.5 117.5t-34 128zM836 924q0 136 -74.5 209.5t-190.5 73.5q-110 0 -188 -73.5t-78 -205.5t75 -204t187 -72q111 0 190 77t79 195z" />
    <glyph glyph-name="colon" unicode=":" horiz-adv-x="545" 
d="M133 117q0 56 40 96.5t97 40.5q56 0 96.5 -40.5t40.5 -96.5q0 -57 -40.5 -97.5t-96.5 -40.5q-57 0 -97 40.5t-40 97.5zM133 810q0 56 40 96.5t97 40.5q56 0 96.5 -40.5t40.5 -96.5t-40.5 -96.5t-96.5 -40.5q-57 0 -97 40.5t-40 96.5z" />
    <glyph glyph-name="semicolon" unicode=";" horiz-adv-x="544" 
d="M221 -269h-165l103 468h224zM135 810q0 56 40 96.5t97 40.5q56 0 96.5 -40.5t40.5 -96.5t-40.5 -96.5t-96.5 -40.5q-57 0 -97 40.5t-40 96.5z" />
    <glyph glyph-name="less" unicode="&#x3c;" horiz-adv-x="1171" 
d="M139 439v159l891 514v-228l-644 -354v-10l644 -339v-225z" />
    <glyph glyph-name="equal" unicode="=" horiz-adv-x="1171" 
d="M1029 261h-886v176h886v-176zM1029 658h-886v177h886v-177z" />
    <glyph glyph-name="greater" unicode="&#x3e;" horiz-adv-x="1171" 
d="M1030 598v-159l-891 -483v225l645 339v10l-645 354v228z" />
    <glyph glyph-name="question" unicode="?" horiz-adv-x="963" 
d="M54 996q-2 107 35.5 187t102 124.5t138.5 66t157 21.5q114 0 207.5 -37.5t154 -119.5t60.5 -196q0 -49 -12 -92.5t-28.5 -73.5t-46.5 -62t-51 -50t-58 -46q-53 -40 -75.5 -59t-46 -47.5t-30.5 -57t-7 -70.5v-56h-207l-1 73q-4 101 44.5 173.5t139.5 139.5q35 26 53 40.5
t40.5 36.5t33.5 40.5t18.5 44t7.5 54.5q0 92 -59.5 138t-147.5 46q-103 0 -158.5 -60.5t-56.5 -157.5h-207zM320 109q0 55 39 91.5t96 36.5q56 0 95 -36.5t39 -91.5t-39 -92t-95 -37q-57 0 -96 37t-39 92z" />
    <glyph glyph-name="at" unicode="@" horiz-adv-x="1691" 
d="M1261 133q-97 0 -161.5 41t-77.5 100h-10q-16 -57 -78.5 -99t-145.5 -42q-126 0 -198 89t-72 240v100q0 146 73.5 234t202.5 88q83 0 135.5 -40t68.5 -92h8v118h163v-492q0 -54 32 -83t82 -29q73 0 123.5 85t50.5 249v33q0 110 -39.5 208t-112.5 173.5t-184 119.5
t-246 44h-8q-177 0 -316.5 -77t-220 -223.5t-80.5 -339.5v-43q0 -155 49 -276.5t133.5 -196t193 -113t232.5 -38.5h8q198 0 307 48v-141q-99 -45 -312 -45h-9q-128 0 -241.5 30t-208.5 92.5t-164 151t-107.5 212t-38.5 270.5v55q0 231 100 408t276 271.5t399 94.5h8
q173 0 315 -56.5t232.5 -151.5t139.5 -216.5t49 -255.5v-50q0 -204 -97 -329.5t-253 -125.5zM692 485q0 -206 152 -206q70 0 111 47t41 150v81q0 92 -43.5 141t-110.5 49q-68 0 -109 -51t-41 -152v-59z" />
    <glyph glyph-name="A" unicode="A" horiz-adv-x="1233" 
d="M251 0h-231l470 1365h254l469 -1365h-240l-121 378h-479zM618 1129h-9l-185 -577h377z" />
    <glyph glyph-name="B" unicode="B" horiz-adv-x="1242" 
d="M153 0v1365h544q179 0 285.5 -90.5t106.5 -245.5q0 -117 -60.5 -194t-165.5 -106v-10q134 -16 217 -103.5t83 -231.5q0 -179 -130 -281.5t-346 -102.5h-534zM379 1185v-397h192q151 0 222 50.5t71 152.5q0 91 -56.5 142.5t-157.5 51.5h-271zM379 617v-437h217
q177 0 256.5 51.5t79.5 160.5q0 106 -69 165.5t-195 59.5h-289z" />
    <glyph glyph-name="C" unicode="C" horiz-adv-x="1265" 
d="M328 763v-168q0 -205 85 -316t242 -111q133 0 215 75.5t84 196.5h221v-15q0 -197 -147.5 -324.5t-373.5 -127.5q-263 0 -409 165t-146 458v167q0 295 146 462t409 167q227 0 374 -132t147 -339v-15h-221q-2 129 -84 209.5t-215 80.5q-157 0 -242 -112.5t-85 -320.5z" />
    <glyph glyph-name="D" unicode="D" horiz-adv-x="1311" 
d="M153 1365h471q302 0 454 -173.5t152 -506.5t-152.5 -509t-453.5 -176h-471v1365zM380 1174v-983h220q196 0 296 117.5t100 373.5q0 492 -396 492h-220z" />
    <glyph glyph-name="E" unicode="E" horiz-adv-x="1114" 
d="M1005 191v-191h-852v1365h852v-191h-626v-389h590v-183h-590v-411h626z" />
    <glyph glyph-name="F" unicode="F" horiz-adv-x="1051" 
d="M380 0h-227v1365h842v-193h-615v-418h562v-190h-562v-564z" />
    <glyph glyph-name="G" unicode="G" horiz-adv-x="1290" 
d="M1188 938h-222q-14 120 -94.5 190t-210.5 70q-159 0 -247 -108.5t-88 -303.5v-189q0 -204 86 -317t256 -113q137 0 221.5 76.5t84.5 194.5v107h-314v179h531v-276q0 -98 -37 -184.5t-103.5 -151t-166.5 -102t-219 -37.5q-278 0 -422 165t-144 458v191q0 280 149 442.5
t414 162.5q232 0 373.5 -127.5t152.5 -326.5z" />
    <glyph glyph-name="H" unicode="H" horiz-adv-x="1386" 
d="M1232 0h-227v605h-625v-605h-227v1365h227v-567h625v567h227v-1365z" />
    <glyph glyph-name="I" unicode="I" horiz-adv-x="534" 
d="M380 0h-227v1365h227v-1365z" />
    <glyph glyph-name="J" unicode="J" horiz-adv-x="1019" 
d="M25 355h219q3 -82 54 -131t143 -49q104 0 154 62.5t50 189.5v938h227v-940q0 -219 -112.5 -335.5t-317.5 -116.5q-193 0 -305 108.5t-112 273.5z" />
    <glyph glyph-name="K" unicode="K" horiz-adv-x="1225" 
d="M1197 1365l-496 -585l520 -780h-278l-410 627l-153 -170v-457h-227v1365h227v-633h10l552 633h255z" />
    <glyph glyph-name="L" unicode="L" horiz-adv-x="1005" 
d="M982 197v-197h-829v1365h227v-1168h602z" />
    <glyph glyph-name="M" unicode="M" horiz-adv-x="1610" 
d="M361 0h-204v1365h228l417 -960h7l417 960h227v-1365h-205v943h-9l-353 -798h-163l-354 798h-8v-943z" />
    <glyph glyph-name="N" unicode="N" horiz-adv-x="1372" 
d="M367 0h-214v1365h200l645 -980h7v980h213v-1365h-198l-647 983h-6v-983z" />
    <glyph glyph-name="O" unicode="O" horiz-adv-x="1334" 
d="M328 772v-189q0 -204 93.5 -310.5t245.5 -106.5t245 106t93 311v189q0 205 -93.5 315.5t-244.5 110.5t-245 -110.5t-94 -315.5zM99 583v187q0 290 153.5 456t415.5 166q263 0 415 -166t152 -456v-187q0 -287 -152.5 -448.5t-416.5 -161.5t-415.5 161t-151.5 449z" />
    <glyph glyph-name="P" unicode="P" horiz-adv-x="1175" 
d="M153 1365h524q206 0 327.5 -123t121.5 -318q0 -196 -122 -318t-328 -122h-296v-484h-227v1365zM380 1177v-507h182q169 0 251 55t82 199q0 120 -66.5 186.5t-185.5 66.5h-263z" />
    <glyph glyph-name="Q" unicode="Q" horiz-adv-x="1336" 
d="M101 590v184q0 288 153 453t413 165q261 0 414.5 -165t153.5 -453v-184q0 -311 -180 -478l179 -256h-235l-112 157q-98 -40 -220 -40q-260 0 -413 164.5t-153 452.5zM324 774v-186q0 -208 94 -318.5t245 -112.5q61 0 112 21l-169 236h226l93 -125q86 110 86 299v186
q0 206 -95.5 315.5t-248.5 109.5t-248 -109.5t-95 -315.5z" />
    <glyph glyph-name="R" unicode="R" horiz-adv-x="1239" 
d="M675 1365q115 0 204.5 -33.5t144.5 -91.5t83 -133t28 -162q0 -80 -23 -148t-61 -113t-79.5 -74.5t-86.5 -46.5l276 -563h-255l-245 525h-283v-525h-225v1365h522zM378 705h260q127 0 195.5 60t68.5 172q0 118 -70 180t-188 62h-266v-474z" />
    <glyph glyph-name="S" unicode="S" horiz-adv-x="1183" 
d="M60 379h222q8 -94 88.5 -156.5t218.5 -62.5q132 0 207 57.5t75 154.5q0 77 -52 122.5t-164 72.5l-224 56q-70 16 -127 44t-105 71.5t-75 108t-27 144.5q0 126 68.5 219.5t179 139t245.5 45.5q207 0 347 -106.5t144 -291.5h-218q-8 93 -78.5 152.5t-197.5 59.5
q-119 0 -190.5 -53.5t-71.5 -147.5q0 -139 189 -182l223 -55q82 -20 144 -48.5t113 -72.5t77.5 -109t26.5 -149q0 -197 -144.5 -308t-381.5 -111q-110 0 -198.5 25t-145 65t-95 94t-55 109t-18.5 113z" />
    <glyph glyph-name="T" unicode="T" horiz-adv-x="1061" 
d="M643 0h-225v1171h-401v194h1027v-194h-401v-1171z" />
    <glyph glyph-name="U" unicode="U" horiz-adv-x="1347" 
d="M363 1365v-876q0 -149 84.5 -234.5t226.5 -85.5q141 0 225.5 86t84.5 234v876h226v-907q0 -217 -144.5 -351t-391.5 -134q-248 0 -392 133.5t-144 351.5v907h225z" />
    <glyph glyph-name="V" unicode="V" horiz-adv-x="1226" 
d="M743 0h-259l-472 1365h261l341 -1096h8l338 1096h254z" />
    <glyph glyph-name="W" unicode="W" horiz-adv-x="1713" 
d="M584 0h-207l-367 1365h244l236 -1017h8l254 1017h209l254 -1017h9l234 1017h245l-368 -1365h-206l-269 1003h-7z" />
    <glyph glyph-name="X" unicode="X" horiz-adv-x="1157" 
d="M1159 1365l-443 -687l436 -678h-265l-313 509h-11l-315 -509h-250l433 688l-428 677h269l311 -514h11l308 514h257z" />
    <glyph glyph-name="Y" unicode="Y" horiz-adv-x="1123" 
d="M674 0h-225v550l-457 815h253l314 -591h8l315 591h249l-457 -811v-554z" />
    <glyph glyph-name="Z" unicode="Z" horiz-adv-x="1163" 
d="M84 0v152l692 1014v8h-671v191h947v-151l-688 -1015v-8h707v-191h-987z" />
    <glyph glyph-name="bracketleft" unicode="[" horiz-adv-x="702" 
d="M167 1437h497v-169h-285v-1409h285v-170h-497v1748z" />
    <glyph glyph-name="backslash" unicode="\" horiz-adv-x="702" 
d="M495 -311l-492 1748h203l493 -1748h-204z" />
    <glyph glyph-name="bracketright" unicode="]" horiz-adv-x="702" 
d="M37 1437h498v-1748h-498v170h287v1409h-287v169z" />
    <glyph glyph-name="asciicircum" unicode="^" horiz-adv-x="820" 
d="M778 795h-191l-173 393h-8l-176 -393h-188l270 570h199z" />
    <glyph glyph-name="underscore" unicode="_" horiz-adv-x="848" 
d="M876 -275h-903v172h903v-172z" />
    <glyph glyph-name="grave" unicode="`" horiz-adv-x="946" 
d="M658 1188h-161l-239 282h206z" />
    <glyph glyph-name="a" unicode="a" horiz-adv-x="1076" 
d="M725 130q-83 -146 -295 -146q-155 0 -250.5 87t-95.5 233q0 143 96.5 225t276.5 82h268v101q0 90 -51.5 139t-144.5 49q-89 0 -140.5 -42.5t-57.5 -114.5h-208q7 146 109 238t302 92q184 0 297 -91t113 -262v-720h-211v130h-8zM497 153q98 0 163 55t65 140v117h-230
q-94 0 -141 -40t-47 -109q0 -78 55.5 -120.5t134.5 -42.5z" />
    <glyph glyph-name="b" unicode="b" horiz-adv-x="1190" 
d="M680 -15q-218 0 -311 176h-9v-161h-216v1437h222v-530h9q38 73 121.5 118.5t184.5 45.5q187 0 298.5 -129t111.5 -364v-98q0 -231 -111.5 -363t-299.5 -132zM625 168q109 0 174.5 84t65.5 237v78q0 153 -65.5 237t-174.5 84q-123 0 -192 -83t-69 -238v-76
q0 -156 69 -239.5t192 -83.5z" />
    <glyph glyph-name="c" unicode="c" horiz-adv-x="1059" 
d="M98 486v95q0 221 122.5 357.5t333.5 136.5q185 0 300 -102.5t121 -248.5h-210q-14 70 -68.5 118.5t-130.5 48.5q-115 0 -180 -84t-65 -231v-90q0 -147 66.5 -233.5t179.5 -86.5q87 0 139.5 43.5t64.5 109.5h210q-21 -159 -132.5 -248t-294.5 -89q-212 0 -334 139
t-122 365z" />
    <glyph glyph-name="d" unicode="d" horiz-adv-x="1188" 
d="M512 1071q103 0 182.5 -45.5t118.5 -119.5h8v531h222v-1437h-216v161h-8q-41 -82 -121.5 -128.5t-185.5 -46.5q-197 0 -305 134t-108 363v92q0 224 110.5 360t302.5 136zM568 888q-109 0 -176 -82.5t-67 -238.5v-78q0 -156 67 -238.5t178 -82.5q118 0 185.5 83.5
t67.5 236.5v79q0 148 -68.5 234.5t-186.5 86.5z" />
    <glyph glyph-name="e" unicode="e" horiz-adv-x="1099" 
d="M561 -18q-213 0 -338 133.5t-125 366.5v107q0 222 123 354t331 132q210 0 331 -135t121 -361v-101h-687v-25q0 -134 67 -215t180 -81q84 0 140 39t77 108h211q-26 -139 -136 -230.5t-295 -91.5zM317 633h470v2q0 115 -65 191.5t-169 76.5q-105 0 -170.5 -76.5
t-65.5 -191.5v-2z" />
    <glyph glyph-name="f" unicode="f" horiz-adv-x="714" 
d="M216 0v879h-148v178h148v105q0 155 81.5 226t256.5 71q41 0 98 -6v-167q-30 4 -60 4q-83 0 -121 -32.5t-38 -113.5v-87h206v-178h-203v-879h-220z" />
    <glyph glyph-name="g" unicode="g" horiz-adv-x="1184" 
d="M572 -216q115 0 181.5 64t66.5 178v153h-8q-32 -72 -113 -119.5t-187 -47.5q-187 0 -299.5 129t-112.5 364v76q0 232 112.5 361t299.5 129q105 0 187 -47t117 -120h8v153h217v-1041q0 -102 -39.5 -181t-107 -126.5t-150 -71.5t-174.5 -24q-206 0 -318.5 87t-128.5 228
h220q14 -62 75.5 -103t153.5 -41zM577 890q-119 0 -185 -83t-66 -237v-63q0 -151 66 -235.5t185 -84.5q114 0 178.5 84.5t64.5 235.5v63q0 148 -66 234t-177 86z" />
    <glyph glyph-name="h" unicode="h" horiz-adv-x="1176" 
d="M144 0v1437h222v-528h8q33 65 110.5 114.5t194.5 49.5q166 0 268.5 -103t102.5 -291v-679h-221v634q0 122 -63 184t-167 62q-113 0 -173 -70t-60 -180v-630h-222z" />
    <glyph glyph-name="i" unicode="i" horiz-adv-x="524" 
d="M151 0v1057h222v-1057h-222zM130 1315q0 54 38.5 90t93.5 36t93 -36t38 -90t-38 -89.5t-93 -35.5t-93.5 35.5t-38.5 89.5z" />
    <glyph glyph-name="j" unicode="j" horiz-adv-x="524" 
d="M130 1315q0 54 38.5 90t93.5 36t93 -36t38 -90t-38 -89.5t-93 -35.5t-93.5 35.5t-38.5 89.5zM372 1057v-1081q0 -177 -84 -262t-236 -85q-67 0 -105 9v165q21 -4 62 -4q75 0 108.5 42.5t33.5 137.5v1078h221z" />
    <glyph glyph-name="k" unicode="k" horiz-adv-x="1030" 
d="M365 371v-371h-222v1437h222v-829h9l380 449h263l-400 -458l426 -599h-265l-328 467z" />
    <glyph glyph-name="l" unicode="l" horiz-adv-x="518" 
d="M148 0v1437h222v-1437h-222z" />
    <glyph glyph-name="m" unicode="m" horiz-adv-x="1760" 
d="M141 0v1057h218v-142h11q26 64 97.5 111t175.5 47q119 0 194.5 -46.5t105.5 -129.5h9q30 74 114.5 125t207.5 51q164 0 257 -95.5t93 -256.5v-721h-222v665q0 101 -53.5 159.5t-149.5 58.5q-98 0 -153.5 -62.5t-55.5 -168.5v-652h-216v652q0 114 -55 172.5t-150 58.5
q-91 0 -149 -59.5t-58 -169.5v-654h-221z" />
    <glyph glyph-name="n" unicode="n" horiz-adv-x="1172" 
d="M141 0v1057h218v-148h8q33 64 111 114t196 50q167 0 269 -103t102 -291v-679h-221v634q0 122 -63 184t-167 62q-112 0 -172 -70t-60 -180v-630h-221z" />
    <glyph glyph-name="o" unicode="o" horiz-adv-x="1137" 
d="M569 1075q222 0 345.5 -139.5t123.5 -362.5v-85q0 -229 -122.5 -367.5t-346.5 -138.5t-347.5 138.5t-123.5 367.5v85q0 222 124.5 362t346.5 140zM569 897q-120 0 -183.5 -89t-63.5 -238v-81q0 -148 63.5 -238t183.5 -90t183 90t63 238v81q0 150 -63 238.5t-183 88.5z
" />
    <glyph glyph-name="p" unicode="p" horiz-adv-x="1181" 
d="M670 -15q-100 0 -177 43.5t-120 118.5h-8v-498h-222v1408h216v-155h8q45 78 124.5 123.5t183.5 45.5q182 0 294 -131.5t112 -363.5v-94q0 -232 -112.5 -364.5t-298.5 -132.5zM619 168q108 0 172.5 85t64.5 241v74q0 153 -63.5 237.5t-177.5 84.5q-116 0 -184 -87
t-68 -234v-75q0 -150 69 -238t187 -88z" />
    <glyph glyph-name="q" unicode="q" horiz-adv-x="1188" 
d="M99 574q0 229 110 363t296 134q112 0 192 -44t124 -123h8v153h216v-1408h-222v506h-8q-34 -74 -117 -122t-195 -48q-185 0 -294.5 135t-109.5 371v83zM570 888q-114 0 -179.5 -85t-65.5 -239v-67q0 -154 65.5 -242.5t180.5 -88.5q118 0 186 89t68 242v67q0 150 -68.5 237
t-186.5 87z" />
    <glyph glyph-name="r" unicode="r" horiz-adv-x="734" 
d="M141 0v1057h222v-139h8q25 60 89 107t164 47q44 0 75 -6v-196q-30 8 -95 8q-126 0 -182 -68t-56 -184v-626h-225z" />
    <glyph glyph-name="s" unicode="s" horiz-adv-x="1014" 
d="M102 748q0 83 33.5 147t91 102.5t129.5 58t155 19.5q184 0 287.5 -88.5t103.5 -232.5h-200q-3 30 -14 56t-32.5 49.5t-60 37t-90.5 13.5q-86 0 -138 -37t-52 -103q0 -26 10 -46.5t29.5 -35t40.5 -25.5t53.5 -19t56.5 -13t60 -12q11 -2 17 -3q81 -15 138.5 -34
t108.5 -51.5t77 -85.5t26 -125q0 -159 -117.5 -248.5t-318.5 -89.5q-190 0 -302 83.5t-112 225.5h216q9 -66 64.5 -105t147.5 -39q101 0 153.5 41t52.5 104q0 37 -18 63.5t-55.5 42.5t-73.5 25t-95 21q-15 3 -22 4q-63 13 -111 28t-95 39.5t-77 55.5t-48.5 76t-18.5 101z
" />
    <glyph glyph-name="t" unicode="t" horiz-adv-x="728" 
d="M216 1057v257h218v-257h206v-178h-206v-564q0 -85 35.5 -116t126.5 -31q37 0 50 2v-170q-42 -7 -105 -7q-128 0 -200 33t-100 97t-28 174v582h-146v178h149z" />
    <glyph glyph-name="u" unicode="u" horiz-adv-x="1168" 
d="M1027 1057v-1057h-218v147h-10q-29 -69 -107 -116t-198 -47q-168 0 -267.5 95.5t-99.5 274.5v703h222v-642q0 -129 62.5 -184t162.5 -55q103 0 167 63.5t64 178.5v639h222z" />
    <glyph glyph-name="v" unicode="v" horiz-adv-x="982" 
d="M360 0l-358 1057h236l243 -820h8l264 820h227l-372 -1057h-248z" />
    <glyph glyph-name="w" unicode="w" horiz-adv-x="1525" 
d="M1492 1057l-274 -1057h-232l-220 780h-7l-220 -780h-233l-273 1057h224l174 -806h10l217 806h210l218 -806h9l174 806h223z" />
    <glyph glyph-name="x" unicode="x" horiz-adv-x="1031" 
d="M751 0l-240 378h-5l-238 -378h-242l347 529l-345 528h260l232 -379h4l232 379h247l-349 -528l351 -529h-254z" />
    <glyph glyph-name="y" unicode="y" horiz-adv-x="1004" 
d="M1000 1057q-7 -24 -24 -74.5t-39.5 -116.5t-49.5 -144t-55.5 -159.5t-56 -160.5t-52 -149t-43 -123t-29.5 -84l-11 -32l-27 -73q-64 -173 -158.5 -242.5t-251.5 -69.5q-65 0 -117 10v168q28 -5 81 -5q90 0 136.5 33t63.5 111l13 46l-377 1065h246l253 -840h7l256 840h235
z" />
    <glyph glyph-name="z" unicode="z" horiz-adv-x="985" 
d="M94 0v143l534 725v8h-527v181h798v-151l-525 -717v-8h535v-181h-815z" />
    <glyph glyph-name="braceleft" unicode="{" horiz-adv-x="702" 
d="M229 593v-25q182 -17 182 -229v-279q1 -111 47.5 -157.5t164.5 -46.5h41v-167h-76q-193 0 -289 81.5t-96 266.5l-1 236q0 109 -34 154.5t-131 45.5v215q97 0 131 45.5t34 153.5v211q0 182 95.5 260.5t290.5 78.5h76v-166h-41q-118 0 -165 -46.5t-47 -157.5v-253
q0 -105 -45.5 -158.5t-136.5 -62.5z" />
    <glyph glyph-name="bar" unicode="|" horiz-adv-x="702" 
d="M450 -311h-198v1748h198v-1748z" />
    <glyph glyph-name="braceright" unicode="}" horiz-adv-x="702" 
d="M473 568v25q-91 9 -137 62.5t-46 158.5v253q0 111 -46.5 157.5t-165.5 46.5h-41v166h77q194 0 289.5 -78t95.5 -261v-211q0 -108 34.5 -153.5t130.5 -45.5v-215q-96 0 -130.5 -46t-34.5 -154v-236q-1 -185 -96.5 -266.5t-288.5 -81.5h-77v167h41q119 0 165.5 46.5
t46.5 157.5v279q1 212 183 229z" />
    <glyph glyph-name="asciitilde" unicode="~" horiz-adv-x="1114" 
d="M763 488q-58 0 -109 21t-86.5 51t-68 60t-67 51t-69.5 21q-56 0 -86.5 -48t-32.5 -119h-179q-2 71 15 134t51 112.5t90.5 78.5t127.5 29q60 0 111 -21t86 -51t66 -60t65.5 -51t69.5 -21q57 0 86.5 47.5t33.5 119.5h179q2 -152 -72.5 -253t-210.5 -101z" />
    <glyph glyph-name="nonbreakingspace" unicode="&#xa0;" horiz-adv-x="406" 
 />
    <glyph glyph-name="exclamdown" unicode="&#xa1;" horiz-adv-x="538" 
d="M393 -277h-247l26 954h194zM404 979q0 -56 -39.5 -92.5t-95.5 -36.5t-95.5 36.5t-39.5 92.5q0 55 39.5 91.5t95.5 36.5t95.5 -36.5t39.5 -91.5z" />
    <glyph glyph-name="cent" unicode="&#xa2;" horiz-adv-x="1171" 
d="M1026 511q-4 -138 -100.5 -228.5t-244.5 -105.5v-205h-172v205q-167 19 -270.5 140.5t-103.5 320.5v103q0 193 104.5 314.5t269.5 140.5v201h172v-202q146 -16 240.5 -112t98.5 -231h-204q-11 78 -72 126.5t-149 48.5q-116 0 -183 -77.5t-67 -211.5v-101q0 -131 68 -207
t183 -76q96 0 154 41.5t72 115.5h204z" />
    <glyph glyph-name="sterling" unicode="&#xa3;" horiz-adv-x="1171" 
d="M458 178h604v-178h-930v169q113 21 183 106t70 199q0 60 -19 141h-241v147h198q-47 150 -47 246q0 180 130.5 282t355.5 102q130 0 242 -47v-181q-107 47 -228 47q-129 0 -204.5 -60t-75.5 -164q0 -90 43 -225h385v-147h-342q17 -71 17 -131q0 -97 -37.5 -173
t-103.5 -118v-15z" />
    <glyph glyph-name="currency" unicode="&#xa4;" horiz-adv-x="1171" 
d="M964 149l-169 169q-96 -59 -207 -59q-114 0 -211 62l-171 -172l-118 118l170 171q-65 98 -65 215q0 115 61 209l-166 166l118 119l165 -166q97 66 217 66q117 0 213 -63l163 163l118 -119l-163 -162q64 -98 64 -213q0 -119 -68 -219l167 -167zM355 653q0 -96 68 -164
t165 -68q96 0 164.5 68t68.5 164t-69 164.5t-164 68.5q-97 0 -165 -68.5t-68 -164.5z" />
    <glyph glyph-name="yen" unicode="&#xa5;" horiz-adv-x="1171" 
d="M987 244h-288v-244h-225v244h-287v147h287v133h-287v147h222l-377 694h253l297 -591h11l297 591h249l-376 -694h224v-147h-288v-133h288v-147z" />
    <glyph glyph-name="brokenbar" unicode="&#xa6;" horiz-adv-x="702" 
d="M450 762h-198v675h198v-675zM450 -311h-198v675h198v-675z" />
    <glyph glyph-name="section" unicode="&#xa7;" horiz-adv-x="930" 
d="M658 72q0 31 -13.5 55.5t-31.5 40t-53.5 30t-62 22t-74.5 20.5q-18 5 -27 7q-73 19 -125 40.5t-99 56t-71.5 86t-24.5 119.5q0 161 168 248v8q-161 91 -161 256q0 157 112.5 244.5t276.5 87.5q171 0 274.5 -89t103.5 -229h-191q-3 57 -54.5 104t-137.5 47
q-80 0 -129 -42.5t-49 -111.5q0 -24 8.5 -44.5t18.5 -35t34 -28.5t38 -21.5t50 -18t50 -14.5t56 -14q58 -14 98 -26.5t87 -37t75.5 -54t48 -76.5t19.5 -107q0 -86 -44 -151t-108 -108v-7q67 -42 106 -96t39 -141q0 -155 -112 -249.5t-293 -94.5q-171 0 -284 86t-114 231h197
q10 -69 61.5 -108.5t140.5 -39.5q99 0 148 44.5t49 110.5zM561 386q47 20 78 69t31 104q0 71 -51.5 111t-149.5 62q-60 15 -72 15q-45 -15 -82.5 -63t-37.5 -107q0 -72 50.5 -109.5t147.5 -61.5q2 0 43 -9.5t43 -10.5z" />
    <glyph glyph-name="dieresis" unicode="&#xa8;" horiz-adv-x="945" 
d="M289 1197q-44 0 -73.5 30t-29.5 74q0 46 29.5 76.5t73.5 30.5q45 0 74.5 -30.5t29.5 -76.5q0 -44 -29.5 -74t-74.5 -30zM653 1197q-43 0 -72.5 30t-29.5 74q0 46 29 76.5t73 30.5q46 0 76 -30.5t30 -76.5q0 -44 -30 -74t-76 -30z" />
    <glyph glyph-name="copyright" unicode="&#xa9;" horiz-adv-x="1639" 
d="M494 632v99q0 156 92 244t244 88q138 0 222 -77t86 -180h-148q-6 47 -44 85.5t-115 38.5q-186 0 -186 -205v-94q0 -97 50 -146t136 -49q144 0 164 107h147q-3 -101 -85 -173.5t-227 -72.5q-152 0 -244 87.5t-92 247.5zM231 641q0 -254 164 -417t428 -163q265 0 430 163
t165 417v106q0 115 -44 218t-121 178t-188.5 119t-241.5 44q-129 0 -240.5 -44t-188 -119t-120 -177.5t-43.5 -218.5v-106zM824 -64q-209 0 -374 92t-255.5 253.5t-90.5 362.5v103q0 142 54 268t148 218t229 145.5t289 53.5q155 0 290 -54t228.5 -146.5t147.5 -218.5
t54 -266v-103q0 -151 -53 -282t-146.5 -224.5t-228.5 -147.5t-292 -54z" />
    <glyph glyph-name="ordfeminine" unicode="&#xaa;" horiz-adv-x="687" 
d="M431 786q-47 -88 -173 -88q-98 0 -157.5 54t-59.5 146t63.5 143.5t182.5 51.5h143v56q0 42 -24 65t-68 23q-42 0 -67 -21t-27 -56h-179q4 97 73.5 157t203.5 60q129 0 203.5 -58t74.5 -170v-441h-180v78h-9zM322 832q46 0 77 26t31 67v63h-101q-48 0 -73.5 -20.5
t-25.5 -55.5q0 -38 27 -59t65 -21z" />
    <glyph glyph-name="guillemotleft" unicode="&#xab;" horiz-adv-x="1273" 
d="M598 565l344 389h210l-339 -388v-6l339 -390h-219l-335 387v8zM109 565l344 389h209l-339 -388v-6l339 -390h-218l-335 387v8z" />
    <glyph glyph-name="logicalnot" unicode="&#xac;" horiz-adv-x="1171" 
d="M1077 93h-193v361h-792v179h985v-540z" />
    <glyph glyph-name="registered" unicode="&#xae;" horiz-adv-x="987" 
d="M494 584q-178 0 -294.5 112t-116.5 282v57q0 161 118 271.5t293 110.5q174 0 292 -111.5t118 -270.5v-57q0 -170 -116 -282t-294 -112zM494 674q138 0 228 87t90 218v55q0 123 -91 208.5t-227 85.5t-227 -85.5t-91 -208.5v-55q0 -131 90 -218t228 -87zM431 1140v-118h62
q80 0 80 60q0 58 -70 58h-72zM430 810h-90v400h194q58 0 95 -35t37 -88q0 -43 -22.5 -75.5t-56.5 -42.5l93 -159h-106l-80 146h-64v-146z" />
    <glyph glyph-name="macron" unicode="&#xaf;" horiz-adv-x="944" 
d="M754 1234h-566v135h566v-135z" />
    <glyph glyph-name="degree" unicode="&#xb0;" horiz-adv-x="548" 
d="M275 915q-98 0 -166.5 68.5t-68.5 166.5t68.5 166t166.5 68t166 -68t68 -166t-68 -166.5t-166 -68.5zM276 1038q46 0 78 33t32 79q0 47 -31.5 79t-78.5 32q-46 0 -79 -32t-33 -79q0 -45 33 -78.5t79 -33.5z" />
    <glyph glyph-name="plusminus" unicode="&#xb1;" horiz-adv-x="1171" 
d="M676 650v-269h-187v269h-384v172h384v255h187v-255h388v-172h-388zM1067 94h-960v176h960v-176z" />
    <glyph glyph-name="two.sups" unicode="&#xb2;" horiz-adv-x="596" 
d="M213 1491h-176v9q0 90 69 154t190 64q114 0 183 -54.5t69 -140.5q0 -32 -8 -58.5t-29 -54.5t-33 -41t-46 -47l-121 -125v-7h247v-143h-509v116l255 243q60 58 60 103q0 29 -21.5 49t-53.5 20q-34 0 -55 -22t-21 -54v-11z" />
    <glyph glyph-name="three.sups" unicode="&#xb3;" horiz-adv-x="607" 
d="M227 1321v123h61q37 0 59.5 19.5t22.5 50.5q0 29 -22 48t-57 19q-36 0 -58 -22.5t-23 -53.5h-173q4 99 73.5 156t194.5 57q109 0 180.5 -49.5t71.5 -126.5q1 -62 -35.5 -100.5t-84.5 -45.5v-9q56 -6 96.5 -46t40.5 -108q1 -90 -79 -145t-200 -55q-126 0 -195.5 61
t-68.5 154h171q1 -34 26 -55.5t66 -21.5q40 0 64.5 21.5t23.5 54.5q0 33 -23.5 53.5t-67.5 20.5h-64z" />
    <glyph glyph-name="acute" unicode="&#xb4;" horiz-adv-x="946" 
d="M455 1188h-161l195 282h205z" />
    <glyph glyph-name="mugreek" unicode="&#x3bc;" horiz-adv-x="1261" 
d="M143 -351v1408h222v-644q0 -111 54.5 -174t154.5 -63q108 0 173.5 68.5t65.5 167.5v645h223v-768q0 -71 18.5 -96.5t67.5 -25.5q28 0 45 5v-170q-40 -11 -105 -11q-196 0 -219 162l-3 20h-8q-34 -91 -101.5 -140t-161.5 -49q-64 0 -117.5 27.5t-76.5 76.5h-10v-439h-222z
" />
    <glyph glyph-name="mugreek" unicode="&#xb5;" horiz-adv-x="1261" 
d="M143 -351v1408h222v-644q0 -111 54.5 -174t154.5 -63q108 0 173.5 68.5t65.5 167.5v645h223v-768q0 -71 18.5 -96.5t67.5 -25.5q28 0 45 5v-170q-40 -11 -105 -11q-196 0 -219 162l-3 20h-8q-34 -91 -101.5 -140t-161.5 -49q-64 0 -117.5 27.5t-76.5 76.5h-10v-439h-222z
" />
    <glyph glyph-name="paragraph" unicode="&#xb6;" horiz-adv-x="1324" 
d="M782 -210h-214v697h-20q-57 0 -117 15t-120.5 49t-108 83t-77 124.5t-29.5 166.5q0 99 30 177.5t76.5 126.5t108.5 79.5t120.5 44t117.5 12.5h233v-1575zM943 -210v1575h213v-1575h-213z" />
    <glyph glyph-name="periodcentered" unicode="&#xb7;" horiz-adv-x="608" 
d="M164 535q0 58 41 99t99 41t99 -41t41 -99q0 -57 -41 -98t-99 -41t-99 41t-41 98z" />
    <glyph glyph-name="cedilla" unicode="&#xb8;" horiz-adv-x="946" 
d="M353 -235v91l57 151h138l-51 -135q94 0 148.5 -42.5t54.5 -121.5q0 -94 -64 -141.5t-170 -50.5q-86 -4 -148 15v114q47 -14 114 -14q47 0 80 16t33 54q0 22 -10 35.5t-31.5 19.5t-42 7.5t-55.5 1.5h-53z" />
    <glyph glyph-name="one.sups" unicode="&#xb9;" horiz-adv-x="457" 
d="M383 1047h-190v487h-10q-7 -4 -72 -47t-74 -50v165q3 2 77 50t82 52h187v-657z" />
    <glyph glyph-name="ordmasculine" unicode="&#xba;" horiz-adv-x="714" 
d="M358 1378q145 0 227 -87.5t82 -228.5v-43q0 -151 -81 -236.5t-228 -85.5q-148 0 -230 85.5t-82 235.5v43q0 141 83 229t229 88zM357 1234q-59 0 -87.5 -47.5t-28.5 -123.5v-50q0 -74 28 -123t88 -49t88 49t28 123v50q0 76 -28.5 123.5t-87.5 47.5z" />
    <glyph glyph-name="guillemotright" unicode="&#xbb;" horiz-adv-x="1273" 
d="M1159 565v-8l-335 -387h-218l339 390v6l-339 388h209zM670 565v-8l-335 -387h-219l339 390v6l-339 388h210z" />
    <glyph glyph-name="onequarter" unicode="&#xbc;" horiz-adv-x="1445" 
d="M383 708h-190v487h-10q-7 -4 -72 -47t-74 -50v165q3 2 77 50t82 52h187v-657zM292 0h-189l540 700l506 665h189l-535 -693zM1088 657h261v-415h74v-142h-74v-100h-176v100h-320v144q76 153 235 413zM1015 242h158v279h-7q-106 -181 -151 -277v-2z" />
    <glyph glyph-name="onehalf" unicode="&#xbd;" horiz-adv-x="1483" 
d="M383 708h-190v487h-10q-7 -4 -72 -47t-74 -50v165q3 2 77 50t82 52h187v-657zM278 0h-189l540 700l506 665h189l-535 -693zM1100 444h-176v9q0 90 69 154t190 64q114 0 183 -54.5t69 -140.5q0 -32 -8 -58.5t-29 -54.5t-33 -41t-46 -47l-121 -125v-7h247v-143h-509v116
l255 243q60 58 60 103q0 29 -21.5 49t-53.5 20q-34 0 -55 -22t-21 -54v-11z" />
    <glyph glyph-name="threequarters" unicode="&#xbe;" horiz-adv-x="1468" 
d="M227 982v123h61q37 0 59.5 19.5t22.5 50.5q0 29 -22 48t-57 19q-36 0 -58 -22.5t-23 -53.5h-173q4 99 73.5 156t194.5 57q109 0 180.5 -49.5t71.5 -126.5q1 -62 -35.5 -100.5t-84.5 -45.5v-9q56 -6 96.5 -46t40.5 -108q1 -90 -79 -145t-200 -55q-126 0 -195.5 61
t-68.5 154h171q1 -34 26 -55.5t66 -21.5q40 0 64.5 21.5t23.5 54.5q0 33 -23.5 53.5t-67.5 20.5h-64zM315 0h-189l540 700l506 665h189l-535 -693zM1111 657h261v-415h74v-142h-74v-100h-176v100h-320v144q76 153 235 413zM1038 242h158v279h-7q-106 -181 -151 -277v-2z" />
    <glyph glyph-name="questiondown" unicode="&#xbf;" horiz-adv-x="962" 
d="M909 90q1 -86 -23.5 -155.5t-66.5 -114.5t-99.5 -75t-118 -42.5t-125.5 -12.5q-114 0 -207.5 37.5t-154 119.5t-60.5 197q0 60 15.5 109.5t48.5 90t60 65t72 58.5q53 40 75.5 59t46 47.5t30.5 57t7 70.5v56h207l1 -73q4 -101 -44.5 -173t-140.5 -140q-43 -33 -64 -50.5
t-45 -44.5t-33.5 -55.5t-9.5 -64.5q0 -92 59.5 -138.5t147.5 -46.5q103 0 158.5 61t56.5 158h207zM643 979q0 -56 -39 -92.5t-95 -36.5q-57 0 -96 36.5t-39 92.5q0 55 39 91.5t96 36.5q56 0 95 -36.5t39 -91.5z" />
    <glyph glyph-name="Agrave" unicode="&#xc0;" horiz-adv-x="1233" 
d="M251 0h-231l470 1365h254l469 -1365h-240l-121 378h-479zM618 1129h-9l-185 -577h377zM707 1509h-161l-239 282h205z" />
    <glyph glyph-name="Aacute" unicode="&#xc1;" horiz-adv-x="1233" 
d="M251 0h-231l470 1365h254l469 -1365h-240l-121 378h-479zM618 1129h-9l-185 -577h377zM686 1509h-161l195 282h205z" />
    <glyph glyph-name="Acircumflex" unicode="&#xc2;" horiz-adv-x="1233" 
d="M251 0h-231l470 1365h254l469 -1365h-240l-121 378h-479zM618 1129h-9l-185 -577h377zM326 1509l221 287h140l221 -287h-172l-116 165h-6l-116 -165h-172z" />
    <glyph glyph-name="Atilde" unicode="&#xc3;" horiz-adv-x="1233" 
d="M251 0h-231l470 1365h254l469 -1365h-240l-121 378h-479zM618 1129h-9l-185 -577h377zM725 1479q-42 0 -77 17.5t-55 38.5t-43.5 38.5t-43.5 17.5q-53 0 -58 -93h-121q0 85 45.5 145.5t129.5 60.5q42 0 78.5 -17.5t57 -38.5t44 -38.5t42.5 -17.5q29 0 44 29t18 67h122
q0 -83 -49 -146t-134 -63z" />
    <glyph glyph-name="Adieresis" unicode="&#xc4;" horiz-adv-x="1233" 
d="M251 0h-231l470 1365h254l469 -1365h-240l-121 378h-479zM618 1129h-9l-185 -577h377zM452 1485q-41 0 -68.5 28.5t-27.5 70.5q0 43 27.5 72t68.5 29q42 0 70 -29t28 -72q0 -42 -28 -70.5t-70 -28.5zM780 1485q-41 0 -68.5 28.5t-27.5 70.5q0 43 27.5 72t68.5 29
q42 0 70 -29t28 -72q0 -42 -28 -70.5t-70 -28.5z" />
    <glyph glyph-name="Aring" unicode="&#xc5;" horiz-adv-x="1233" 
d="M251 0h-231l470 1365h254l469 -1365h-240l-121 378h-479zM618 1129h-9l-185 -577h377zM617 1479q-86 0 -144.5 56.5t-58.5 141.5t58.5 141t144.5 56t144.5 -56t58.5 -141t-58.5 -141.5t-144.5 -56.5zM519 1676q0 -41 28 -69.5t70 -28.5q41 0 69 28.5t28 69.5
q0 42 -28 70.5t-69 28.5q-42 0 -70 -28.5t-28 -70.5z" />
    <glyph glyph-name="AE" unicode="&#xc6;" horiz-adv-x="1873" 
d="M849 1174l-302 -606h372v606h-70zM919 388h-457l-199 -388h-252l703 1365h1050v-191h-620v-389h584v-183h-584v-411h620v-191h-845v388z" />
    <glyph glyph-name="Ccedilla" unicode="&#xc7;" horiz-adv-x="1265" 
d="M628 -484q-86 0 -134 15v114q56 -14 114 -14q52 0 83 18t31 50q0 36 -30 51t-109 15h-54v91l46 121q-227 25 -351.5 187.5t-124.5 431.5v167q0 295 146 462t409 167q227 0 374 -132t147 -339v-15h-221q-2 130 -84 210t-215 80q-157 0 -242 -112.5t-85 -320.5v-168
q0 -205 85 -316t242 -111q133 0 215 75.5t84 196.5h221v-15q0 -184 -129.5 -308.5t-332.5 -140.5l-39 -104q96 0 149.5 -43.5t53.5 -120.5q0 -93 -65.5 -142.5t-183.5 -49.5z" />
    <glyph glyph-name="Egrave" unicode="&#xc8;" horiz-adv-x="1114" 
d="M1005 191v-191h-852v1365h852v-191h-626v-389h590v-183h-590v-411h626zM664 1509h-161l-239 282h205z" />
    <glyph glyph-name="Eacute" unicode="&#xc9;" horiz-adv-x="1114" 
d="M1005 191v-191h-852v1365h852v-191h-626v-389h590v-183h-590v-411h626zM643 1509h-161l195 282h205z" />
    <glyph glyph-name="Ecircumflex" unicode="&#xca;" horiz-adv-x="1114" 
d="M1005 191v-191h-852v1365h852v-191h-626v-389h590v-183h-590v-411h626zM282 1509l221 287h140l221 -287h-172l-116 165h-6l-116 -165h-172z" />
    <glyph glyph-name="Edieresis" unicode="&#xcb;" horiz-adv-x="1114" 
d="M1005 191v-191h-852v1365h852v-191h-626v-389h590v-183h-590v-411h626zM408 1485q-41 0 -68.5 28.5t-27.5 70.5q0 43 27.5 72t68.5 29q42 0 70 -29t28 -72q0 -42 -28 -70.5t-70 -28.5zM736 1485q-41 0 -68.5 28.5t-27.5 70.5q0 43 27.5 72t68.5 29q42 0 70 -29t28 -72
q0 -42 -28 -70.5t-70 -28.5z" />
    <glyph glyph-name="Igrave" unicode="&#xcc;" horiz-adv-x="534" 
d="M380 0h-227v1365h227v-1365zM358 1509h-161l-239 282h205z" />
    <glyph glyph-name="Iacute" unicode="&#xcd;" horiz-adv-x="534" 
d="M380 0h-227v1365h227v-1365zM337 1509h-161l195 282h205z" />
    <glyph glyph-name="Icircumflex" unicode="&#xce;" horiz-adv-x="534" 
d="M380 0h-227v1365h227v-1365zM-24 1509l221 287h140l221 -287h-172l-116 165h-6l-116 -165h-172z" />
    <glyph glyph-name="Idieresis" unicode="&#xcf;" horiz-adv-x="534" 
d="M380 0h-227v1365h227v-1365zM102 1485q-41 0 -68.5 28.5t-27.5 70.5q0 43 27.5 72t68.5 29q42 0 70 -29t28 -72q0 -42 -28 -70.5t-70 -28.5zM430 1485q-41 0 -68.5 28.5t-27.5 70.5q0 43 27.5 72t68.5 29q42 0 70 -29t28 -72q0 -42 -28 -70.5t-70 -28.5z" />
    <glyph glyph-name="Eth" unicode="&#xd0;" horiz-adv-x="1395" 
d="M651 0h-470v597h-107v197h107v571h470q302 0 454 -173.5t152 -506.5t-152.5 -509t-453.5 -176zM407 194h219q196 0 296 117.5t100 373.5q0 492 -396 492h-219v-383h330v-197h-330v-403z" />
    <glyph glyph-name="Ntilde" unicode="&#xd1;" horiz-adv-x="1372" 
d="M367 0h-214v1365h200l645 -980h7v980h213v-1365h-198l-647 983h-6v-983zM794 1479q-42 0 -77 17.5t-55 38.5t-43.5 38.5t-43.5 17.5q-53 0 -58 -93h-121q0 85 45.5 145.5t129.5 60.5q42 0 78.5 -17.5t57 -38.5t44 -38.5t42.5 -17.5q29 0 44 29t18 67h122q0 -83 -49 -146
t-134 -63z" />
    <glyph glyph-name="Ograve" unicode="&#xd2;" horiz-adv-x="1334" 
d="M328 772v-189q0 -204 93.5 -310.5t245.5 -106.5t245 106t93 311v189q0 205 -93.5 315.5t-244.5 110.5t-245 -110.5t-94 -315.5zM99 583v187q0 290 153.5 456t415.5 166q263 0 415 -166t152 -456v-187q0 -287 -152.5 -448.5t-416.5 -161.5t-415.5 161t-151.5 449z
M756 1509h-161l-239 282h205z" />
    <glyph glyph-name="Oacute" unicode="&#xd3;" horiz-adv-x="1334" 
d="M328 772v-189q0 -204 93.5 -310.5t245.5 -106.5t245 106t93 311v189q0 205 -93.5 315.5t-244.5 110.5t-245 -110.5t-94 -315.5zM99 583v187q0 290 153.5 456t415.5 166q263 0 415 -166t152 -456v-187q0 -287 -152.5 -448.5t-416.5 -161.5t-415.5 161t-151.5 449z
M735 1509h-161l195 282h205z" />
    <glyph glyph-name="Ocircumflex" unicode="&#xd4;" horiz-adv-x="1334" 
d="M328 772v-189q0 -204 93.5 -310.5t245.5 -106.5t245 106t93 311v189q0 205 -93.5 315.5t-244.5 110.5t-245 -110.5t-94 -315.5zM99 583v187q0 290 153.5 456t415.5 166q263 0 415 -166t152 -456v-187q0 -287 -152.5 -448.5t-416.5 -161.5t-415.5 161t-151.5 449z
M375 1509l221 287h140l221 -287h-172l-116 165h-6l-116 -165h-172z" />
    <glyph glyph-name="Otilde" unicode="&#xd5;" horiz-adv-x="1334" 
d="M328 772v-189q0 -204 93.5 -310.5t245.5 -106.5t245 106t93 311v189q0 205 -93.5 315.5t-244.5 110.5t-245 -110.5t-94 -315.5zM99 583v187q0 290 153.5 456t415.5 166q263 0 415 -166t152 -456v-187q0 -287 -152.5 -448.5t-416.5 -161.5t-415.5 161t-151.5 449z
M774 1479q-42 0 -77 17.5t-55 38.5t-43.5 38.5t-43.5 17.5q-53 0 -58 -93h-121q0 85 45.5 145.5t129.5 60.5q42 0 78.5 -17.5t57 -38.5t44 -38.5t42.5 -17.5q29 0 44 29t18 67h122q0 -83 -49 -146t-134 -63z" />
    <glyph glyph-name="Odieresis" unicode="&#xd6;" horiz-adv-x="1334" 
d="M328 772v-189q0 -204 93.5 -310.5t245.5 -106.5t245 106t93 311v189q0 205 -93.5 315.5t-244.5 110.5t-245 -110.5t-94 -315.5zM99 583v187q0 290 153.5 456t415.5 166q263 0 415 -166t152 -456v-187q0 -287 -152.5 -448.5t-416.5 -161.5t-415.5 161t-151.5 449z
M501 1485q-41 0 -68.5 28.5t-27.5 70.5q0 43 27.5 72t68.5 29q42 0 70 -29t28 -72q0 -42 -28 -70.5t-70 -28.5zM829 1485q-41 0 -68.5 28.5t-27.5 70.5q0 43 27.5 72t68.5 29q42 0 70 -29t28 -72q0 -42 -28 -70.5t-70 -28.5z" />
    <glyph glyph-name="multiply" unicode="&#xd7;" horiz-adv-x="1171" 
d="M894 69l-308 308l-309 -308l-133 134l308 308l-308 308l133 134l309 -309l308 309l133 -134l-308 -308l308 -308z" />
    <glyph glyph-name="Oslash" unicode="&#xd8;" horiz-adv-x="1332" 
d="M664 -27q-234 0 -379 131l-99 -123l-111 90l115 143q-91 150 -91 369v187q0 290 152.5 456t415.5 166q228 0 372 -129l94 116l114 -83l-113 -140q99 -154 99 -386v-187q0 -288 -152.5 -449t-416.5 -161zM324 581q0 -97 25 -172l556 689q-92 103 -240 103
q-153 0 -247 -111.5t-94 -317.5v-191zM665 162q154 0 248 106.5t94 312.5v191q0 109 -31 188l-558 -692q91 -106 247 -106z" />
    <glyph glyph-name="Ugrave" unicode="&#xd9;" horiz-adv-x="1347" 
d="M363 1365v-876q0 -149 84.5 -234.5t226.5 -85.5q141 0 225.5 86t84.5 234v876h226v-907q0 -217 -144.5 -351t-391.5 -134q-248 0 -392 133.5t-144 351.5v907h225zM764 1509h-161l-239 282h205z" />
    <glyph glyph-name="Uacute" unicode="&#xda;" horiz-adv-x="1347" 
d="M363 1365v-876q0 -149 84.5 -234.5t226.5 -85.5q141 0 225.5 86t84.5 234v876h226v-907q0 -217 -144.5 -351t-391.5 -134q-248 0 -392 133.5t-144 351.5v907h225zM743 1509h-161l195 282h205z" />
    <glyph glyph-name="Ucircumflex" unicode="&#xdb;" horiz-adv-x="1347" 
d="M363 1365v-876q0 -149 84.5 -234.5t226.5 -85.5q141 0 225.5 86t84.5 234v876h226v-907q0 -217 -144.5 -351t-391.5 -134q-248 0 -392 133.5t-144 351.5v907h225zM382 1509l221 287h140l221 -287h-172l-116 165h-6l-116 -165h-172z" />
    <glyph glyph-name="Udieresis" unicode="&#xdc;" horiz-adv-x="1347" 
d="M363 1365v-876q0 -149 84.5 -234.5t226.5 -85.5q141 0 225.5 86t84.5 234v876h226v-907q0 -217 -144.5 -351t-391.5 -134q-248 0 -392 133.5t-144 351.5v907h225zM508 1485q-41 0 -68.5 28.5t-27.5 70.5q0 43 27.5 72t68.5 29q42 0 70 -29t28 -72q0 -42 -28 -70.5
t-70 -28.5zM836 1485q-41 0 -68.5 28.5t-27.5 70.5q0 43 27.5 72t68.5 29q42 0 70 -29t28 -72q0 -42 -28 -70.5t-70 -28.5z" />
    <glyph glyph-name="Yacute" unicode="&#xdd;" horiz-adv-x="1122" 
d="M674 0h-225v550l-457 815h253l314 -591h8l315 591h249l-457 -811v-554zM631 1509h-161l195 282h205z" />
    <glyph glyph-name="Thorn" unicode="&#xde;" horiz-adv-x="1172" 
d="M153 1365h226v-245h284q209 0 329 -110t120 -301q0 -193 -120.5 -301.5t-330.5 -108.5h-281v-299h-227v1365zM380 932v-448h216q67 0 113 8.5t87.5 31t62.5 69t21 116.5q0 223 -252 223h-248z" />
    <glyph glyph-name="germandbls" unicode="&#xdf;" horiz-adv-x="1270" 
d="M373 0h-222v1046q0 187 125.5 291.5t329.5 104.5t328 -99t124 -258q0 -73 -24.5 -134t-63.5 -99.5t-80.5 -61t-80.5 -27.5v-14q70 -1 135.5 -24t120.5 -66.5t88 -114t33 -157.5q0 -99 -40 -177.5t-108.5 -127t-154.5 -74t-182 -25.5q-97 0 -162 19v178q50 -19 139 -19
q55 0 103 12.5t89 38.5t65 72.5t24 107.5q0 112 -86.5 176t-229.5 64h-78v198h47q86 0 156.5 63.5t70.5 161.5q0 91 -61 148t-168 57q-237 0 -237 -252v-1008z" />
    <glyph glyph-name="agrave" unicode="&#xe0;" horiz-adv-x="1076" 
d="M725 130q-83 -146 -295 -146q-155 0 -250.5 87t-95.5 233q0 143 96.5 225t276.5 82h268v101q0 90 -51.5 139t-144.5 49q-89 0 -140.5 -42.5t-57.5 -114.5h-208q7 146 109 238t302 92q184 0 297 -91t113 -262v-720h-211v130h-8zM497 153q98 0 163 55t65 140v117h-230
q-94 0 -141 -40t-47 -109q0 -78 55.5 -120.5t134.5 -42.5zM632 1188h-161l-239 282h206z" />
    <glyph glyph-name="aacute" unicode="&#xe1;" horiz-adv-x="1076" 
d="M725 130q-83 -146 -295 -146q-155 0 -250.5 87t-95.5 233q0 143 96.5 225t276.5 82h268v101q0 90 -51.5 139t-144.5 49q-89 0 -140.5 -42.5t-57.5 -114.5h-208q7 146 109 238t302 92q184 0 297 -91t113 -262v-720h-211v130h-8zM497 153q98 0 163 55t65 140v117h-230
q-94 0 -141 -40t-47 -109q0 -78 55.5 -120.5t134.5 -42.5zM607 1188h-161l195 282h205z" />
    <glyph glyph-name="acircumflex" unicode="&#xe2;" horiz-adv-x="1076" 
d="M725 130q-83 -146 -295 -146q-155 0 -250.5 87t-95.5 233q0 143 96.5 225t276.5 82h268v101q0 90 -51.5 139t-144.5 49q-89 0 -140.5 -42.5t-57.5 -114.5h-208q7 146 109 238t302 92q184 0 297 -91t113 -262v-720h-211v130h-8zM497 153q98 0 163 55t65 140v117h-230
q-94 0 -141 -40t-47 -109q0 -78 55.5 -120.5t134.5 -42.5zM247 1188l221 305h143l220 -305h-174l-116 178h-4l-116 -178h-174z" />
    <glyph glyph-name="atilde" unicode="&#xe3;" horiz-adv-x="1076" 
d="M725 130q-83 -146 -295 -146q-155 0 -250.5 87t-95.5 233q0 143 96.5 225t276.5 82h268v101q0 90 -51.5 139t-144.5 49q-89 0 -140.5 -42.5t-57.5 -114.5h-208q7 146 109 238t302 92q184 0 297 -91t113 -262v-720h-211v130h-8zM497 153q98 0 163 55t65 140v117h-230
q-94 0 -141 -40t-47 -109q0 -78 55.5 -120.5t134.5 -42.5zM651 1181q-45 0 -84 19.5t-61.5 43.5t-49 43.5t-49.5 19.5q-35 0 -49.5 -33t-15.5 -72h-135q0 96 51 164t142 68q37 0 69.5 -13t55 -31.5t42 -37t40 -31.5t40.5 -13q34 0 51.5 33t20.5 76h136q0 -93 -55.5 -164.5
t-148.5 -71.5z" />
    <glyph glyph-name="adieresis" unicode="&#xe4;" horiz-adv-x="1076" 
d="M725 130q-83 -146 -295 -146q-155 0 -250.5 87t-95.5 233q0 143 96.5 225t276.5 82h268v101q0 90 -51.5 139t-144.5 49q-89 0 -140.5 -42.5t-57.5 -114.5h-208q7 146 109 238t302 92q184 0 297 -91t113 -262v-720h-211v130h-8zM497 153q98 0 163 55t65 140v117h-230
q-94 0 -141 -40t-47 -109q0 -78 55.5 -120.5t134.5 -42.5zM365 1197q-44 0 -73.5 30t-29.5 74q0 46 29.5 76.5t73.5 30.5q45 0 74.5 -30.5t29.5 -76.5q0 -44 -29.5 -74t-74.5 -30zM729 1197q-43 0 -72.5 30t-29.5 74q0 46 29 76.5t73 30.5q46 0 76 -30.5t30 -76.5
q0 -44 -30 -74t-76 -30z" />
    <glyph glyph-name="aring" unicode="&#xe5;" horiz-adv-x="1076" 
d="M725 130q-83 -146 -295 -146q-155 0 -250.5 87t-95.5 233q0 143 96.5 225t276.5 82h268v101q0 90 -51.5 139t-144.5 49q-89 0 -140.5 -42.5t-57.5 -114.5h-208q7 146 109 238t302 92q184 0 297 -91t113 -262v-720h-211v130h-8zM497 153q98 0 163 55t65 140v117h-230
q-94 0 -141 -40t-47 -109q0 -78 55.5 -120.5t134.5 -42.5zM539 1182q-86 0 -144.5 56.5t-58.5 141.5t58.5 141t144.5 56t144.5 -56t58.5 -141t-58.5 -141.5t-144.5 -56.5zM441 1379q0 -41 28 -69.5t70 -28.5q41 0 69 28.5t28 69.5q0 42 -28 70.5t-69 28.5q-42 0 -70 -28.5
t-28 -70.5z" />
    <glyph glyph-name="ae" unicode="&#xe6;" horiz-adv-x="1735" 
d="M1202 -18q-265 0 -379 197h-5q-121 -197 -371 -197q-167 0 -265 87t-98 235t97 234.5t276 86.5h268v87q0 90 -51.5 139t-144.5 49q-89 0 -140.5 -42.5t-57.5 -114.5h-208q3 70 28.5 128t74 104.5t127.5 72.5t181 26q107 0 193.5 -37t135.5 -102h5q110 139 320 139
q218 0 335 -136.5t117 -365.5v-94h-686v-31q0 -122 63.5 -204.5t183.5 -82.5q93 0 145.5 41.5t65.5 102.5h216q-6 -44 -23 -87t-51 -86t-80.5 -75.5t-117 -53t-154.5 -20.5zM954 633h469v2q0 118 -63 191.5t-171 73.5t-171.5 -74t-63.5 -191v-2zM497 153q98 0 163 55t65 140
v125h-224q-98 0 -146 -41.5t-48 -115.5q0 -78 55.5 -120.5t134.5 -42.5z" />
    <glyph glyph-name="ccedilla" unicode="&#xe7;" horiz-adv-x="1059" 
d="M544 -469q-81 -3 -149 15v115q47 -14 114 -14q114 0 114 70q0 41 -31.5 52.5t-100.5 11.5h-54v90l50 115q-182 21 -285.5 157t-103.5 343v95q0 221 122.5 357.5t333.5 136.5q185 0 300 -102.5t121 -248.5h-210q-14 70 -68.5 118.5t-130.5 48.5q-115 0 -180 -84t-65 -231
v-90q0 -147 66.5 -233.5t179.5 -86.5q87 0 139.5 43.5t64.5 109.5h210q-20 -142 -111.5 -229.5t-243.5 -103.5l-44 -99q93 0 144.5 -42t51.5 -122q0 -93 -64 -140.5t-170 -51.5z" />
    <glyph glyph-name="egrave" unicode="&#xe8;" horiz-adv-x="1099" 
d="M561 -18q-213 0 -338 133.5t-125 366.5v107q0 222 123 354t331 132q210 0 331 -135t121 -361v-101h-687v-25q0 -134 67 -215t180 -81q84 0 140 39t77 108h211q-26 -139 -136 -230.5t-295 -91.5zM317 633h470v2q0 115 -65 191.5t-169 76.5q-105 0 -170.5 -76.5
t-65.5 -191.5v-2zM644 1188h-161l-239 282h206z" />
    <glyph glyph-name="eacute" unicode="&#xe9;" horiz-adv-x="1099" 
d="M561 -18q-213 0 -338 133.5t-125 366.5v107q0 222 123 354t331 132q210 0 331 -135t121 -361v-101h-687v-25q0 -134 67 -215t180 -81q84 0 140 39t77 108h211q-26 -139 -136 -230.5t-295 -91.5zM317 633h470v2q0 115 -65 191.5t-169 76.5q-105 0 -170.5 -76.5
t-65.5 -191.5v-2zM619 1188h-161l195 282h205z" />
    <glyph glyph-name="ecircumflex" unicode="&#xea;" horiz-adv-x="1099" 
d="M561 -18q-213 0 -338 133.5t-125 366.5v107q0 222 123 354t331 132q210 0 331 -135t121 -361v-101h-687v-25q0 -134 67 -215t180 -81q84 0 140 39t77 108h211q-26 -139 -136 -230.5t-295 -91.5zM317 633h470v2q0 115 -65 191.5t-169 76.5q-105 0 -170.5 -76.5
t-65.5 -191.5v-2zM259 1188l221 305h143l220 -305h-174l-116 178h-4l-116 -178h-174z" />
    <glyph glyph-name="edieresis" unicode="&#xeb;" horiz-adv-x="1099" 
d="M561 -18q-213 0 -338 133.5t-125 366.5v107q0 222 123 354t331 132q210 0 331 -135t121 -361v-101h-687v-25q0 -134 67 -215t180 -81q84 0 140 39t77 108h211q-26 -139 -136 -230.5t-295 -91.5zM317 633h470v2q0 115 -65 191.5t-169 76.5q-105 0 -170.5 -76.5
t-65.5 -191.5v-2zM377 1197q-44 0 -73.5 30t-29.5 74q0 46 29.5 76.5t73.5 30.5q45 0 74.5 -30.5t29.5 -76.5q0 -44 -29.5 -74t-74.5 -30zM741 1197q-43 0 -72.5 30t-29.5 74q0 46 29 76.5t73 30.5q46 0 76 -30.5t30 -76.5q0 -44 -30 -74t-76 -30z" />
    <glyph glyph-name="igrave" unicode="&#xec;" horiz-adv-x="524" 
d="M151 0v1057h222v-1057h-222zM351 1188h-161l-239 282h206z" />
    <glyph glyph-name="iacute" unicode="&#xed;" horiz-adv-x="524" 
d="M151 0v1057h222v-1057h-222zM326 1188h-161l195 282h205z" />
    <glyph glyph-name="icircumflex" unicode="&#xee;" horiz-adv-x="524" 
d="M151 0v1057h222v-1057h-222zM-34 1188l221 305h143l220 -305h-174l-116 178h-4l-116 -178h-174z" />
    <glyph glyph-name="idieresis" unicode="&#xef;" horiz-adv-x="524" 
d="M151 0v1057h222v-1057h-222zM84 1197q-44 0 -73.5 30t-29.5 74q0 46 29.5 76.5t73.5 30.5q45 0 74.5 -30.5t29.5 -76.5q0 -44 -29.5 -74t-74.5 -30zM448 1197q-43 0 -72.5 30t-29.5 74q0 46 29 76.5t73 30.5q46 0 76 -30.5t30 -76.5q0 -44 -30 -74t-76 -30z" />
    <glyph glyph-name="eth" unicode="&#xf0;" horiz-adv-x="1122" 
d="M570 -18q-225 0 -348.5 138.5t-123.5 367.5v30q0 221 114.5 361.5t310.5 140.5q172 0 253 -115h12l-8 23q-8 24 -13 37q-55 145 -135 243l-254 -94l-49 114l216 77q-115 125 -228 220h267q74 -58 151 -147l267 98l45 -109l-224 -84q105 -147 160 -327.5t55 -377.5v-88
q0 -229 -120.5 -368.5t-347.5 -139.5zM569 843q-118 0 -184 -85.5t-66 -237.5v-32q0 -152 66 -237.5t184 -85.5t184 85.5t66 237.5v32q0 152 -66 237.5t-184 85.5z" />
    <glyph glyph-name="ntilde" unicode="&#xf1;" horiz-adv-x="1172" 
d="M141 0v1057h218v-148h8q33 64 111 114t196 50q167 0 269 -103t102 -291v-679h-221v634q0 122 -63 184t-167 62q-112 0 -172 -70t-60 -180v-630h-221zM701 1181q-45 0 -84 19.5t-61.5 43.5t-49 43.5t-49.5 19.5q-35 0 -49.5 -33t-15.5 -72h-135q0 96 51 164t142 68
q37 0 69.5 -13t55 -31.5t42 -37t40 -31.5t40.5 -13q34 0 51.5 33t20.5 76h136q0 -93 -55.5 -164.5t-148.5 -71.5z" />
    <glyph glyph-name="ograve" unicode="&#xf2;" horiz-adv-x="1137" 
d="M569 1075q222 0 345.5 -139.5t123.5 -362.5v-85q0 -229 -122.5 -367.5t-346.5 -138.5t-347.5 138.5t-123.5 367.5v85q0 222 124.5 362t346.5 140zM569 897q-120 0 -183.5 -89t-63.5 -238v-81q0 -148 63.5 -238t183.5 -90t183 90t63 238v81q0 150 -63 238.5t-183 88.5z
M663 1188h-161l-239 282h206z" />
    <glyph glyph-name="oacute" unicode="&#xf3;" horiz-adv-x="1137" 
d="M569 1075q222 0 345.5 -139.5t123.5 -362.5v-85q0 -229 -122.5 -367.5t-346.5 -138.5t-347.5 138.5t-123.5 367.5v85q0 222 124.5 362t346.5 140zM569 897q-120 0 -183.5 -89t-63.5 -238v-81q0 -148 63.5 -238t183.5 -90t183 90t63 238v81q0 150 -63 238.5t-183 88.5z
M638 1188h-161l195 282h205z" />
    <glyph glyph-name="ocircumflex" unicode="&#xf4;" horiz-adv-x="1137" 
d="M569 1075q222 0 345.5 -139.5t123.5 -362.5v-85q0 -229 -122.5 -367.5t-346.5 -138.5t-347.5 138.5t-123.5 367.5v85q0 222 124.5 362t346.5 140zM569 897q-120 0 -183.5 -89t-63.5 -238v-81q0 -148 63.5 -238t183.5 -90t183 90t63 238v81q0 150 -63 238.5t-183 88.5z
M278 1188l221 305h143l220 -305h-174l-116 178h-4l-116 -178h-174z" />
    <glyph glyph-name="otilde" unicode="&#xf5;" horiz-adv-x="1137" 
d="M569 1075q222 0 345.5 -139.5t123.5 -362.5v-85q0 -229 -122.5 -367.5t-346.5 -138.5t-347.5 138.5t-123.5 367.5v85q0 222 124.5 362t346.5 140zM569 897q-120 0 -183.5 -89t-63.5 -238v-81q0 -148 63.5 -238t183.5 -90t183 90t63 238v81q0 150 -63 238.5t-183 88.5z
M682 1181q-45 0 -84 19.5t-61.5 43.5t-49 43.5t-49.5 19.5q-25 0 -40.5 -20.5t-19.5 -41t-5 -43.5h-135q0 96 51 164t142 68q37 0 69.5 -13t55 -31.5t42 -37t40 -31.5t40.5 -13q34 0 51.5 33t20.5 76h136q0 -93 -55.5 -164.5t-148.5 -71.5z" />
    <glyph glyph-name="odieresis" unicode="&#xf6;" horiz-adv-x="1137" 
d="M569 1075q222 0 345.5 -139.5t123.5 -362.5v-85q0 -229 -122.5 -367.5t-346.5 -138.5t-347.5 138.5t-123.5 367.5v85q0 222 124.5 362t346.5 140zM569 897q-120 0 -183.5 -89t-63.5 -238v-81q0 -148 63.5 -238t183.5 -90t183 90t63 238v81q0 150 -63 238.5t-183 88.5z
M396 1197q-44 0 -73.5 30t-29.5 74q0 46 29.5 76.5t73.5 30.5q45 0 74.5 -30.5t29.5 -76.5q0 -44 -29.5 -74t-74.5 -30zM760 1197q-43 0 -72.5 30t-29.5 74q0 46 29 76.5t73 30.5q46 0 76 -30.5t30 -76.5q0 -44 -30 -74t-76 -30z" />
    <glyph glyph-name="divide" unicode="&#xf7;" horiz-adv-x="1171" 
d="M1063 479h-954v164h954v-164zM454 180q0 56 37.5 91t92.5 35q58 0 95.5 -35t37.5 -91q0 -54 -37.5 -89t-95.5 -35q-54 0 -92 35.5t-38 88.5zM454 945q0 56 37.5 90.5t92.5 34.5q58 0 95.5 -34.5t37.5 -90.5q0 -55 -37.5 -89.5t-95.5 -34.5q-54 0 -92 35t-38 89z" />
    <glyph glyph-name="oslash" unicode="&#xf8;" horiz-adv-x="1137" 
d="M406 225q63 -65 163 -65q122 0 185.5 90t63.5 239v83q0 98 -33 164zM319 489q0 -87 27 -154l376 507q-60 58 -153 58q-122 0 -186 -89t-64 -239v-83zM569 -18q-170 0 -284 82l-104 -136l-101 78l114 150q-96 131 -96 332v85q0 222 124.5 362t346.5 140q160 0 272 -76
l96 127l102 -81l-104 -135q103 -132 103 -337v-85q0 -229 -122.5 -367.5t-346.5 -138.5z" />
    <glyph glyph-name="ugrave" unicode="&#xf9;" horiz-adv-x="1168" 
d="M1027 1057v-1057h-218v147h-10q-29 -69 -107 -116t-198 -47q-168 0 -267.5 95.5t-99.5 274.5v703h222v-642q0 -129 62.5 -184t162.5 -55q103 0 167 63.5t64 178.5v639h222zM673 1188h-161l-239 282h206z" />
    <glyph glyph-name="uacute" unicode="&#xfa;" horiz-adv-x="1168" 
d="M1027 1057v-1057h-218v147h-10q-29 -69 -107 -116t-198 -47q-168 0 -267.5 95.5t-99.5 274.5v703h222v-642q0 -129 62.5 -184t162.5 -55q103 0 167 63.5t64 178.5v639h222zM648 1188h-161l195 282h205z" />
    <glyph glyph-name="ucircumflex" unicode="&#xfb;" horiz-adv-x="1168" 
d="M1027 1057v-1057h-218v147h-10q-29 -69 -107 -116t-198 -47q-168 0 -267.5 95.5t-99.5 274.5v703h222v-642q0 -129 62.5 -184t162.5 -55q103 0 167 63.5t64 178.5v639h222zM288 1188l221 305h143l220 -305h-174l-116 178h-4l-116 -178h-174z" />
    <glyph glyph-name="udieresis" unicode="&#xfc;" horiz-adv-x="1168" 
d="M1027 1057v-1057h-218v147h-10q-29 -69 -107 -116t-198 -47q-168 0 -267.5 95.5t-99.5 274.5v703h222v-642q0 -129 62.5 -184t162.5 -55q103 0 167 63.5t64 178.5v639h222zM406 1197q-44 0 -73.5 30t-29.5 74q0 46 29.5 76.5t73.5 30.5q45 0 74.5 -30.5t29.5 -76.5
q0 -44 -29.5 -74t-74.5 -30zM770 1197q-43 0 -72.5 30t-29.5 74q0 46 29 76.5t73 30.5q46 0 76 -30.5t30 -76.5q0 -44 -30 -74t-76 -30z" />
    <glyph glyph-name="yacute" unicode="&#xfd;" horiz-adv-x="1004" 
d="M1000 1057q-7 -24 -24 -74.5t-39.5 -116.5t-49.5 -144t-55.5 -159.5t-56 -160.5t-52 -149t-43 -123t-29.5 -84l-11 -32l-27 -73q-64 -173 -158.5 -242.5t-251.5 -69.5q-65 0 -117 10v168q28 -5 81 -5q90 0 136.5 33t63.5 111l13 46l-377 1065h246l253 -840h7l256 840h235
zM575 1188h-161l195 282h205z" />
    <glyph glyph-name="thorn" unicode="&#xfe;" horiz-adv-x="1181" 
d="M670 -15q-100 0 -177 43.5t-120 118.5h-8v-498h-222v1788h222v-531h8q39 76 118 120.5t184 44.5q182 0 294 -131.5t112 -363.5v-94q0 -232 -112.5 -364.5t-298.5 -132.5zM619 168q108 0 172.5 85t64.5 241v74q0 153 -63.5 237.5t-177.5 84.5q-116 0 -184 -87t-68 -234
v-75q0 -150 69 -238t187 -88z" />
    <glyph glyph-name="ydieresis" unicode="&#xff;" horiz-adv-x="1004" 
d="M1000 1057q-7 -24 -24 -74.5t-39.5 -116.5t-49.5 -144t-55.5 -159.5t-56 -160.5t-52 -149t-43 -123t-29.5 -84l-11 -32l-27 -73q-64 -173 -158.5 -242.5t-251.5 -69.5q-65 0 -117 10v168q28 -5 81 -5q90 0 136.5 33t63.5 111l13 46l-377 1065h246l253 -840h7l256 840h235
zM333 1197q-44 0 -73.5 30t-29.5 74q0 46 29.5 76.5t73.5 30.5q45 0 74.5 -30.5t29.5 -76.5q0 -44 -29.5 -74t-74.5 -30zM697 1197q-43 0 -72.5 30t-29.5 74q0 46 29 76.5t73 30.5q46 0 76 -30.5t30 -76.5q0 -44 -30 -74t-76 -30z" />
    <glyph glyph-name="Amacron" unicode="&#x100;" horiz-adv-x="1233" 
d="M251 0h-231l470 1365h254l469 -1365h-240l-121 378h-479zM618 1129h-9l-185 -577h377zM896 1516h-560v121h560v-121z" />
    <glyph glyph-name="amacron" unicode="&#x101;" horiz-adv-x="1076" 
d="M725 130q-83 -146 -295 -146q-155 0 -250.5 87t-95.5 233q0 143 96.5 225t276.5 82h268v101q0 90 -51.5 139t-144.5 49q-89 0 -140.5 -42.5t-57.5 -114.5h-208q7 146 109 238t302 92q184 0 297 -91t113 -262v-720h-211v130h-8zM497 153q98 0 163 55t65 140v117h-230
q-94 0 -141 -40t-47 -109q0 -78 55.5 -120.5t134.5 -42.5zM822 1234h-566v135h566v-135z" />
    <glyph glyph-name="Abreve" unicode="&#x102;" horiz-adv-x="1233" 
d="M251 0h-231l470 1365h254l469 -1365h-240l-121 378h-479zM618 1129h-9l-185 -577h377zM322 1761h133q0 -66 41 -108.5t121 -42.5t120.5 42.5t40.5 108.5h132q0 -111 -75.5 -192t-217.5 -81t-218.5 81t-76.5 192z" />
    <glyph glyph-name="abreve" unicode="&#x103;" horiz-adv-x="1076" 
d="M725 130q-83 -146 -295 -146q-155 0 -250.5 87t-95.5 233q0 143 96.5 225t276.5 82h268v101q0 90 -51.5 139t-144.5 49q-89 0 -140.5 -42.5t-57.5 -114.5h-208q7 146 109 238t302 92q184 0 297 -91t113 -262v-720h-211v130h-8zM497 153q98 0 163 55t65 140v117h-230
q-94 0 -141 -40t-47 -109q0 -78 55.5 -120.5t134.5 -42.5zM238 1471h138q0 -68 41.5 -115t121.5 -47t121.5 47t41.5 115h136q0 -53 -18.5 -103t-54 -92t-94 -67t-132.5 -25t-133.5 25t-95 67t-54 92t-18.5 103z" />
    <glyph glyph-name="Aogonek" unicode="&#x104;" horiz-adv-x="1233" 
d="M251 0h-231l470 1365h254l461 -1339q-83 -24 -129 -69.5t-46 -101.5q0 -44 31 -71t86 -27q41 0 78 8v-132q-43 -20 -135 -20q-105 0 -171 55t-66 147q0 135 139 214v5h-31l-109 344h-479zM618 1129h-9l-185 -577h377z" />
    <glyph glyph-name="aogonek" unicode="&#x105;" horiz-adv-x="1076" 
d="M827 -387q-96 0 -163 49.5t-67 146.5q0 76 38 128t107 94v99h-10q-84 -146 -299 -146q-155 0 -252 87t-97 234q0 142 97 224t276 82h268v101q0 90 -51.5 139t-144.5 49q-89 0 -140.5 -42.5t-57.5 -114.5h-208q8 147 109.5 238.5t302.5 91.5q182 0 295.5 -91t113.5 -262
v-700q-71 -21 -123.5 -64.5t-52.5 -103.5q0 -43 32 -67t81 -24q43 0 78 8v-135q-58 -21 -132 -21zM497 153q98 0 163 55t65 140v117h-230q-94 0 -141 -40t-47 -109q0 -78 55.5 -120.5t134.5 -42.5z" />
    <glyph glyph-name="Cacute" unicode="&#x106;" horiz-adv-x="1265" 
d="M328 763v-168q0 -205 85 -316t242 -111q133 0 215 75.5t84 196.5h221v-15q0 -197 -147.5 -324.5t-373.5 -127.5q-263 0 -409 165t-146 458v167q0 295 146 462t409 167q227 0 374 -132t147 -339v-15h-221q-2 129 -84 209.5t-215 80.5q-157 0 -242 -112.5t-85 -320.5z
M718 1509h-161l195 282h205z" />
    <glyph glyph-name="cacute" unicode="&#x107;" horiz-adv-x="1059" 
d="M98 486v95q0 221 122.5 357.5t333.5 136.5q185 0 300 -102.5t121 -248.5h-210q-14 70 -68.5 118.5t-130.5 48.5q-115 0 -180 -84t-65 -231v-90q0 -147 66.5 -233.5t179.5 -86.5q87 0 139.5 43.5t64.5 109.5h210q-21 -159 -132.5 -248t-294.5 -89q-212 0 -334 139
t-122 365zM624 1188h-161l195 282h205z" />
    <glyph glyph-name="Ccircumflex" unicode="&#x108;" horiz-adv-x="1265" 
d="M328 763v-168q0 -205 85 -316t242 -111q133 0 215 75.5t84 196.5h221v-15q0 -197 -147.5 -324.5t-373.5 -127.5q-263 0 -409 165t-146 458v167q0 295 146 462t409 167q227 0 374 -132t147 -339v-15h-221q-2 129 -84 209.5t-215 80.5q-157 0 -242 -112.5t-85 -320.5z
M357 1509l221 287h140l221 -287h-172l-116 165h-6l-116 -165h-172z" />
    <glyph glyph-name="ccircumflex" unicode="&#x109;" horiz-adv-x="1059" 
d="M98 486v95q0 221 122.5 357.5t333.5 136.5q185 0 300 -102.5t121 -248.5h-210q-14 70 -68.5 118.5t-130.5 48.5q-115 0 -180 -84t-65 -231v-90q0 -147 66.5 -233.5t179.5 -86.5q87 0 139.5 43.5t64.5 109.5h210q-21 -159 -132.5 -248t-294.5 -89q-212 0 -334 139
t-122 365zM264 1188l221 305h143l220 -305h-174l-116 178h-4l-116 -178h-174z" />
    <glyph glyph-name="Cdotaccent" unicode="&#x10a;" horiz-adv-x="1265" 
d="M328 763v-168q0 -205 85 -316t242 -111q133 0 215 75.5t84 196.5h221v-15q0 -197 -147.5 -324.5t-373.5 -127.5q-263 0 -409 165t-146 458v167q0 295 146 462t409 167q227 0 374 -132t147 -339v-15h-221q-2 129 -84 209.5t-215 80.5q-157 0 -242 -112.5t-85 -320.5z
M526 1644q0 50 36 85t86 35t86 -35t36 -85t-36 -85t-86 -35t-86 35t-36 85z" />
    <glyph glyph-name="cdotaccent" unicode="&#x10b;" horiz-adv-x="1059" 
d="M98 486v95q0 221 122.5 357.5t333.5 136.5q185 0 300 -102.5t121 -248.5h-210q-14 70 -68.5 118.5t-130.5 48.5q-115 0 -180 -84t-65 -231v-90q0 -147 66.5 -233.5t179.5 -86.5q87 0 139.5 43.5t64.5 109.5h210q-21 -159 -132.5 -248t-294.5 -89q-212 0 -334 139
t-122 365zM438 1309q0 50 34 84.5t82 34.5q51 0 85.5 -34.5t34.5 -84.5t-34.5 -83.5t-85.5 -33.5q-48 0 -82 34t-34 83z" />
    <glyph glyph-name="Ccaron" unicode="&#x10c;" horiz-adv-x="1265" 
d="M328 763v-168q0 -205 85 -316t242 -111q133 0 215 75.5t84 196.5h221v-15q0 -197 -147.5 -324.5t-373.5 -127.5q-263 0 -409 165t-146 458v167q0 295 146 462t409 167q227 0 374 -132t147 -339v-15h-221q-2 129 -84 209.5t-215 80.5q-157 0 -242 -112.5t-85 -320.5z
M357 1795h172l116 -165h6l116 165h172l-221 -287h-140z" />
    <glyph glyph-name="ccaron" unicode="&#x10d;" horiz-adv-x="1059" 
d="M98 486v95q0 221 122.5 357.5t333.5 136.5q185 0 300 -102.5t121 -248.5h-210q-14 70 -68.5 118.5t-130.5 48.5q-115 0 -180 -84t-65 -231v-90q0 -147 66.5 -233.5t179.5 -86.5q87 0 139.5 43.5t64.5 109.5h210q-21 -159 -132.5 -248t-294.5 -89q-212 0 -334 139
t-122 365zM264 1493h174l116 -178h4l117 178h173l-220 -305h-143z" />
    <glyph glyph-name="Dcaron" unicode="&#x10e;" horiz-adv-x="1311" 
d="M153 1365h471q302 0 454 -173.5t152 -506.5t-152.5 -509t-453.5 -176h-471v1365zM380 1174v-983h220q196 0 296 117.5t100 373.5q0 492 -396 492h-220zM310 1795h172l116 -165h6l116 165h172l-221 -287h-140z" />
    <glyph glyph-name="dcaron" unicode="&#x10f;" horiz-adv-x="1404" 
d="M1217 1436h187l-46 -488h-141v488zM512 1071q103 0 182.5 -45.5t118.5 -119.5h8v531h222v-1437h-216v161h-8q-41 -82 -121.5 -128.5t-185.5 -46.5q-197 0 -305 134t-108 363v92q0 224 110.5 360t302.5 136zM568 888q-109 0 -176 -82.5t-67 -238.5v-78q0 -156 67 -238.5
t178 -82.5q118 0 185.5 83.5t67.5 236.5v79q0 148 -68.5 234.5t-186.5 86.5z" />
    <glyph glyph-name="Dcroat" unicode="&#x110;" horiz-adv-x="1395" 
d="M651 0h-470v597h-107v197h107v571h470q302 0 454 -173.5t152 -506.5t-152.5 -509t-453.5 -176zM407 194h219q196 0 296 117.5t100 373.5q0 492 -396 492h-219v-383h330v-197h-330v-403z" />
    <glyph glyph-name="dcroat" unicode="&#x111;" horiz-adv-x="1189" 
d="M568 888q-109 0 -175 -82.5t-66 -238.5v-78q0 -156 66.5 -238.5t176.5 -82.5q118 0 184.5 83.5t66.5 236.5v79q0 149 -67.5 235t-185.5 86zM821 161q-42 -82 -123 -128.5t-186 -46.5q-197 0 -305 134t-108 363v92q0 224 110.5 360t302.5 136q103 0 181 -45t117 -120h8
v257h-252v141h258v133h215v-133h120v-141h-114v-1163h-216v161h-8z" />
    <glyph glyph-name="Emacron" unicode="&#x112;" horiz-adv-x="1114" 
d="M1005 191v-191h-852v1365h852v-191h-626v-389h590v-183h-590v-411h626zM853 1516h-560v121h560v-121z" />
    <glyph glyph-name="emacron" unicode="&#x113;" horiz-adv-x="1099" 
d="M561 -18q-213 0 -338 133.5t-125 366.5v107q0 222 123 354t331 132q210 0 331 -135t121 -361v-101h-687v-25q0 -134 67 -215t180 -81q84 0 140 39t77 108h211q-26 -139 -136 -230.5t-295 -91.5zM317 633h470v2q0 115 -65 191.5t-169 76.5q-105 0 -170.5 -76.5
t-65.5 -191.5v-2zM834 1234h-566v135h566v-135z" />
    <glyph glyph-name="Ebreve" unicode="&#x114;" horiz-adv-x="1114" 
d="M1005 191v-191h-852v1365h852v-191h-626v-389h590v-183h-590v-411h626zM278 1761h133q0 -66 41 -108.5t121 -42.5t120.5 42.5t40.5 108.5h132q0 -111 -75.5 -192t-217.5 -81t-218.5 81t-76.5 192z" />
    <glyph glyph-name="ebreve" unicode="&#x115;" horiz-adv-x="1099" 
d="M561 -18q-213 0 -338 133.5t-125 366.5v107q0 222 123 354t331 132q210 0 331 -135t121 -361v-101h-687v-25q0 -134 67 -215t180 -81q84 0 140 39t77 108h211q-26 -139 -136 -230.5t-295 -91.5zM317 633h470v2q0 115 -65 191.5t-169 76.5q-105 0 -170.5 -76.5
t-65.5 -191.5v-2zM250 1471h138q0 -68 41.5 -115t121.5 -47t121.5 47t41.5 115h136q0 -53 -18.5 -103t-54 -92t-94 -67t-132.5 -25t-133.5 25t-95 67t-54 92t-18.5 103z" />
    <glyph glyph-name="Edotaccent" unicode="&#x116;" horiz-adv-x="1114" 
d="M1005 191v-191h-852v1365h852v-191h-626v-389h590v-183h-590v-411h626zM451 1644q0 50 36 85t86 35t86 -35t36 -85t-36 -85t-86 -35t-86 35t-36 85z" />
    <glyph glyph-name="edotaccent" unicode="&#x117;" horiz-adv-x="1099" 
d="M561 -18q-213 0 -338 133.5t-125 366.5v107q0 222 123 354t331 132q210 0 331 -135t121 -361v-101h-687v-25q0 -134 67 -215t180 -81q84 0 140 39t77 108h211q-26 -139 -136 -230.5t-295 -91.5zM317 633h470v2q0 115 -65 191.5t-169 76.5q-105 0 -170.5 -76.5
t-65.5 -191.5v-2zM433 1309q0 50 34 84.5t82 34.5q51 0 85.5 -34.5t34.5 -84.5t-34.5 -83.5t-85.5 -33.5q-48 0 -82 34t-34 83z" />
    <glyph glyph-name="Eogonek" unicode="&#x118;" horiz-adv-x="1115" 
d="M1006 -368q-53 -19 -128 -19q-101 0 -167.5 49.5t-66.5 146.5q0 116 113 186v5h-604v1365h852v-191h-627v-389h591v-183h-590v-411h626v-160q-34 -8 -65.5 -22t-61 -35t-47.5 -52t-18 -67q0 -47 32 -72.5t87 -25.5q45 0 74 8v-133z" />
    <glyph glyph-name="eogonek" unicode="&#x119;" horiz-adv-x="1099" 
d="M783 -387q-101 0 -167.5 51.5t-66.5 143.5q0 45 17 84.5t32.5 57t42.5 43.5l-6 10q-40 -18 -105 -18q-188 0 -310 134t-122 363v107q0 222 123 354t331 132q210 0 331 -135t121 -361v-101h-687v-25q0 -134 67.5 -215t180.5 -81q82 0 139 39t77 108h210
q-22 -132 -163 -249q-110 -91 -110 -189q0 -50 34.5 -77.5t84.5 -27.5q42 0 74 9v-138q-46 -19 -128 -19zM317 633h470v2q0 115 -65 191.5t-169 76.5q-105 0 -170.5 -76.5t-65.5 -191.5v-2z" />
    <glyph glyph-name="Ecaron" unicode="&#x11a;" horiz-adv-x="1114" 
d="M1005 191v-191h-852v1365h852v-191h-626v-389h590v-183h-590v-411h626zM282 1795h172l116 -165h6l116 165h172l-221 -287h-140z" />
    <glyph glyph-name="ecaron" unicode="&#x11b;" horiz-adv-x="1099" 
d="M561 -18q-213 0 -338 133.5t-125 366.5v107q0 222 123 354t331 132q210 0 331 -135t121 -361v-101h-687v-25q0 -134 67 -215t180 -81q84 0 140 39t77 108h211q-26 -139 -136 -230.5t-295 -91.5zM317 633h470v2q0 115 -65 191.5t-169 76.5q-105 0 -170.5 -76.5
t-65.5 -191.5v-2zM259 1493h174l116 -178h4l117 178h173l-220 -305h-143z" />
    <glyph glyph-name="Gcircumflex" unicode="&#x11c;" horiz-adv-x="1290" 
d="M1188 938h-222q-14 120 -94.5 190t-210.5 70q-159 0 -247 -108.5t-88 -303.5v-189q0 -204 86 -317t256 -113q137 0 221.5 76.5t84.5 194.5v107h-314v179h531v-276q0 -98 -37 -184.5t-103.5 -151t-166.5 -102t-219 -37.5q-278 0 -422 165t-144 458v191q0 280 149 442.5
t414 162.5q232 0 373.5 -127.5t152.5 -326.5zM368 1509l221 287h140l221 -287h-172l-116 165h-6l-116 -165h-172z" />
    <glyph glyph-name="gcircumflex" unicode="&#x11d;" horiz-adv-x="1184" 
d="M572 -216q115 0 181.5 64t66.5 178v153h-8q-32 -72 -113 -119.5t-187 -47.5q-187 0 -299.5 129t-112.5 364v76q0 232 112.5 361t299.5 129q105 0 187 -47t117 -120h8v153h217v-1041q0 -102 -39.5 -181t-107 -126.5t-150 -71.5t-174.5 -24q-206 0 -318.5 87t-128.5 228
h220q14 -62 75.5 -103t153.5 -41zM577 890q-119 0 -185 -83t-66 -237v-63q0 -151 66 -235.5t185 -84.5q114 0 178.5 84.5t64.5 235.5v63q0 148 -66 234t-177 86zM299 1188l221 305h143l220 -305h-174l-116 178h-4l-116 -178h-174z" />
    <glyph glyph-name="Gbreve" unicode="&#x11e;" horiz-adv-x="1290" 
d="M1188 938h-222q-14 120 -94.5 190t-210.5 70q-159 0 -247 -108.5t-88 -303.5v-189q0 -204 86 -317t256 -113q137 0 221.5 76.5t84.5 194.5v107h-314v179h531v-276q0 -98 -37 -184.5t-103.5 -151t-166.5 -102t-219 -37.5q-278 0 -422 165t-144 458v191q0 280 149 442.5
t414 162.5q232 0 373.5 -127.5t152.5 -326.5zM364 1761h133q0 -66 41 -108.5t121 -42.5t120.5 42.5t40.5 108.5h132q0 -111 -75.5 -192t-217.5 -81t-218.5 81t-76.5 192z" />
    <glyph glyph-name="gbreve" unicode="&#x11f;" horiz-adv-x="1184" 
d="M572 -216q115 0 181.5 64t66.5 178v153h-8q-32 -72 -113 -119.5t-187 -47.5q-187 0 -299.5 129t-112.5 364v76q0 232 112.5 361t299.5 129q105 0 187 -47t117 -120h8v153h217v-1041q0 -102 -39.5 -181t-107 -126.5t-150 -71.5t-174.5 -24q-206 0 -318.5 87t-128.5 228
h220q14 -62 75.5 -103t153.5 -41zM577 890q-119 0 -185 -83t-66 -237v-63q0 -151 66 -235.5t185 -84.5q114 0 178.5 84.5t64.5 235.5v63q0 148 -66 234t-177 86zM290 1471h138q0 -68 41.5 -115t121.5 -47t121.5 47t41.5 115h136q0 -53 -18.5 -103t-54 -92t-94 -67
t-132.5 -25t-133.5 25t-95 67t-54 92t-18.5 103z" />
    <glyph glyph-name="Gdotaccent" unicode="&#x120;" horiz-adv-x="1290" 
d="M1188 938h-222q-14 120 -94.5 190t-210.5 70q-159 0 -247 -108.5t-88 -303.5v-189q0 -204 86 -317t256 -113q137 0 221.5 76.5t84.5 194.5v107h-314v179h531v-276q0 -98 -37 -184.5t-103.5 -151t-166.5 -102t-219 -37.5q-278 0 -422 165t-144 458v191q0 280 149 442.5
t414 162.5q232 0 373.5 -127.5t152.5 -326.5zM537 1644q0 50 36 85t86 35t86 -35t36 -85t-36 -85t-86 -35t-86 35t-36 85z" />
    <glyph glyph-name="gdotaccent" unicode="&#x121;" horiz-adv-x="1184" 
d="M572 -216q115 0 181.5 64t66.5 178v153h-8q-32 -72 -113 -119.5t-187 -47.5q-187 0 -299.5 129t-112.5 364v76q0 232 112.5 361t299.5 129q105 0 187 -47t117 -120h8v153h217v-1041q0 -102 -39.5 -181t-107 -126.5t-150 -71.5t-174.5 -24q-206 0 -318.5 87t-128.5 228
h220q14 -62 75.5 -103t153.5 -41zM577 890q-119 0 -185 -83t-66 -237v-63q0 -151 66 -235.5t185 -84.5q114 0 178.5 84.5t64.5 235.5v63q0 148 -66 234t-177 86zM473 1309q0 50 34 84.5t82 34.5q51 0 85.5 -34.5t34.5 -84.5t-34.5 -83.5t-85.5 -33.5q-48 0 -82 34t-34 83z
" />
    <glyph glyph-name="Gcommaaccent" unicode="&#x122;" horiz-adv-x="1290" 
d="M1188 938h-222q-14 120 -94.5 190t-210.5 70q-159 0 -247 -108.5t-88 -303.5v-189q0 -204 86 -317t256 -113q137 0 221.5 76.5t84.5 194.5v107h-314v179h531v-276q0 -98 -37 -184.5t-103.5 -151t-166.5 -102t-219 -37.5q-278 0 -422 165t-144 458v191q0 280 149 442.5
t414 162.5q232 0 373.5 -127.5t152.5 -326.5zM649 -489h-159l85 335h188z" />
    <glyph glyph-name="gcommaaccent" unicode="&#x123;" horiz-adv-x="1182" 
d="M552 1590h159l-85 -335h-188zM572 -216q115 0 181.5 64t66.5 178v153h-8q-32 -72 -113 -119.5t-187 -47.5q-187 0 -299.5 129t-112.5 364v76q0 232 112.5 361t299.5 129q105 0 187 -47t117 -120h8v153h217v-1041q0 -102 -39.5 -181t-107 -126.5t-150 -71.5t-174.5 -24
q-206 0 -318.5 87t-128.5 228h220q14 -62 75.5 -103t153.5 -41zM577 890q-119 0 -185 -83t-66 -237v-63q0 -151 66 -235.5t185 -84.5q114 0 178.5 84.5t64.5 235.5v63q0 148 -66 234t-177 86z" />
    <glyph glyph-name="Hcircumflex" unicode="&#x124;" horiz-adv-x="1386" 
d="M1232 0h-227v605h-625v-605h-227v1365h227v-567h625v567h227v-1365zM401 1509l221 287h140l221 -287h-172l-116 165h-6l-116 -165h-172z" />
    <glyph glyph-name="hcircumflex" unicode="&#x125;" horiz-adv-x="1176" 
d="M144 0v1437h222v-528h8q33 65 110.5 114.5t194.5 49.5q166 0 268.5 -103t102.5 -291v-679h-221v634q0 122 -63 184t-167 62q-113 0 -173 -70t-60 -180v-630h-222zM-39 1581l221 287h140l221 -287h-172l-116 165h-6l-116 -165h-172z" />
    <glyph glyph-name="Hbar" unicode="&#x126;" horiz-adv-x="1386" 
d="M380 776h625v222h-625v-222zM380 583v-583h-227v998h-101v153h101v214h227v-214h625v214h227v-214h102v-153h-102v-998h-227v583h-625z" />
    <glyph glyph-name="hbar" unicode="&#x127;" horiz-adv-x="1176" 
d="M366 630v-630h-222v1163h-117v141h123v133h211v-133h256v-141h-251v-254h8q33 64 110.5 114t194.5 50q166 0 268.5 -103t102.5 -291v-679h-221v634q0 122 -63 184t-167 62q-113 0 -173 -70t-60 -180z" />
    <glyph glyph-name="Itilde" unicode="&#x128;" horiz-adv-x="534" 
d="M380 0h-227v1365h227v-1365zM376 1479q-42 0 -77 17.5t-55 38.5t-43.5 38.5t-43.5 17.5q-53 0 -58 -93h-121q0 85 45.5 145.5t129.5 60.5q42 0 78.5 -17.5t57 -38.5t44 -38.5t42.5 -17.5q29 0 44 29t18 67h122q0 -83 -49 -146t-134 -63z" />
    <glyph glyph-name="itilde" unicode="&#x129;" horiz-adv-x="524" 
d="M151 0v1057h222v-1057h-222zM370 1181q-45 0 -84 19.5t-61.5 43.5t-49 43.5t-49.5 19.5q-25 0 -40.5 -20.5t-19.5 -41t-5 -43.5h-135q0 96 51 164t142 68q37 0 69.5 -13t55 -31.5t42 -37t40 -31.5t40.5 -13q34 0 51.5 33t20.5 76h136q0 -93 -55.5 -164.5t-148.5 -71.5z
" />
    <glyph glyph-name="Imacron" unicode="&#x12a;" horiz-adv-x="534" 
d="M380 0h-227v1365h227v-1365zM547 1516h-560v121h560v-121z" />
    <glyph glyph-name="imacron" unicode="&#x12b;" horiz-adv-x="524" 
d="M151 0v1057h222v-1057h-222zM541 1234h-566v135h566v-135z" />
    <glyph glyph-name="Ibreve" unicode="&#x12c;" horiz-adv-x="534" 
d="M380 0h-227v1365h227v-1365zM-28 1761h133q0 -66 41 -108.5t121 -42.5t120.5 42.5t40.5 108.5h132q0 -111 -75.5 -192t-217.5 -81t-218.5 81t-76.5 192z" />
    <glyph glyph-name="ibreve" unicode="&#x12d;" horiz-adv-x="524" 
d="M151 0v1057h222v-1057h-222zM-43 1471h138q0 -68 41.5 -115t121.5 -47t121.5 47t41.5 115h136q0 -53 -18.5 -103t-54 -92t-94 -67t-132.5 -25t-133.5 25t-95 67t-54 92t-18.5 103z" />
    <glyph glyph-name="Iogonek" unicode="&#x12e;" horiz-adv-x="534" 
d="M404 -366q-44 -22 -131 -22q-109 0 -171.5 52.5t-62.5 146.5q0 137 135 211v4h-21v1339h227v-1343q-169 -62 -169 -168q0 -47 31.5 -72.5t83.5 -25.5q48 0 78 9v-131z" />
    <glyph glyph-name="iogonek" unicode="&#x12f;" horiz-adv-x="524" 
d="M391 -369q-47 -18 -127 -18q-116 0 -183.5 51.5t-67.5 148.5q0 138 138 213v1031h222v-1029q-32 -10 -61 -25t-57.5 -36t-45 -50t-16.5 -62q0 -47 32.5 -72.5t85.5 -25.5q48 0 80 8v-134zM130 1315q0 54 38.5 90t93.5 36t93 -36t38 -90t-38 -89.5t-93 -35.5t-93.5 35.5
t-38.5 89.5z" />
    <glyph glyph-name="Idotaccent" unicode="&#x130;" horiz-adv-x="534" 
d="M380 0h-227v1365h227v-1365zM145 1644q0 50 36 85t86 35t86 -35t36 -85t-36 -85t-86 -35t-86 35t-36 85z" />
    <glyph glyph-name="dotlessi" unicode="&#x131;" horiz-adv-x="524" 
d="M151 0v1057h222v-1057h-222z" />
    <glyph glyph-name="IJ" unicode="&#x132;" horiz-adv-x="1553" 
d="M380 0h-227v1365h227v-1365zM559 355h219q3 -82 54 -131t143 -49q104 0 154 62.5t50 189.5v938h227v-940q0 -219 -112.5 -335.5t-317.5 -116.5q-193 0 -305 108.5t-112 273.5z" />
    <glyph glyph-name="ij" unicode="&#x133;" horiz-adv-x="1026" 
d="M151 0v1057h222v-1057h-222zM130 1315q0 54 38.5 90t93.5 36t93 -36t38 -90t-38 -89.5t-93 -35.5t-93.5 35.5t-38.5 89.5zM632 1315q0 54 38.5 90t93.5 36t93 -36t38 -90t-38 -89.5t-93 -35.5t-93.5 35.5t-38.5 89.5zM874 1057v-1081q0 -177 -84 -262t-236 -85
q-67 0 -105 9v165q21 -4 62 -4q75 0 108.5 42.5t33.5 137.5v1078h221z" />
    <glyph glyph-name="Jcircumflex" unicode="&#x134;" horiz-adv-x="1019" 
d="M25 355h219q3 -82 54 -131t143 -49q104 0 154 62.5t50 189.5v938h227v-940q0 -219 -112.5 -335.5t-317.5 -116.5q-193 0 -305 108.5t-112 273.5zM466 1509l221 287h140l221 -287h-172l-116 165h-6l-116 -165h-172z" />
    <glyph glyph-name="jcircumflex" unicode="&#x135;" horiz-adv-x="524" 
d="M372 1057v-1080q0 -177 -84 -262t-236 -85q-67 0 -105 9v165q21 -4 62 -4q75 0 108.5 42.5t33.5 137.5v1077h221zM-38 1188l221 305h143l220 -305h-174l-116 178h-4l-116 -178h-174z" />
    <glyph glyph-name="Kcommaaccent" unicode="&#x136;" horiz-adv-x="1225" 
d="M1197 1365l-496 -585l520 -780h-278l-410 627l-153 -170v-457h-227v1365h227v-633h10l552 633h255zM602 -489h-159l85 335h188z" />
    <glyph glyph-name="kcommaaccent" unicode="&#x137;" horiz-adv-x="1030" 
d="M365 371v-371h-222v1437h222v-829h9l380 449h263l-400 -458l426 -599h-265l-328 467zM540 -489h-159l85 335h188z" />
    <glyph glyph-name="Lacute" unicode="&#x139;" horiz-adv-x="1005" 
d="M982 197v-197h-829v1365h227v-1168h602zM336 1509h-161l195 282h205z" />
    <glyph glyph-name="lacute" unicode="&#x13a;" horiz-adv-x="518" 
d="M148 0v1437h222v-1437h-222zM328 1581h-161l195 282h205z" />
    <glyph glyph-name="Lcommaaccent" unicode="&#x13b;" horiz-adv-x="1005" 
d="M982 197v-197h-829v1365h227v-1168h602zM500 -489h-159l85 335h188z" />
    <glyph glyph-name="lcommaaccent" unicode="&#x13c;" horiz-adv-x="518" 
d="M148 0v1437h222v-1437h-222zM248 -489h-159l85 335h188z" />
    <glyph glyph-name="Lcaron" unicode="&#x13d;" horiz-adv-x="1005" 
d="M599 1436h195l-50 -488h-145v488zM982 197v-197h-829v1365h227v-1168h602z" />
    <glyph glyph-name="lcaron" unicode="&#x13e;" horiz-adv-x="730" 
d="M537 1436h187l-45 -488h-142v488zM148 0v1437h222v-1437h-222z" />
    <glyph glyph-name="Lslash" unicode="&#x141;" horiz-adv-x="1017" 
d="M994 0h-829v526l-125 -73v203l125 72v637h227v-509l346 202v-205l-346 -200v-456h602v-197z" />
    <glyph glyph-name="lslash" unicode="&#x142;" horiz-adv-x="648" 
d="M435 0h-221v590l-148 -98v197l148 98v650h221v-510l147 99v-203l-147 -98v-725z" />
    <glyph glyph-name="Nacute" unicode="&#x143;" horiz-adv-x="1372" 
d="M367 0h-214v1365h200l645 -980h7v980h213v-1365h-198l-647 983h-6v-983zM755 1509h-161l195 282h205z" />
    <glyph glyph-name="nacute" unicode="&#x144;" horiz-adv-x="1172" 
d="M141 0v1057h218v-148h8q33 64 111 114t196 50q167 0 269 -103t102 -291v-679h-221v634q0 122 -63 184t-167 62q-112 0 -172 -70t-60 -180v-630h-221zM657 1188h-161l195 282h205z" />
    <glyph glyph-name="Ncommaaccent" unicode="&#x145;" horiz-adv-x="1372" 
d="M367 0h-214v1365h200l645 -980h7v980h213v-1365h-198l-647 983h-6v-983zM675 -489h-159l85 335h188z" />
    <glyph glyph-name="ncommaaccent" unicode="&#x146;" horiz-adv-x="1172" 
d="M141 0v1057h218v-148h8q33 64 111 114t196 50q167 0 269 -103t102 -291v-679h-221v634q0 122 -63 184t-167 62q-112 0 -172 -70t-60 -180v-630h-221zM579 -489h-159l85 335h188z" />
    <glyph glyph-name="Ncaron" unicode="&#x147;" horiz-adv-x="1372" 
d="M367 0h-214v1365h200l645 -980h7v980h213v-1365h-198l-647 983h-6v-983zM394 1795h172l116 -165h6l116 165h172l-221 -287h-140z" />
    <glyph glyph-name="ncaron" unicode="&#x148;" horiz-adv-x="1172" 
d="M141 0v1057h218v-148h8q33 64 111 114t196 50q167 0 269 -103t102 -291v-679h-221v634q0 122 -63 184t-167 62q-112 0 -172 -70t-60 -180v-630h-221zM297 1493h174l116 -178h4l117 178h173l-220 -305h-143z" />
    <glyph glyph-name="Omacron" unicode="&#x14c;" horiz-adv-x="1334" 
d="M328 772v-189q0 -204 93.5 -310.5t245.5 -106.5t245 106t93 311v189q0 205 -93.5 315.5t-244.5 110.5t-245 -110.5t-94 -315.5zM99 583v187q0 290 153.5 456t415.5 166q263 0 415 -166t152 -456v-187q0 -287 -152.5 -448.5t-416.5 -161.5t-415.5 161t-151.5 449z
M947 1516h-560v121h560v-121z" />
    <glyph glyph-name="omacron" unicode="&#x14d;" horiz-adv-x="1137" 
d="M569 1075q222 0 345.5 -139.5t123.5 -362.5v-85q0 -229 -122.5 -367.5t-346.5 -138.5t-347.5 138.5t-123.5 367.5v85q0 222 124.5 362t346.5 140zM569 897q-120 0 -183.5 -89t-63.5 -238v-81q0 -148 63.5 -238t183.5 -90t183 90t63 238v81q0 150 -63 238.5t-183 88.5z
M853 1234h-566v135h566v-135z" />
    <glyph glyph-name="Obreve" unicode="&#x14e;" horiz-adv-x="1334" 
d="M328 772v-189q0 -204 93.5 -310.5t245.5 -106.5t245 106t93 311v189q0 205 -93.5 315.5t-244.5 110.5t-245 -110.5t-94 -315.5zM99 583v187q0 290 153.5 456t415.5 166q263 0 415 -166t152 -456v-187q0 -287 -152.5 -448.5t-416.5 -161.5t-415.5 161t-151.5 449z
M370 1761h133q0 -66 41 -108.5t121 -42.5t120.5 42.5t40.5 108.5h132q0 -111 -75.5 -192t-217.5 -81t-218.5 81t-76.5 192z" />
    <glyph glyph-name="obreve" unicode="&#x14f;" horiz-adv-x="1137" 
d="M569 1075q222 0 345.5 -139.5t123.5 -362.5v-85q0 -229 -122.5 -367.5t-346.5 -138.5t-347.5 138.5t-123.5 367.5v85q0 222 124.5 362t346.5 140zM569 897q-120 0 -183.5 -89t-63.5 -238v-81q0 -148 63.5 -238t183.5 -90t183 90t63 238v81q0 150 -63 238.5t-183 88.5z
M269 1471h138q0 -68 41.5 -115t121.5 -47t121.5 47t41.5 115h136q0 -53 -18.5 -103t-54 -92t-94 -67t-132.5 -25t-133.5 25t-95 67t-54 92t-18.5 103z" />
    <glyph glyph-name="Ohungarumlaut" unicode="&#x150;" horiz-adv-x="1334" 
d="M328 772v-189q0 -204 93.5 -310.5t245.5 -106.5t245 106t93 311v189q0 205 -93.5 315.5t-244.5 110.5t-245 -110.5t-94 -315.5zM99 583v187q0 290 153.5 456t415.5 166q263 0 415 -166t152 -456v-187q0 -287 -152.5 -448.5t-416.5 -161.5t-415.5 161t-151.5 449z
M402 1509l210 264h203l-255 -264h-158zM725 1509l210 264h203l-255 -264h-158z" />
    <glyph glyph-name="ohungarumlaut" unicode="&#x151;" horiz-adv-x="1137" 
d="M569 1075q222 0 345.5 -139.5t123.5 -362.5v-85q0 -229 -122.5 -367.5t-346.5 -138.5t-347.5 138.5t-123.5 367.5v85q0 222 124.5 362t346.5 140zM569 897q-120 0 -183.5 -89t-63.5 -238v-81q0 -148 63.5 -238t183.5 -90t183 90t63 238v81q0 150 -63 238.5t-183 88.5z
M457 1188h-139l195 282h179zM762 1188h-140l196 282h179z" />
    <glyph glyph-name="OE" unicode="&#x152;" horiz-adv-x="1960" 
d="M333 772v-190q0 -204 93 -310t245 -106q154 0 247.5 101.5t93.5 304.5v216q0 203 -93.5 306.5t-247.5 103.5q-151 0 -244.5 -110.5t-93.5 -315.5zM642 -27q-251 0 -397 162.5t-146 448.5v185q0 293 149 458t397 165q120 0 217.5 -42.5t149.5 -124.5h16v140h823v-191h-619
v-389h583v-183h-583v-411h619v-191h-823v144h-15q-54 -81 -152 -126t-219 -45z" />
    <glyph glyph-name="oe" unicode="&#x153;" horiz-adv-x="1806" 
d="M1277 -18q-118 0 -208.5 44t-141.5 121h-14q-54 -77 -148 -121t-209 -44q-209 0 -337 126.5t-128 352.5v137q0 216 131 346.5t343 130.5q109 0 202.5 -42.5t145.5 -124.5h13q47 73 137.5 120t206.5 47q205 0 326 -135.5t121 -360.5v-101h-686v-25q0 -134 67 -215t181 -81
q81 0 138 39t77 108h211q-12 -65 -44 -121.5t-83.5 -102t-129 -72t-171.5 -26.5zM1031 633h469v2q0 115 -64.5 191.5t-169.5 76.5q-104 0 -169 -76t-66 -191v-3zM561 897q-115 0 -181 -86.5t-66 -222.5v-119q0 -137 64.5 -222.5t182.5 -85.5t182 85t64 223v119
q0 137 -65 223t-181 86z" />
    <glyph glyph-name="Racute" unicode="&#x154;" horiz-adv-x="1239" 
d="M675 1365q115 0 204.5 -33.5t144.5 -91.5t83 -133t28 -162q0 -80 -23 -148t-61 -113t-79.5 -74.5t-86.5 -46.5l276 -563h-255l-245 525h-283v-525h-225v1365h522zM378 705h260q127 0 195.5 60t68.5 172q0 118 -70 180t-188 62h-266v-474zM659 1509h-161l195 282h205z" />
    <glyph glyph-name="racute" unicode="&#x155;" horiz-adv-x="734" 
d="M141 0v1057h222v-139h8q25 60 89 107t164 47q44 0 75 -6v-196q-30 8 -95 8q-126 0 -182 -68t-56 -184v-626h-225zM477 1188h-161l195 282h205z" />
    <glyph glyph-name="Rcommaaccent" unicode="&#x156;" horiz-adv-x="1239" 
d="M675 1365q115 0 204.5 -33.5t144.5 -91.5t83 -133t28 -162q0 -80 -23 -148t-61 -113t-79.5 -74.5t-86.5 -46.5l276 -563h-255l-245 525h-283v-525h-225v1365h522zM378 705h260q127 0 195.5 60t68.5 172q0 118 -70 180t-188 62h-266v-474zM579 -489h-159l85 335h188z" />
    <glyph glyph-name="rcommaaccent" unicode="&#x157;" horiz-adv-x="734" 
d="M141 0v1057h222v-139h8q25 60 89 107t164 47q44 0 75 -6v-196q-30 8 -95 8q-126 0 -182 -68t-56 -184v-626h-225zM245 -489h-159l85 335h188z" />
    <glyph glyph-name="Rcaron" unicode="&#x158;" horiz-adv-x="1239" 
d="M675 1365q115 0 204.5 -33.5t144.5 -91.5t83 -133t28 -162q0 -80 -23 -148t-61 -113t-79.5 -74.5t-86.5 -46.5l276 -563h-255l-245 525h-283v-525h-225v1365h522zM378 705h260q127 0 195.5 60t68.5 172q0 118 -70 180t-188 62h-266v-474zM298 1795h172l116 -165h6
l116 165h172l-221 -287h-140z" />
    <glyph glyph-name="rcaron" unicode="&#x159;" horiz-adv-x="734" 
d="M141 0v1057h222v-139h8q25 60 89 107t164 47q44 0 75 -6v-196q-30 8 -95 8q-126 0 -182 -68t-56 -184v-626h-225zM117 1493h174l116 -178h4l117 178h173l-220 -305h-143z" />
    <glyph glyph-name="Sacute" unicode="&#x15a;" horiz-adv-x="1183" 
d="M60 379h222q8 -94 88.5 -156.5t218.5 -62.5q132 0 207 57.5t75 154.5q0 77 -52 122.5t-164 72.5l-224 56q-70 16 -127 44t-105 71.5t-75 108t-27 144.5q0 126 68.5 219.5t179 139t245.5 45.5q207 0 347 -106.5t144 -291.5h-218q-8 93 -78.5 152.5t-197.5 59.5
q-119 0 -190.5 -53.5t-71.5 -147.5q0 -139 189 -182l223 -55q82 -20 144 -48.5t113 -72.5t77.5 -109t26.5 -149q0 -197 -144.5 -308t-381.5 -111q-110 0 -198.5 25t-145 65t-95 94t-55 109t-18.5 113zM659 1509h-161l195 282h205z" />
    <glyph glyph-name="sacute" unicode="&#x15b;" horiz-adv-x="1014" 
d="M102 748q0 83 33.5 147t91 102.5t129.5 58t155 19.5q184 0 287.5 -88.5t103.5 -232.5h-200q-3 30 -14 56t-32.5 49.5t-60 37t-90.5 13.5q-86 0 -138 -37t-52 -103q0 -26 10 -46.5t29.5 -35t40.5 -25.5t53.5 -19t56.5 -13t60 -12q11 -2 17 -3q81 -15 138.5 -34
t108.5 -51.5t77 -85.5t26 -125q0 -159 -117.5 -248.5t-318.5 -89.5q-190 0 -302 83.5t-112 225.5h216q9 -66 64.5 -105t147.5 -39q101 0 153.5 41t52.5 104q0 37 -18 63.5t-55.5 42.5t-73.5 25t-95 21q-15 3 -22 4q-63 13 -111 28t-95 39.5t-77 55.5t-48.5 76t-18.5 101z
M578 1188h-161l195 282h205z" />
    <glyph glyph-name="Scircumflex" unicode="&#x15c;" horiz-adv-x="1183" 
d="M60 379h222q8 -94 88.5 -156.5t218.5 -62.5q132 0 207 57.5t75 154.5q0 77 -52 122.5t-164 72.5l-224 56q-70 16 -127 44t-105 71.5t-75 108t-27 144.5q0 126 68.5 219.5t179 139t245.5 45.5q207 0 347 -106.5t144 -291.5h-218q-8 93 -78.5 152.5t-197.5 59.5
q-119 0 -190.5 -53.5t-71.5 -147.5q0 -139 189 -182l223 -55q82 -20 144 -48.5t113 -72.5t77.5 -109t26.5 -149q0 -197 -144.5 -308t-381.5 -111q-110 0 -198.5 25t-145 65t-95 94t-55 109t-18.5 113zM298 1509l221 287h140l221 -287h-172l-116 165h-6l-116 -165h-172z" />
    <glyph glyph-name="scircumflex" unicode="&#x15d;" horiz-adv-x="1014" 
d="M102 748q0 83 33.5 147t91 102.5t129.5 58t155 19.5q184 0 287.5 -88.5t103.5 -232.5h-200q-3 30 -14 56t-32.5 49.5t-60 37t-90.5 13.5q-86 0 -138 -37t-52 -103q0 -26 10 -46.5t29.5 -35t40.5 -25.5t53.5 -19t56.5 -13t60 -12q11 -2 17 -3q81 -15 138.5 -34
t108.5 -51.5t77 -85.5t26 -125q0 -159 -117.5 -248.5t-318.5 -89.5q-190 0 -302 83.5t-112 225.5h216q9 -66 64.5 -105t147.5 -39q101 0 153.5 41t52.5 104q0 37 -18 63.5t-55.5 42.5t-73.5 25t-95 21q-15 3 -22 4q-63 13 -111 28t-95 39.5t-77 55.5t-48.5 76t-18.5 101z
M218 1188l221 305h143l220 -305h-174l-116 178h-4l-116 -178h-174z" />
    <glyph glyph-name="Scedilla" unicode="&#x15e;" horiz-adv-x="1183" 
d="M589 -469q-80 -3 -148 15v115q47 -14 114 -14q114 0 114 70q0 41 -32 52.5t-101 11.5h-53v90l42 103q-99 5 -179.5 32t-132 67t-86.5 92.5t-50 105t-17 108.5h222q8 -94 88.5 -156.5t218.5 -62.5q132 0 207 57.5t75 154.5q0 77 -52 122.5t-164 72.5l-224 56
q-70 16 -127 44t-105 71.5t-75 108t-27 144.5q0 126 68.5 219.5t179 139t245.5 45.5q207 0 347 -106.5t144 -291.5h-218q-8 93 -78.5 152.5t-197.5 59.5q-119 0 -190.5 -53.5t-71.5 -147.5q0 -139 189 -182l223 -55q82 -20 144 -48.5t113 -72.5t77.5 -109t26.5 -149
q0 -177 -117.5 -284.5t-315.5 -129.5l-38 -91q93 0 145 -42t52 -122q0 -93 -64 -140.5t-171 -51.5z" />
    <glyph glyph-name="scedilla" unicode="&#x15f;" horiz-adv-x="1014" 
d="M504 -464q-85 -4 -149 15v114q47 -14 114 -14q48 0 81 16t33 54q0 22 -10 35.5t-31.5 19.5t-42 7.5t-55.5 1.5h-54v91l41 109q-162 14 -255.5 95.5t-93.5 210.5h216q9 -66 62.5 -105t144.5 -39q104 0 157.5 40.5t53.5 105.5q0 31 -13.5 54t-33.5 37.5t-55 26.5t-66 18.5
t-79 15.5q-11 2 -17 3q-80 17 -137.5 37.5t-108.5 55t-77.5 86.5t-26.5 122q0 83 33.5 147.5t91 102.5t129.5 57t155 19q183 0 287 -89t104 -232h-200q-5 65 -51.5 110.5t-145.5 45.5q-87 0 -138.5 -37t-51.5 -104q0 -38 22.5 -65.5t65 -43.5t80.5 -25t91 -18q5 -1 8 -1
q81 -14 139 -33.5t108.5 -52.5t76.5 -86t26 -125q0 -143 -96.5 -230t-265.5 -103l-35 -94q93 0 148 -42.5t55 -121.5q0 -94 -64 -141.5t-170 -50.5z" />
    <glyph glyph-name="Scaron" unicode="&#x160;" horiz-adv-x="1183" 
d="M60 379h222q8 -94 88.5 -156.5t218.5 -62.5q132 0 207 57.5t75 154.5q0 77 -52 122.5t-164 72.5l-224 56q-70 16 -127 44t-105 71.5t-75 108t-27 144.5q0 126 68.5 219.5t179 139t245.5 45.5q207 0 347 -106.5t144 -291.5h-218q-8 93 -78.5 152.5t-197.5 59.5
q-119 0 -190.5 -53.5t-71.5 -147.5q0 -139 189 -182l223 -55q82 -20 144 -48.5t113 -72.5t77.5 -109t26.5 -149q0 -197 -144.5 -308t-381.5 -111q-110 0 -198.5 25t-145 65t-95 94t-55 109t-18.5 113zM298 1795h172l116 -165h6l116 165h172l-221 -287h-140z" />
    <glyph glyph-name="scaron" unicode="&#x161;" horiz-adv-x="1014" 
d="M102 748q0 83 33.5 147t91 102.5t129.5 58t155 19.5q184 0 287.5 -88.5t103.5 -232.5h-200q-3 30 -14 56t-32.5 49.5t-60 37t-90.5 13.5q-86 0 -138 -37t-52 -103q0 -26 10 -46.5t29.5 -35t40.5 -25.5t53.5 -19t56.5 -13t60 -12q11 -2 17 -3q81 -15 138.5 -34
t108.5 -51.5t77 -85.5t26 -125q0 -159 -117.5 -248.5t-318.5 -89.5q-190 0 -302 83.5t-112 225.5h216q9 -66 64.5 -105t147.5 -39q101 0 153.5 41t52.5 104q0 37 -18 63.5t-55.5 42.5t-73.5 25t-95 21q-15 3 -22 4q-63 13 -111 28t-95 39.5t-77 55.5t-48.5 76t-18.5 101z
M218 1493h174l116 -178h4l117 178h173l-220 -305h-143z" />
    <glyph glyph-name="Tcedilla" unicode="&#x162;" horiz-adv-x="1061" 
d="M537 -484q-86 -4 -148 15v114q47 -14 114 -14q47 0 80 16t33 54q0 22 -10 35.5t-31.5 19.5t-42 7.5t-55.5 1.5h-54v91l55 144h-60v1171h-401v194h1027v-194h-401v-1171h-27l-48 -128q93 0 148 -42.5t55 -121.5q0 -94 -64 -141.5t-170 -50.5z" />
    <glyph glyph-name="tcedilla" unicode="&#x163;" horiz-adv-x="730" 
d="M412 -464q-85 -3 -148 16v114q47 -14 114 -14q114 0 114 70q0 22 -10 35.5t-31.5 19.5t-42.5 7.5t-56 1.5h-53v90l53 145q-76 30 -107.5 96t-31.5 180v582h-146v178h149v257h218v-257h206v-178h-206v-564q0 -85 35.5 -116t126.5 -31q37 0 50 2v-170q-42 -7 -105 -7
q-41 0 -59 2l-39 -102q94 0 148.5 -42.5t54.5 -122.5q0 -94 -64 -141t-170 -51z" />
    <glyph glyph-name="Tcaron" unicode="&#x164;" horiz-adv-x="1061" 
d="M643 0h-225v1171h-401v194h1027v-194h-401v-1171zM238 1795h172l116 -165h6l116 165h172l-221 -287h-140z" />
    <glyph glyph-name="tcaron" unicode="&#x165;" horiz-adv-x="738" 
d="M601 1693h188l-46 -488h-142v488zM216 1057v257h218v-257h206v-178h-206v-564q0 -85 35.5 -116t126.5 -31q37 0 50 2v-170q-42 -7 -105 -7q-128 0 -200 33t-100 97t-28 174v582h-146v178h149z" />
    <glyph glyph-name="Tbar" unicode="&#x166;" horiz-adv-x="1062" 
d="M875 620h-232v-620h-225v620h-230v153h230v398h-400v194h1026v-194h-401v-398h232v-153z" />
    <glyph glyph-name="tbar" unicode="&#x167;" horiz-adv-x="728" 
d="M646 0q-44 -7 -105 -7q-128 0 -200 33t-100 97t-28 174v223h-137v143h137v216h-146v178h149v257h218v-257h206v-178h-206v-216h203v-143h-203v-205q0 -85 35.5 -116t126.5 -31q34 0 50 2v-170z" />
    <glyph glyph-name="Utilde" unicode="&#x168;" horiz-adv-x="1347" 
d="M363 1365v-876q0 -149 84.5 -234.5t226.5 -85.5q141 0 225.5 86t84.5 234v876h226v-907q0 -217 -144.5 -351t-391.5 -134q-248 0 -392 133.5t-144 351.5v907h225zM782 1479q-42 0 -77 17.5t-55 38.5t-43.5 38.5t-43.5 17.5q-53 0 -58 -93h-121q0 85 45.5 145.5
t129.5 60.5q42 0 78.5 -17.5t57 -38.5t44 -38.5t42.5 -17.5q29 0 44 29t18 67h122q0 -83 -49 -146t-134 -63z" />
    <glyph glyph-name="utilde" unicode="&#x169;" horiz-adv-x="1168" 
d="M1027 1057v-1057h-218v147h-10q-29 -69 -107 -116t-198 -47q-168 0 -267.5 95.5t-99.5 274.5v703h222v-642q0 -129 62.5 -184t162.5 -55q103 0 167 63.5t64 178.5v639h222zM692 1181q-45 0 -84 19.5t-61.5 43.5t-49 43.5t-49.5 19.5q-25 0 -40.5 -20.5t-19.5 -41
t-5 -43.5h-135q0 96 51 164t142 68q37 0 69.5 -13t55 -31.5t42 -37t40 -31.5t40.5 -13q34 0 51.5 33t20.5 76h136q0 -93 -55.5 -164.5t-148.5 -71.5z" />
    <glyph glyph-name="Umacron" unicode="&#x16a;" horiz-adv-x="1347" 
d="M363 1365v-876q0 -149 84.5 -234.5t226.5 -85.5q141 0 225.5 86t84.5 234v876h226v-907q0 -217 -144.5 -351t-391.5 -134q-248 0 -392 133.5t-144 351.5v907h225zM953 1516h-560v121h560v-121z" />
    <glyph glyph-name="umacron" unicode="&#x16b;" horiz-adv-x="1168" 
d="M1027 1057v-1057h-218v147h-10q-29 -69 -107 -116t-198 -47q-168 0 -267.5 95.5t-99.5 274.5v703h222v-642q0 -129 62.5 -184t162.5 -55q103 0 167 63.5t64 178.5v639h222zM863 1234h-566v135h566v-135z" />
    <glyph glyph-name="Ubreve" unicode="&#x16c;" horiz-adv-x="1347" 
d="M363 1365v-876q0 -149 84.5 -234.5t226.5 -85.5q141 0 225.5 86t84.5 234v876h226v-907q0 -217 -144.5 -351t-391.5 -134q-248 0 -392 133.5t-144 351.5v907h225zM378 1761h133q0 -66 41 -108.5t121 -42.5t120.5 42.5t40.5 108.5h132q0 -111 -75.5 -192t-217.5 -81
t-218.5 81t-76.5 192z" />
    <glyph glyph-name="ubreve" unicode="&#x16d;" horiz-adv-x="1168" 
d="M1027 1057v-1057h-218v147h-10q-29 -69 -107 -116t-198 -47q-168 0 -267.5 95.5t-99.5 274.5v703h222v-642q0 -129 62.5 -184t162.5 -55q103 0 167 63.5t64 178.5v639h222zM279 1471h138q0 -68 41.5 -115t121.5 -47t121.5 47t41.5 115h136q0 -53 -18.5 -103t-54 -92
t-94 -67t-132.5 -25t-133.5 25t-95 67t-54 92t-18.5 103z" />
    <glyph glyph-name="Uring" unicode="&#x16e;" horiz-adv-x="1347" 
d="M363 1365v-876q0 -149 84.5 -234.5t226.5 -85.5q141 0 225.5 86t84.5 234v876h226v-907q0 -217 -144.5 -351t-391.5 -134q-248 0 -392 133.5t-144 351.5v907h225zM673 1479q-86 0 -144.5 56.5t-58.5 141.5t58.5 141t144.5 56t144.5 -56t58.5 -141t-58.5 -141.5
t-144.5 -56.5zM575 1676q0 -41 28 -69.5t70 -28.5q41 0 69 28.5t28 69.5q0 42 -28 70.5t-69 28.5q-42 0 -70 -28.5t-28 -70.5z" />
    <glyph glyph-name="uring" unicode="&#x16f;" horiz-adv-x="1168" 
d="M1027 1057v-1057h-218v147h-10q-29 -69 -107 -116t-198 -47q-168 0 -267.5 95.5t-99.5 274.5v703h222v-642q0 -129 62.5 -184t162.5 -55q103 0 167 63.5t64 178.5v639h222zM580 1182q-86 0 -144.5 56.5t-58.5 141.5t58.5 141t144.5 56t144.5 -56t58.5 -141t-58.5 -141.5
t-144.5 -56.5zM482 1379q0 -41 28 -69.5t70 -28.5q41 0 69 28.5t28 69.5q0 42 -28 70.5t-69 28.5q-42 0 -70 -28.5t-28 -70.5z" />
    <glyph glyph-name="Uhungarumlaut" unicode="&#x170;" horiz-adv-x="1347" 
d="M363 1365v-876q0 -149 84.5 -234.5t226.5 -85.5q141 0 225.5 86t84.5 234v876h226v-907q0 -217 -144.5 -351t-391.5 -134q-248 0 -392 133.5t-144 351.5v907h225zM410 1509l210 264h203l-255 -264h-158zM733 1509l210 264h203l-255 -264h-158z" />
    <glyph glyph-name="uhungarumlaut" unicode="&#x171;" horiz-adv-x="1168" 
d="M1027 1057v-1057h-218v147h-10q-29 -69 -107 -116t-198 -47q-168 0 -267.5 95.5t-99.5 274.5v703h222v-642q0 -129 62.5 -184t162.5 -55q103 0 167 63.5t64 178.5v639h222zM467 1188h-139l195 282h179zM772 1188h-140l196 282h179z" />
    <glyph glyph-name="Uogonek" unicode="&#x172;" horiz-adv-x="1347" 
d="M973 -388q-102 0 -168.5 52t-66.5 147q0 116 93 193l-4 7q-78 -38 -164 -38q-231 0 -378 139.5t-147 363.5v889h227v-876q0 -149 83.5 -234.5t225.5 -85.5q141 0 225 86t84 234v876h227v-892q0 -228 -151 -386q-15 -16 -52.5 -54t-53.5 -56.5t-31.5 -51t-15.5 -64.5
q0 -51 32.5 -76t85.5 -25q39 0 75 11v-138q-57 -21 -126 -21z" />
    <glyph glyph-name="uogonek" unicode="&#x173;" horiz-adv-x="1168" 
d="M1036 -367q-51 -20 -133 -20q-98 0 -165.5 49.5t-67.5 146.5q0 41 13 76.5t39 64.5t44.5 45t48.5 38v114h-10q-29 -69 -108 -116t-201 -47q-167 0 -268 95.5t-101 274.5v703h222v-642q0 -129 62.5 -184t162.5 -55q103 0 167 63.5t64 178.5v639h222v-1050
q-74 -20 -130 -60t-56 -96q0 -44 32 -67t84 -23q45 0 79 8v-136z" />
    <glyph glyph-name="Wcircumflex" unicode="&#x174;" horiz-adv-x="1713" 
d="M584 0h-207l-367 1365h244l236 -1017h8l254 1017h209l254 -1017h9l234 1017h245l-368 -1365h-206l-269 1003h-7zM566 1509l221 287h140l221 -287h-172l-116 165h-6l-116 -165h-172z" />
    <glyph glyph-name="wcircumflex" unicode="&#x175;" horiz-adv-x="1525" 
d="M1492 1057l-274 -1057h-232l-220 780h-7l-220 -780h-233l-273 1057h224l174 -806h10l217 806h210l218 -806h9l174 806h223zM470 1188l221 305h143l220 -305h-174l-116 178h-4l-116 -178h-174z" />
    <glyph glyph-name="Ycircumflex" unicode="&#x176;" horiz-adv-x="1122" 
d="M674 0h-225v550l-457 815h253l314 -591h8l315 591h249l-457 -811v-554zM270 1509l221 287h140l221 -287h-172l-116 165h-6l-116 -165h-172z" />
    <glyph glyph-name="ycircumflex" unicode="&#x177;" horiz-adv-x="1004" 
d="M1000 1057q-7 -24 -24 -74.5t-39.5 -116.5t-49.5 -144t-55.5 -159.5t-56 -160.5t-52 -149t-43 -123t-29.5 -84l-11 -32l-27 -73q-64 -173 -158.5 -242.5t-251.5 -69.5q-65 0 -117 10v168q28 -5 81 -5q90 0 136.5 33t63.5 111l13 46l-377 1065h246l253 -840h7l256 840h235
zM215 1188l221 305h143l220 -305h-174l-116 178h-4l-116 -178h-174z" />
    <glyph glyph-name="Ydieresis" unicode="&#x178;" horiz-adv-x="1123" 
d="M674 0h-225v550l-457 815h253l314 -591h8l315 591h249l-457 -811v-554zM395 1485q-41 0 -68.5 28.5t-27.5 70.5q0 43 27.5 72t68.5 29q42 0 70 -29t28 -72q0 -42 -28 -70.5t-70 -28.5zM723 1485q-41 0 -68.5 28.5t-27.5 70.5q0 43 27.5 72t68.5 29q42 0 70 -29t28 -72
q0 -42 -28 -70.5t-70 -28.5z" />
    <glyph glyph-name="Zacute" unicode="&#x179;" horiz-adv-x="1163" 
d="M84 0v152l692 1014v8h-671v191h947v-151l-688 -1015v-8h707v-191h-987zM651 1509h-161l195 282h205z" />
    <glyph glyph-name="zacute" unicode="&#x17a;" horiz-adv-x="985" 
d="M94 0v143l534 725v8h-527v181h798v-151l-525 -717v-8h535v-181h-815zM566 1188h-161l195 282h205z" />
    <glyph glyph-name="Zdotaccent" unicode="&#x17b;" horiz-adv-x="1163" 
d="M84 0v152l692 1014v8h-671v191h947v-151l-688 -1015v-8h707v-191h-987zM459 1644q0 50 36 85t86 35t86 -35t36 -85t-36 -85t-86 -35t-86 35t-36 85z" />
    <glyph glyph-name="zdotaccent" unicode="&#x17c;" horiz-adv-x="985" 
d="M94 0v143l534 725v8h-527v181h798v-151l-525 -717v-8h535v-181h-815zM380 1309q0 50 34 84.5t82 34.5q51 0 85.5 -34.5t34.5 -84.5t-34.5 -83.5t-85.5 -33.5q-48 0 -82 34t-34 83z" />
    <glyph glyph-name="Zcaron" unicode="&#x17d;" horiz-adv-x="1163" 
d="M84 0v152l692 1014v8h-671v191h947v-151l-688 -1015v-8h707v-191h-987zM290 1795h172l116 -165h6l116 165h172l-221 -287h-140z" />
    <glyph glyph-name="zcaron" unicode="&#x17e;" horiz-adv-x="985" 
d="M94 0v143l534 725v8h-527v181h798v-151l-525 -717v-8h535v-181h-815zM206 1493h174l116 -178h4l117 178h173l-220 -305h-143z" />
    <glyph glyph-name="uni04D8" unicode="&#x4d8;" horiz-adv-x="1338" 
d="M664 167q146 0 241 95t95 267v11h-671v-6q0 -175 92.5 -271t242.5 -96zM119 944q3 189 150 318.5t379 129.5q268 0 424.5 -164t156.5 -448v-192q0 -283 -149 -449t-413 -166q-261 0 -409.5 161t-148.5 442l3 143h889v65q0 201 -98.5 307.5t-256.5 106.5q-133 0 -218 -72
t-87 -182h-222z" />
    <glyph glyph-name="uni04D8" unicode="&#x18f;" horiz-adv-x="1338" 
d="M664 167q146 0 241 95t95 267v11h-671v-6q0 -175 92.5 -271t242.5 -96zM119 944q3 189 150 318.5t379 129.5q268 0 424.5 -164t156.5 -448v-192q0 -283 -149 -449t-413 -166q-261 0 -409.5 161t-148.5 442l3 143h889v65q0 201 -98.5 307.5t-256.5 106.5q-133 0 -218 -72
t-87 -182h-222z" />
    <glyph glyph-name="florin" unicode="&#x192;" horiz-adv-x="1171" 
d="M1072 1374v-171q-43 14 -135 14q-170 0 -194 -178l-25 -189h280v-160h-300l-51 -388q-21 -163 -121 -246.5t-274 -83.5q-97 0 -153 19v170q47 -14 136 -14q171 0 193 178l48 365h-254v160h274l28 212q22 163 122 246.5t273 83.5q100 0 153 -18z" />
    <glyph glyph-name="Ohorn" unicode="&#x1a0;" horiz-adv-x="1348" 
d="M1233 583q0 -288 -152.5 -449t-416.5 -161t-414.5 161t-150.5 449v187q0 290 152.5 456t415.5 166q82 0 157.5 -21t137.5 -41.5t111 -20.5q79 0 107.5 38.5t28.5 110.5v105h185v-120q0 -135 -67.5 -209t-192.5 -74l-4 -5q43 -64 73 -169t30 -216v-187zM328 772v-190
q0 -204 93 -310t245 -106t245 106t93 310v190q0 205 -93.5 315.5t-244.5 110.5t-244.5 -110.5t-93.5 -315.5z" />
    <glyph glyph-name="ohorn" unicode="&#x1a1;" horiz-adv-x="1194" 
d="M570 -18q-220 0 -345.5 133.5t-125.5 365.5v95q0 222 125 360.5t346 138.5q69 0 149 -20.5t123 -20.5q69 0 96 35t27 106v157h185v-164q0 -255 -202 -275v-9q37 -52 63.5 -135.5t26.5 -172.5v-94q0 -232 -124.5 -366t-343.5 -134zM570 897q-123 0 -185.5 -94t-62.5 -237
v-77q0 -68 14.5 -126t43.5 -104t77.5 -72t112.5 -26t112 26t76.5 72t42.5 104t14 126v77q0 68 -14.5 126.5t-43 105t-76.5 73t-111 26.5z" />
    <glyph glyph-name="Uhorn" unicode="&#x1af;" horiz-adv-x="1426" 
d="M674 -27q-242 0 -389 138.5t-147 365.5v888h227v-875q0 -149 83.5 -234.5t225.5 -85.5q141 0 225 86t84 234v875h228q68 0 95.5 36t27.5 105v112h183v-127q0 -126 -65 -205t-191 -79h-51v-733q0 -226 -147 -363.5t-389 -137.5z" />
    <glyph glyph-name="uhorn" unicode="&#x1b0;" horiz-adv-x="1296" 
d="M799 147q-29 -69 -107 -116t-198 -47q-168 0 -267.5 95.5t-99.5 274.5v703h222v-642q0 -129 62.5 -184t162.5 -55q103 0 167 63.5t64 178.5v639h198q68 0 93 35t25 106v134h184v-150q0 -126 -64.5 -204t-192.5 -78h-21v-900h-218v147h-10z" />
    <glyph glyph-name="uni01C4" unicode="&#x1c4;" horiz-adv-x="2560" 
d="M153 1365h471q302 0 454 -173.5t152 -506.5t-152.5 -509t-453.5 -176h-471v1365zM380 1174v-983h220q196 0 296 117.5t100 373.5q0 492 -396 492h-220zM1395 0v152l692 1014v8h-671v191h947v-151l-688 -1015v-8h707v-191h-987zM1601 1795h172l116 -165h6l116 165h172
l-221 -287h-140z" />
    <glyph glyph-name="uni01C5" unicode="&#x1c5;" horiz-adv-x="2389" 
d="M153 1365h471q302 0 454 -173.5t152 -506.5t-152.5 -509t-453.5 -176h-471v1365zM380 1174v-983h220q196 0 296 117.5t100 373.5q0 492 -396 492h-220zM1405 0v143l534 725v8h-527v181h798v-151l-525 -717v-8h535v-181h-815zM1517 1493h174l116 -178h4l117 178h173
l-220 -305h-143z" />
    <glyph glyph-name="uni01C6" unicode="&#x1c6;" horiz-adv-x="2254" 
d="M512 1071q103 0 182.5 -45.5t118.5 -119.5h8v531h222v-1437h-216v161h-8q-41 -82 -121.5 -128.5t-185.5 -46.5q-197 0 -305 134t-108 363v92q0 224 110.5 360t302.5 136zM568 888q-109 0 -176 -82.5t-67 -238.5v-78q0 -156 67 -238.5t178 -82.5q118 0 185.5 83.5
t67.5 236.5v79q0 148 -68.5 234.5t-186.5 86.5zM1282 0v143l534 725v8h-527v181h798v-151l-525 -717v-8h535v-181h-815zM1394 1493h174l116 -178h4l117 178h173l-220 -305h-143z" />
    <glyph glyph-name="uni01C7" unicode="&#x1c7;" horiz-adv-x="2098" 
d="M982 197v-197h-829v1365h227v-1168h602zM1104 355h219q3 -82 54 -131t143 -49q104 0 154 62.5t50 189.5v938h227v-940q0 -219 -112.5 -335.5t-317.5 -116.5q-193 0 -305 108.5t-112 273.5z" />
    <glyph glyph-name="uni01C8" unicode="&#x1c8;" horiz-adv-x="1589" 
d="M982 197v-197h-829v1365h227v-1168h602zM1196 1315q0 54 38.5 90t93.5 36t93 -36t38 -90t-38 -89.5t-93 -35.5t-93.5 35.5t-38.5 89.5zM1438 1057v-1081q0 -177 -84 -262t-236 -85q-67 0 -105 9v165q21 -4 62 -4q75 0 108.5 42.5t33.5 137.5v1078h221z" />
    <glyph glyph-name="uni01C9" unicode="&#x1c9;" horiz-adv-x="1044" 
d="M148 0v1437h222v-1437h-222zM650 1315q0 54 38.5 90t93.5 36t93 -36t38 -90t-38 -89.5t-93 -35.5t-93.5 35.5t-38.5 89.5zM892 1057v-1081q0 -177 -84 -262t-236 -85q-67 0 -105 9v165q21 -4 62 -4q75 0 108.5 42.5t33.5 137.5v1078h221z" />
    <glyph glyph-name="uni01CA" unicode="&#x1ca;" horiz-adv-x="2390" 
d="M367 0h-214v1365h200l645 -980h7v980h213v-1365h-198l-647 983h-6v-983zM1397 355h219q3 -82 54 -131t143 -49q104 0 154 62.5t50 189.5v938h227v-940q0 -219 -112.5 -335.5t-317.5 -116.5q-193 0 -305 108.5t-112 273.5z" />
    <glyph glyph-name="uni01CB" unicode="&#x1cb;" horiz-adv-x="1895" 
d="M367 0h-214v1365h200l645 -980h7v980h213v-1365h-198l-647 983h-6v-983zM1502 1315q0 54 38.5 90t93.5 36t93 -36t38 -90t-38 -89.5t-93 -35.5t-93.5 35.5t-38.5 89.5zM1744 1057v-1081q0 -177 -84 -262t-236 -85q-67 0 -105 9v165q21 -4 62 -4q75 0 108.5 42.5
t33.5 137.5v1078h221z" />
    <glyph glyph-name="uni01CC" unicode="&#x1cc;" horiz-adv-x="1701" 
d="M141 0v1057h218v-148h8q33 64 111 114t196 50q167 0 269 -103t102 -291v-679h-221v634q0 122 -63 184t-167 62q-112 0 -172 -70t-60 -180v-630h-221zM1308 1315q0 54 38.5 90t93.5 36t93 -36t38 -90t-38 -89.5t-93 -35.5t-93.5 35.5t-38.5 89.5zM1550 1057v-1081
q0 -177 -84 -262t-236 -85q-67 0 -105 9v165q21 -4 62 -4q75 0 108.5 42.5t33.5 137.5v1078h221z" />
    <glyph glyph-name="Acaron" unicode="&#x1cd;" horiz-adv-x="1233" 
d="M251 0h-231l470 1365h254l469 -1365h-240l-121 378h-479zM618 1129h-9l-185 -577h377zM326 1795h172l116 -165h6l116 165h172l-221 -287h-140z" />
    <glyph glyph-name="acaron" unicode="&#x1ce;" horiz-adv-x="1076" 
d="M725 130q-83 -146 -295 -146q-155 0 -250.5 87t-95.5 233q0 143 96.5 225t276.5 82h268v101q0 90 -51.5 139t-144.5 49q-89 0 -140.5 -42.5t-57.5 -114.5h-208q7 146 109 238t302 92q184 0 297 -91t113 -262v-720h-211v130h-8zM497 153q98 0 163 55t65 140v117h-230
q-94 0 -141 -40t-47 -109q0 -78 55.5 -120.5t134.5 -42.5zM247 1493h174l116 -178h4l117 178h173l-220 -305h-143z" />
    <glyph glyph-name="Icaron" unicode="&#x1cf;" horiz-adv-x="533" 
d="M380 0h-227v1365h227v-1365zM-26 1795h172l116 -165h6l116 165h172l-221 -287h-140z" />
    <glyph glyph-name="icaron" unicode="&#x1d0;" horiz-adv-x="524" 
d="M151 0v1057h222v-1057h-222zM-34 1493h174l116 -178h4l117 178h173l-220 -305h-143z" />
    <glyph glyph-name="Ocaron" unicode="&#x1d1;" horiz-adv-x="1334" 
d="M328 772v-189q0 -204 93.5 -310.5t245.5 -106.5t245 106t93 311v189q0 205 -93.5 315.5t-244.5 110.5t-245 -110.5t-94 -315.5zM99 583v187q0 290 153.5 456t415.5 166q263 0 415 -166t152 -456v-187q0 -287 -152.5 -448.5t-416.5 -161.5t-415.5 161t-151.5 449z
M375 1795h172l116 -165h6l116 165h172l-221 -287h-140z" />
    <glyph glyph-name="ocaron" unicode="&#x1d2;" horiz-adv-x="1137" 
d="M569 1075q222 0 345.5 -139.5t123.5 -362.5v-85q0 -229 -122.5 -367.5t-346.5 -138.5t-347.5 138.5t-123.5 367.5v85q0 222 124.5 362t346.5 140zM569 897q-120 0 -183.5 -89t-63.5 -238v-81q0 -148 63.5 -238t183.5 -90t183 90t63 238v81q0 150 -63 238.5t-183 88.5z
M278 1493h174l116 -178h4l117 178h173l-220 -305h-143z" />
    <glyph glyph-name="Ucaron" unicode="&#x1d3;" horiz-adv-x="1347" 
d="M363 1365v-876q0 -149 84.5 -234.5t226.5 -85.5q141 0 225.5 86t84.5 234v876h226v-907q0 -217 -144.5 -351t-391.5 -134q-248 0 -392 133.5t-144 351.5v907h225zM382 1795h172l116 -165h6l116 165h172l-221 -287h-140z" />
    <glyph glyph-name="ucaron" unicode="&#x1d4;" horiz-adv-x="1168" 
d="M1027 1057v-1057h-218v147h-10q-29 -69 -107 -116t-198 -47q-168 0 -267.5 95.5t-99.5 274.5v703h222v-642q0 -129 62.5 -184t162.5 -55q103 0 167 63.5t64 178.5v639h222zM288 1493h174l116 -178h4l117 178h173l-220 -305h-143z" />
    <glyph glyph-name="Udieresismacron" unicode="&#x1d5;" horiz-adv-x="1347" 
d="M363 1365v-876q0 -149 84.5 -234.5t226.5 -85.5q141 0 225.5 86t84.5 234v876h226v-907q0 -217 -144.5 -351t-391.5 -134q-248 0 -392 133.5t-144 351.5v907h225zM508 1485q-41 0 -68.5 28.5t-27.5 70.5q0 43 27.5 72t68.5 29q42 0 70 -29t28 -72q0 -42 -28 -70.5
t-70 -28.5zM836 1485q-41 0 -68.5 28.5t-27.5 70.5q0 43 27.5 72t68.5 29q42 0 70 -29t28 -72q0 -42 -28 -70.5t-70 -28.5zM953 1790h-560v121h560v-121z" />
    <glyph glyph-name="udieresismacron" unicode="&#x1d6;" horiz-adv-x="1168" 
d="M1027 1057v-1057h-218v147h-10q-29 -69 -107 -116t-198 -47q-168 0 -267.5 95.5t-99.5 274.5v703h222v-642q0 -129 62.5 -184t162.5 -55q103 0 167 63.5t64 178.5v639h222zM406 1197q-44 0 -73.5 30t-29.5 74q0 46 29.5 76.5t73.5 30.5q45 0 74.5 -30.5t29.5 -76.5
q0 -44 -29.5 -74t-74.5 -30zM770 1197q-43 0 -72.5 30t-29.5 74q0 46 29 76.5t73 30.5q46 0 76 -30.5t30 -76.5q0 -44 -30 -74t-76 -30zM863 1547h-566v135h566v-135z" />
    <glyph glyph-name="Udieresisacute" unicode="&#x1d7;" horiz-adv-x="1347" 
d="M363 1365v-876q0 -149 84.5 -234.5t226.5 -85.5q141 0 225.5 86t84.5 234v876h226v-907q0 -217 -144.5 -351t-391.5 -134q-248 0 -392 133.5t-144 351.5v907h225zM575 1740l228 194h215l-269 -194h-174zM508 1485q-41 0 -68.5 28.5t-27.5 70.5q0 43 27.5 72t68.5 29
q42 0 70 -29t28 -72q0 -42 -28 -70.5t-70 -28.5zM836 1485q-41 0 -68.5 28.5t-27.5 70.5q0 43 27.5 72t68.5 29q42 0 70 -29t28 -72q0 -42 -28 -70.5t-70 -28.5z" />
    <glyph glyph-name="udieresisacute" unicode="&#x1d8;" horiz-adv-x="1168" 
d="M1027 1057v-1057h-218v147h-10q-29 -69 -107 -116t-198 -47q-168 0 -267.5 95.5t-99.5 274.5v703h222v-642q0 -129 62.5 -184t162.5 -55q103 0 167 63.5t64 178.5v639h222zM406 1197q-44 0 -73.5 30t-29.5 74q0 46 29.5 76.5t73.5 30.5q45 0 74.5 -30.5t29.5 -76.5
q0 -44 -29.5 -74t-74.5 -30zM770 1197q-43 0 -72.5 30t-29.5 74q0 46 29 76.5t73 30.5q46 0 76 -30.5t30 -76.5q0 -44 -30 -74t-76 -30zM652 1509h-161l195 282h205z" />
    <glyph glyph-name="Udieresiscaron" unicode="&#x1d9;" horiz-adv-x="1347" 
d="M363 1365v-876q0 -149 84.5 -234.5t226.5 -85.5q141 0 225.5 86t84.5 234v876h226v-907q0 -217 -144.5 -351t-391.5 -134q-248 0 -392 133.5t-144 351.5v907h225zM333 1927h196l142 -108h4l142 108h196l-277 -202h-126zM508 1485q-41 0 -68.5 28.5t-27.5 70.5
q0 43 27.5 72t68.5 29q42 0 70 -29t28 -72q0 -42 -28 -70.5t-70 -28.5zM836 1485q-41 0 -68.5 28.5t-27.5 70.5q0 43 27.5 72t68.5 29q42 0 70 -29t28 -72q0 -42 -28 -70.5t-70 -28.5z" />
    <glyph glyph-name="udieresiscaron" unicode="&#x1da;" horiz-adv-x="1168" 
d="M1027 1057v-1057h-218v147h-10q-29 -69 -107 -116t-198 -47q-168 0 -267.5 95.5t-99.5 274.5v703h222v-642q0 -129 62.5 -184t162.5 -55q103 0 167 63.5t64 178.5v639h222zM406 1197q-44 0 -73.5 30t-29.5 74q0 46 29.5 76.5t73.5 30.5q45 0 74.5 -30.5t29.5 -76.5
q0 -44 -29.5 -74t-74.5 -30zM770 1197q-43 0 -72.5 30t-29.5 74q0 46 29 76.5t73 30.5q46 0 76 -30.5t30 -76.5q0 -44 -30 -74t-76 -30zM288 1798h174l116 -178h4l117 178h173l-220 -305h-143z" />
    <glyph glyph-name="Udieresisgrave" unicode="&#x1db;" horiz-adv-x="1347" 
d="M363 1365v-876q0 -149 84.5 -234.5t226.5 -85.5q141 0 225.5 86t84.5 234v876h226v-907q0 -217 -144.5 -351t-391.5 -134q-248 0 -392 133.5t-144 351.5v907h225zM771 1740h-174l-269 194h215zM508 1485q-41 0 -68.5 28.5t-27.5 70.5q0 43 27.5 72t68.5 29q42 0 70 -29
t28 -72q0 -42 -28 -70.5t-70 -28.5zM836 1485q-41 0 -68.5 28.5t-27.5 70.5q0 43 27.5 72t68.5 29q42 0 70 -29t28 -72q0 -42 -28 -70.5t-70 -28.5z" />
    <glyph glyph-name="udieresisgrave" unicode="&#x1dc;" horiz-adv-x="1168" 
d="M1027 1057v-1057h-218v147h-10q-29 -69 -107 -116t-198 -47q-168 0 -267.5 95.5t-99.5 274.5v703h222v-642q0 -129 62.5 -184t162.5 -55q103 0 167 63.5t64 178.5v639h222zM406 1197q-44 0 -73.5 30t-29.5 74q0 46 29.5 76.5t73.5 30.5q45 0 74.5 -30.5t29.5 -76.5
q0 -44 -29.5 -74t-74.5 -30zM770 1197q-43 0 -72.5 30t-29.5 74q0 46 29 76.5t73 30.5q46 0 76 -30.5t30 -76.5q0 -44 -30 -74t-76 -30zM673 1509h-161l-239 282h206z" />
    <glyph glyph-name="uni04D9" unicode="&#x4d9;" horiz-adv-x="1122" 
d="M549 1075q216 0 340.5 -126.5t124.5 -348.5v-143q0 -220 -127.5 -347.5t-326.5 -127.5q-201 0 -326.5 129t-125.5 346v124h687v52q0 116 -65.5 190t-179.5 74q-85 0 -142.5 -34.5t-70.5 -86.5h-217q6 52 36 103t81.5 96t133 72.5t178.5 27.5zM795 436h-470v-14
q0 -120 64.5 -192.5t170.5 -72.5q105 0 170 72.5t65 192.5v14z" />
    <glyph glyph-name="uni04D9" unicode="&#x259;" horiz-adv-x="1122" 
d="M549 1075q216 0 340.5 -126.5t124.5 -348.5v-143q0 -220 -127.5 -347.5t-326.5 -127.5q-201 0 -326.5 129t-125.5 346v124h687v52q0 116 -65.5 190t-179.5 74q-85 0 -142.5 -34.5t-70.5 -86.5h-217q6 52 36 103t81.5 96t133 72.5t178.5 27.5zM795 436h-470v-14
q0 -120 64.5 -192.5t170.5 -72.5q105 0 170 72.5t65 192.5v14z" />
    <glyph glyph-name="uni04D9" unicode="&#x1dd;" horiz-adv-x="1122" 
d="M549 1075q216 0 340.5 -126.5t124.5 -348.5v-143q0 -220 -127.5 -347.5t-326.5 -127.5q-201 0 -326.5 129t-125.5 346v124h687v52q0 116 -65.5 190t-179.5 74q-85 0 -142.5 -34.5t-70.5 -86.5h-217q6 52 36 103t81.5 96t133 72.5t178.5 27.5zM795 436h-470v-14
q0 -120 64.5 -192.5t170.5 -72.5q105 0 170 72.5t65 192.5v14z" />
    <glyph glyph-name="Adieresismacron" unicode="&#x1de;" horiz-adv-x="1233" 
d="M251 0h-231l470 1365h254l469 -1365h-240l-121 378h-479zM618 1129h-9l-185 -577h377zM452 1485q-41 0 -68.5 28.5t-27.5 70.5q0 43 27.5 72t68.5 29q42 0 70 -29t28 -72q0 -42 -28 -70.5t-70 -28.5zM780 1485q-41 0 -68.5 28.5t-27.5 70.5q0 43 27.5 72t68.5 29
q42 0 70 -29t28 -72q0 -42 -28 -70.5t-70 -28.5zM897 1790h-560v121h560v-121z" />
    <glyph glyph-name="adieresismacron" unicode="&#x1df;" horiz-adv-x="1076" 
d="M725 130q-83 -146 -295 -146q-155 0 -250.5 87t-95.5 233q0 143 96.5 225t276.5 82h268v101q0 90 -51.5 139t-144.5 49q-89 0 -140.5 -42.5t-57.5 -114.5h-208q7 146 109 238t302 92q184 0 297 -91t113 -262v-720h-211v130h-8zM497 153q98 0 163 55t65 140v117h-230
q-94 0 -141 -40t-47 -109q0 -78 55.5 -120.5t134.5 -42.5zM365 1197q-44 0 -73.5 30t-29.5 74q0 46 29.5 76.5t73.5 30.5q45 0 74.5 -30.5t29.5 -76.5q0 -44 -29.5 -74t-74.5 -30zM729 1197q-43 0 -72.5 30t-29.5 74q0 46 29 76.5t73 30.5q46 0 76 -30.5t30 -76.5
q0 -44 -30 -74t-76 -30zM822 1547h-566v135h566v-135z" />
    <glyph glyph-name="Adotmacron" unicode="&#x1e0;" horiz-adv-x="1233" 
d="M251 0h-231l470 1365h254l469 -1365h-240l-121 378h-479zM618 1129h-9l-185 -577h377zM503 1578q0 47 33.5 80t80.5 33t80.5 -33t33.5 -80t-33.5 -80t-80.5 -33t-80.5 33t-33.5 80zM897 1790h-560v121h560v-121z" />
    <glyph glyph-name="adotmacron" unicode="&#x1e1;" horiz-adv-x="1076" 
d="M725 130q-83 -146 -295 -146q-155 0 -250.5 87t-95.5 233q0 143 96.5 225t276.5 82h268v101q0 90 -51.5 139t-144.5 49q-89 0 -140.5 -42.5t-57.5 -114.5h-208q7 146 109 238t302 92q184 0 297 -91t113 -262v-720h-211v130h-8zM497 153q98 0 163 55t65 140v117h-230
q-94 0 -141 -40t-47 -109q0 -78 55.5 -120.5t134.5 -42.5zM420 1301q0 50 34 84.5t82 34.5q51 0 85.5 -34.5t34.5 -84.5t-34.5 -83.5t-85.5 -33.5q-48 0 -82 34t-34 83zM822 1547h-566v135h566v-135z" />
    <glyph glyph-name="AEmacron" unicode="&#x1e2;" horiz-adv-x="1873" 
d="M849 1174l-302 -606h372v606h-70zM919 388h-457l-199 -388h-252l703 1365h1050v-191h-620v-389h584v-183h-584v-411h620v-191h-845v388zM1623 1516h-560v121h560v-121z" />
    <glyph glyph-name="aemacron" unicode="&#x1e3;" horiz-adv-x="1735" 
d="M1202 -18q-265 0 -379 197h-5q-121 -197 -371 -197q-167 0 -265 87t-98 235t97 234.5t276 86.5h268v87q0 90 -51.5 139t-144.5 49q-89 0 -140.5 -42.5t-57.5 -114.5h-208q3 70 28.5 128t74 104.5t127.5 72.5t181 26q107 0 193.5 -37t135.5 -102h5q110 139 320 139
q218 0 335 -136.5t117 -365.5v-94h-686v-31q0 -122 63.5 -204.5t183.5 -82.5q93 0 145.5 41.5t65.5 102.5h216q-6 -44 -23 -87t-51 -86t-80.5 -75.5t-117 -53t-154.5 -20.5zM954 633h469v2q0 118 -63 191.5t-171 73.5t-171.5 -74t-63.5 -191v-2zM497 153q98 0 163 55t65 140
v125h-224q-98 0 -146 -41.5t-48 -115.5q0 -78 55.5 -120.5t134.5 -42.5zM1144 1234h-566v135h566v-135z" />
    <glyph glyph-name="Gcaron" unicode="&#x1e6;" horiz-adv-x="1290" 
d="M1188 938h-222q-14 120 -94.5 190t-210.5 70q-159 0 -247 -108.5t-88 -303.5v-189q0 -204 86 -317t256 -113q137 0 221.5 76.5t84.5 194.5v107h-314v179h531v-276q0 -98 -37 -184.5t-103.5 -151t-166.5 -102t-219 -37.5q-278 0 -422 165t-144 458v191q0 280 149 442.5
t414 162.5q232 0 373.5 -127.5t152.5 -326.5zM368 1795h172l116 -165h6l116 165h172l-221 -287h-140z" />
    <glyph glyph-name="gcaron" unicode="&#x1e7;" horiz-adv-x="1184" 
d="M572 -216q115 0 181.5 64t66.5 178v153h-8q-32 -72 -113 -119.5t-187 -47.5q-187 0 -299.5 129t-112.5 364v76q0 232 112.5 361t299.5 129q105 0 187 -47t117 -120h8v153h217v-1041q0 -102 -39.5 -181t-107 -126.5t-150 -71.5t-174.5 -24q-206 0 -318.5 87t-128.5 228
h220q14 -62 75.5 -103t153.5 -41zM577 890q-119 0 -185 -83t-66 -237v-63q0 -151 66 -235.5t185 -84.5q114 0 178.5 84.5t64.5 235.5v63q0 148 -66 234t-177 86zM299 1493h174l116 -178h4l117 178h173l-220 -305h-143z" />
    <glyph glyph-name="Kcaron" unicode="&#x1e8;" horiz-adv-x="1225" 
d="M1197 1365l-496 -585l520 -780h-278l-410 627l-153 -170v-457h-227v1365h227v-633h10l552 633h255zM303 1795h172l116 -165h6l116 165h172l-221 -287h-140z" />
    <glyph glyph-name="kcaron" unicode="&#x1e9;" horiz-adv-x="1030" 
d="M365 371v-371h-222v1437h222v-829h9l380 449h263l-400 -458l426 -599h-265l-328 467zM-40 1867h172l116 -165h6l116 165h172l-221 -287h-140z" />
    <glyph glyph-name="Oogonek" unicode="&#x1ea;" horiz-adv-x="1334" 
d="M328 772v-189q0 -205 93 -311t245 -106q153 0 246 106t93 311v189q0 205 -93.5 315.5t-245.5 110.5q-151 0 -244.5 -110.5t-93.5 -315.5zM641 -26q-241 0 -391.5 164.5t-150.5 444.5v187q0 290 153 456t416 166t415 -166t152 -456v-187q0 -92 -15 -169.5t-43.5 -136.5
t-56.5 -99t-66 -83q-18 -20 -56 -59.5t-54.5 -59t-32 -51t-15.5 -62.5q0 -51 32.5 -75.5t86.5 -24.5q41 0 74 9l-1 -140q-66 -20 -126 -19q-103 0 -169 51.5t-66 145.5q-2 114 99 196l-6 11q-77 -43 -179 -43z" />
    <glyph glyph-name="oogonek" unicode="&#x1eb;" horiz-adv-x="1137" 
d="M569 897q-120 0 -183.5 -89t-63.5 -238v-81q0 -148 63.5 -238t183.5 -90t183 90t63 238v81q0 150 -63 238.5t-183 88.5zM657 17q-62 -32 -132 -32q-183 0 -305 142t-122 361v85q0 222 124.5 362t346.5 140t345.5 -139.5t123.5 -362.5v-85q0 -252 -175 -416
q-46 -43 -69.5 -68t-43.5 -62.5t-20 -74.5q0 -50 33 -78t87 -28q37 0 73 9v-138q-53 -19 -125 -19q-98 0 -167.5 49t-69.5 147q0 117 104 197z" />
    <glyph glyph-name="Oogonekmacron" unicode="&#x1ec;" horiz-adv-x="1332" 
d="M328 772v-189q0 -205 93 -311t245 -106q153 0 246 106t93 311v189q0 205 -93.5 315.5t-245.5 110.5q-151 0 -244.5 -110.5t-93.5 -315.5zM641 -26q-241 0 -391.5 164.5t-150.5 444.5v187q0 290 153 456t416 166t415 -166t152 -456v-187q0 -92 -15 -169.5t-43.5 -136.5
t-56.5 -99t-66 -83q-18 -20 -56 -59.5t-54.5 -59t-32 -51t-15.5 -62.5q0 -51 32.5 -75.5t86.5 -24.5q41 0 74 9l-1 -140q-66 -20 -126 -19q-103 0 -169 51.5t-66 145.5q-2 114 99 196l-6 11q-77 -43 -179 -43zM945 1516h-560v121h560v-121z" />
    <glyph glyph-name="oogonekmacron" unicode="&#x1ed;" horiz-adv-x="1137" 
d="M569 897q-120 0 -183.5 -89t-63.5 -238v-81q0 -148 63.5 -238t183.5 -90t183 90t63 238v81q0 150 -63 238.5t-183 88.5zM657 17q-62 -32 -132 -32q-183 0 -305 142t-122 361v85q0 222 124.5 362t346.5 140t345.5 -139.5t123.5 -362.5v-85q0 -252 -175 -416
q-46 -43 -69.5 -68t-43.5 -62.5t-20 -74.5q0 -50 33 -78t87 -28q37 0 73 9v-138q-53 -19 -125 -19q-98 0 -167.5 49t-69.5 147q0 117 104 197zM852 1234h-566v135h566v-135z" />
    <glyph glyph-name="uni01F1" unicode="&#x1f1;" horiz-adv-x="2474" 
d="M153 1365h471q302 0 454 -173.5t152 -506.5t-152.5 -509t-453.5 -176h-471v1365zM380 1174v-983h220q196 0 296 117.5t100 373.5q0 492 -396 492h-220zM1395 0v152l692 1014v8h-671v191h947v-151l-688 -1015v-8h707v-191h-987z" />
    <glyph glyph-name="uni01F2" unicode="&#x1f2;" horiz-adv-x="2389" 
d="M153 1365h471q302 0 454 -173.5t152 -506.5t-152.5 -509t-453.5 -176h-471v1365zM380 1174v-983h220q196 0 296 117.5t100 373.5q0 492 -396 492h-220zM1405 0v143l534 725v8h-527v181h798v-151l-525 -717v-8h535v-181h-815z" />
    <glyph glyph-name="uni01F3" unicode="&#x1f3;" horiz-adv-x="2254" 
d="M512 1071q103 0 182.5 -45.5t118.5 -119.5h8v531h222v-1437h-216v161h-8q-41 -82 -121.5 -128.5t-185.5 -46.5q-197 0 -305 134t-108 363v92q0 224 110.5 360t302.5 136zM568 888q-109 0 -176 -82.5t-67 -238.5v-78q0 -156 67 -238.5t178 -82.5q118 0 185.5 83.5
t67.5 236.5v79q0 148 -68.5 234.5t-186.5 86.5zM1282 0v143l534 725v8h-527v181h798v-151l-525 -717v-8h535v-181h-815z" />
    <glyph glyph-name="Gacute" unicode="&#x1f4;" horiz-adv-x="1290" 
d="M1188 938h-222q-14 120 -94.5 190t-210.5 70q-159 0 -247 -108.5t-88 -303.5v-189q0 -204 86 -317t256 -113q137 0 221.5 76.5t84.5 194.5v107h-314v179h531v-276q0 -98 -37 -184.5t-103.5 -151t-166.5 -102t-219 -37.5q-278 0 -422 165t-144 458v191q0 280 149 442.5
t414 162.5q232 0 373.5 -127.5t152.5 -326.5zM729 1509h-161l195 282h205z" />
    <glyph glyph-name="gacute" unicode="&#x1f5;" horiz-adv-x="1184" 
d="M572 -216q115 0 181.5 64t66.5 178v153h-8q-32 -72 -113 -119.5t-187 -47.5q-187 0 -299.5 129t-112.5 364v76q0 232 112.5 361t299.5 129q105 0 187 -47t117 -120h8v153h217v-1041q0 -102 -39.5 -181t-107 -126.5t-150 -71.5t-174.5 -24q-206 0 -318.5 87t-128.5 228
h220q14 -62 75.5 -103t153.5 -41zM577 890q-119 0 -185 -83t-66 -237v-63q0 -151 66 -235.5t185 -84.5q114 0 178.5 84.5t64.5 235.5v63q0 148 -66 234t-177 86zM659 1188h-161l195 282h205z" />
    <glyph glyph-name="Ngrave" unicode="&#x1f8;" horiz-adv-x="1372" 
d="M367 0h-214v1365h200l645 -980h7v980h213v-1365h-198l-647 983h-6v-983zM776 1509h-161l-239 282h205z" />
    <glyph glyph-name="ngrave" unicode="&#x1f9;" horiz-adv-x="1172" 
d="M141 0v1057h218v-148h8q33 64 111 114t196 50q167 0 269 -103t102 -291v-679h-221v634q0 122 -63 184t-167 62q-112 0 -172 -70t-60 -180v-630h-221zM682 1188h-161l-239 282h206z" />
    <glyph glyph-name="Aringacute" unicode="&#x1fa;" horiz-adv-x="1233" 
d="M251 0h-231l470 1365h254l469 -1365h-240l-121 378h-479zM618 1129h-9l-185 -577h377zM526 1810l97 134h220l-137 -134h-180zM617 1421q-75 0 -126.5 49.5t-51.5 124.5q0 74 51.5 123.5t126.5 49.5t127 -49.5t52 -123.5q0 -75 -51.5 -124.5t-127.5 -49.5zM534 1595
q0 -35 24 -60t59 -25q36 0 59.5 24.5t23.5 60.5t-23.5 60t-59.5 24q-35 0 -59 -24t-24 -60z" />
    <glyph glyph-name="aringacute" unicode="&#x1fb;" horiz-adv-x="1076" 
d="M725 130q-83 -146 -295 -146q-155 0 -250.5 87t-95.5 233q0 143 96.5 225t276.5 82h268v101q0 90 -51.5 139t-144.5 49q-89 0 -140.5 -42.5t-57.5 -114.5h-208q7 146 109 238t302 92q184 0 297 -91t113 -262v-720h-211v130h-8zM497 153q98 0 163 55t65 140v117h-230
q-94 0 -141 -40t-47 -109q0 -78 55.5 -120.5t134.5 -42.5zM629 1633h-165l136 189h208zM537 1182q-86 0 -144.5 56.5t-58.5 141.5t58.5 141t144.5 56t144.5 -56t58.5 -141t-58.5 -141.5t-144.5 -56.5zM439 1379q0 -41 28 -69.5t70 -28.5q41 0 69 28.5t28 69.5q0 42 -28 70.5
t-69 28.5q-42 0 -70 -28.5t-28 -70.5z" />
    <glyph glyph-name="AEacute" unicode="&#x1fc;" horiz-adv-x="1873" 
d="M849 1174l-302 -606h372v606h-70zM919 388h-457l-199 -388h-252l703 1365h1050v-191h-620v-389h584v-183h-584v-411h620v-191h-845v388zM1413 1509h-161l195 282h205z" />
    <glyph glyph-name="aeacute" unicode="&#x1fd;" horiz-adv-x="1735" 
d="M1202 -18q-265 0 -379 197h-5q-121 -197 -371 -197q-167 0 -265 87t-98 235t97 234.5t276 86.5h268v87q0 90 -51.5 139t-144.5 49q-89 0 -140.5 -42.5t-57.5 -114.5h-208q3 70 28.5 128t74 104.5t127.5 72.5t181 26q107 0 193.5 -37t135.5 -102h5q110 139 320 139
q218 0 335 -136.5t117 -365.5v-94h-686v-31q0 -122 63.5 -204.5t183.5 -82.5q93 0 145.5 41.5t65.5 102.5h216q-6 -44 -23 -87t-51 -86t-80.5 -75.5t-117 -53t-154.5 -20.5zM954 633h469v2q0 118 -63 191.5t-171 73.5t-171.5 -74t-63.5 -191v-2zM497 153q98 0 163 55t65 140
v125h-224q-98 0 -146 -41.5t-48 -115.5q0 -78 55.5 -120.5t134.5 -42.5zM929 1188h-161l195 282h205z" />
    <glyph glyph-name="Oslashacute" unicode="&#x1fe;" horiz-adv-x="1332" 
d="M664 -27q-234 0 -379 131l-99 -123l-111 90l115 143q-91 150 -91 369v187q0 290 152.5 456t415.5 166q228 0 372 -129l94 116l114 -83l-113 -140q99 -154 99 -386v-187q0 -288 -152.5 -449t-416.5 -161zM324 581q0 -97 25 -172l556 689q-92 103 -240 103
q-153 0 -247 -111.5t-94 -317.5v-191zM665 162q154 0 248 106.5t94 312.5v191q0 109 -31 188l-558 -692q91 -106 247 -106zM735 1509h-161l195 282h205z" />
    <glyph glyph-name="oslashacute" unicode="&#x1ff;" horiz-adv-x="1137" 
d="M406 225q63 -65 163 -65q122 0 185.5 90t63.5 239v83q0 98 -33 164zM319 489q0 -87 27 -154l376 507q-60 58 -153 58q-122 0 -186 -89t-64 -239v-83zM569 -18q-170 0 -284 82l-104 -136l-101 78l114 150q-96 131 -96 332v85q0 222 124.5 362t346.5 140q160 0 272 -76
l96 127l102 -81l-104 -135q103 -132 103 -337v-85q0 -229 -122.5 -367.5t-346.5 -138.5zM637 1188h-161l195 282h205z" />
    <glyph glyph-name="Adblgrave" unicode="&#x200;" horiz-adv-x="1233" 
d="M251 0h-231l470 1365h254l469 -1365h-240l-121 378h-479zM618 1129h-9l-185 -577h377zM557 1509h-158l-255 264h203zM880 1509h-158l-255 264h203z" />
    <glyph glyph-name="adblgrave" unicode="&#x201;" horiz-adv-x="1076" 
d="M725 130q-83 -146 -295 -146q-155 0 -250.5 87t-95.5 233q0 143 96.5 225t276.5 82h268v101q0 90 -51.5 139t-144.5 49q-89 0 -140.5 -42.5t-57.5 -114.5h-208q7 146 109 238t302 92q184 0 297 -91t113 -262v-720h-211v130h-8zM497 153q98 0 163 55t65 140v117h-230
q-94 0 -141 -40t-47 -109q0 -78 55.5 -120.5t134.5 -42.5zM326 1188l-233 283h179l194 -283h-140zM631 1188l-234 283h179l194 -283h-139z" />
    <glyph glyph-name="Ainvertedbreve" unicode="&#x202;" horiz-adv-x="1233" 
d="M251 0h-231l470 1365h254l469 -1365h-240l-121 378h-479zM618 1129h-9l-185 -577h377zM617 1660q-80 0 -121 -43t-41 -108h-133q0 111 76.5 192t218.5 81t217.5 -81t75.5 -192h-132q0 65 -40.5 108t-120.5 43z" />
    <glyph glyph-name="ainvertedbreve" unicode="&#x203;" horiz-adv-x="1076" 
d="M725 130q-83 -146 -295 -146q-155 0 -250.5 87t-95.5 233q0 143 96.5 225t276.5 82h268v101q0 90 -51.5 139t-144.5 49q-89 0 -140.5 -42.5t-57.5 -114.5h-208q7 146 109 238t302 92q184 0 297 -91t113 -262v-720h-211v130h-8zM497 153q98 0 163 55t65 140v117h-230
q-94 0 -141 -40t-47 -109q0 -78 55.5 -120.5t134.5 -42.5zM235 1210q-1 116 78.5 203.5t225.5 87.5q75 0 134.5 -25.5t95 -68t54.5 -93t19 -104.5h-138q0 69 -42 116.5t-123 47.5t-123 -47.5t-42 -116.5h-139z" />
    <glyph glyph-name="Edblgrave" unicode="&#x204;" horiz-adv-x="1114" 
d="M1005 191v-191h-852v1365h852v-191h-626v-389h590v-183h-590v-411h626zM514 1509h-158l-255 264h203zM837 1509h-158l-255 264h203z" />
    <glyph glyph-name="edblgrave" unicode="&#x205;" horiz-adv-x="1099" 
d="M561 -18q-213 0 -338 133.5t-125 366.5v107q0 222 123 354t331 132q210 0 331 -135t121 -361v-101h-687v-25q0 -134 67 -215t180 -81q84 0 140 39t77 108h211q-26 -139 -136 -230.5t-295 -91.5zM317 633h470v2q0 115 -65 191.5t-169 76.5q-105 0 -170.5 -76.5
t-65.5 -191.5v-2zM338 1188l-233 283h179l194 -283h-140zM643 1188l-234 283h179l194 -283h-139z" />
    <glyph glyph-name="Einvertedbreve" unicode="&#x206;" horiz-adv-x="1114" 
d="M1005 191v-191h-852v1365h852v-191h-626v-389h590v-183h-590v-411h626zM573 1660q-80 0 -121 -43t-41 -108h-133q0 111 76.5 192t218.5 81t217.5 -81t75.5 -192h-132q0 65 -40.5 108t-120.5 43z" />
    <glyph glyph-name="einvertedbreve" unicode="&#x207;" horiz-adv-x="1099" 
d="M561 -18q-213 0 -338 133.5t-125 366.5v107q0 222 123 354t331 132q210 0 331 -135t121 -361v-101h-687v-25q0 -134 67 -215t180 -81q84 0 140 39t77 108h211q-26 -139 -136 -230.5t-295 -91.5zM317 633h470v2q0 115 -65 191.5t-169 76.5q-105 0 -170.5 -76.5
t-65.5 -191.5v-2zM247 1210q-1 116 78.5 203.5t225.5 87.5q75 0 134.5 -25.5t95 -68t54.5 -93t19 -104.5h-138q0 69 -42 116.5t-123 47.5t-123 -47.5t-42 -116.5h-139z" />
    <glyph glyph-name="Idblgrave" unicode="&#x208;" horiz-adv-x="534" 
d="M380 0h-227v1365h227v-1365zM208 1509h-158l-255 264h203zM531 1509h-158l-255 264h203z" />
    <glyph glyph-name="idblgrave" unicode="&#x209;" horiz-adv-x="524" 
d="M151 0v1057h222v-1057h-222zM45 1188l-233 283h179l194 -283h-140zM350 1188l-234 283h179l194 -283h-139z" />
    <glyph glyph-name="Iinvertedbreve" unicode="&#x20a;" horiz-adv-x="534" 
d="M380 0h-227v1365h227v-1365zM267 1660q-80 0 -121 -43t-41 -108h-133q0 111 76.5 192t218.5 81t217.5 -81t75.5 -192h-132q0 65 -40.5 108t-120.5 43z" />
    <glyph glyph-name="iinvertedbreve" unicode="&#x20b;" horiz-adv-x="524" 
d="M151 0v1057h222v-1057h-222zM-46 1210q-1 116 78.5 203.5t225.5 87.5q75 0 134.5 -25.5t95 -68t54.5 -93t19 -104.5h-138q0 69 -42 116.5t-123 47.5t-123 -47.5t-42 -116.5h-139z" />
    <glyph glyph-name="Odblgrave" unicode="&#x20c;" horiz-adv-x="1334" 
d="M328 772v-189q0 -204 93.5 -310.5t245.5 -106.5t245 106t93 311v189q0 205 -93.5 315.5t-244.5 110.5t-245 -110.5t-94 -315.5zM99 583v187q0 290 153.5 456t415.5 166q263 0 415 -166t152 -456v-187q0 -287 -152.5 -448.5t-416.5 -161.5t-415.5 161t-151.5 449z
M606 1509h-158l-255 264h203zM929 1509h-158l-255 264h203z" />
    <glyph glyph-name="odblgrave" unicode="&#x20d;" horiz-adv-x="1137" 
d="M569 1075q222 0 345.5 -139.5t123.5 -362.5v-85q0 -229 -122.5 -367.5t-346.5 -138.5t-347.5 138.5t-123.5 367.5v85q0 222 124.5 362t346.5 140zM569 897q-120 0 -183.5 -89t-63.5 -238v-81q0 -148 63.5 -238t183.5 -90t183 90t63 238v81q0 150 -63 238.5t-183 88.5z
M357 1188l-233 283h179l194 -283h-140zM662 1188l-234 283h179l194 -283h-139z" />
    <glyph glyph-name="Oinvertedbreve" unicode="&#x20e;" horiz-adv-x="1334" 
d="M328 772v-189q0 -204 93.5 -310.5t245.5 -106.5t245 106t93 311v189q0 205 -93.5 315.5t-244.5 110.5t-245 -110.5t-94 -315.5zM99 583v187q0 290 153.5 456t415.5 166q263 0 415 -166t152 -456v-187q0 -287 -152.5 -448.5t-416.5 -161.5t-415.5 161t-151.5 449z
M665 1660q-80 0 -121 -43t-41 -108h-133q0 111 76.5 192t218.5 81t217.5 -81t75.5 -192h-132q0 65 -40.5 108t-120.5 43z" />
    <glyph glyph-name="oinvertedbreve" unicode="&#x20f;" horiz-adv-x="1137" 
d="M569 1075q222 0 345.5 -139.5t123.5 -362.5v-85q0 -229 -122.5 -367.5t-346.5 -138.5t-347.5 138.5t-123.5 367.5v85q0 222 124.5 362t346.5 140zM569 897q-120 0 -183.5 -89t-63.5 -238v-81q0 -148 63.5 -238t183.5 -90t183 90t63 238v81q0 150 -63 238.5t-183 88.5z
M266 1210q-1 116 78.5 203.5t225.5 87.5q75 0 134.5 -25.5t95 -68t54.5 -93t19 -104.5h-138q0 69 -42 116.5t-123 47.5t-123 -47.5t-42 -116.5h-139z" />
    <glyph glyph-name="Rdblgrave" unicode="&#x210;" horiz-adv-x="1239" 
d="M675 1365q115 0 204.5 -33.5t144.5 -91.5t83 -133t28 -162q0 -80 -23 -148t-61 -113t-79.5 -74.5t-86.5 -46.5l276 -563h-255l-245 525h-283v-525h-225v1365h522zM378 705h260q127 0 195.5 60t68.5 172q0 118 -70 180t-188 62h-266v-474zM530 1509h-158l-255 264h203z
M853 1509h-158l-255 264h203z" />
    <glyph glyph-name="rdblgrave" unicode="&#x211;" horiz-adv-x="734" 
d="M141 0v1057h222v-139h8q25 60 89 107t164 47q44 0 75 -6v-196q-30 8 -95 8q-126 0 -182 -68t-56 -184v-626h-225zM196 1188l-233 283h179l194 -283h-140zM501 1188l-234 283h179l194 -283h-139z" />
    <glyph glyph-name="Rinvertedbreve" unicode="&#x212;" horiz-adv-x="1239" 
d="M675 1365q115 0 204.5 -33.5t144.5 -91.5t83 -133t28 -162q0 -80 -23 -148t-61 -113t-79.5 -74.5t-86.5 -46.5l276 -563h-255l-245 525h-283v-525h-225v1365h522zM378 705h260q127 0 195.5 60t68.5 172q0 118 -70 180t-188 62h-266v-474zM589 1660q-80 0 -121 -43
t-41 -108h-133q0 111 76.5 192t218.5 81t217.5 -81t75.5 -192h-132q0 65 -40.5 108t-120.5 43z" />
    <glyph glyph-name="rinvertedbreve" unicode="&#x213;" horiz-adv-x="734" 
d="M141 0v1057h222v-139h8q25 60 89 107t164 47q44 0 75 -6v-196q-30 8 -95 8q-126 0 -182 -68t-56 -184v-626h-225zM105 1210q-1 116 78.5 203.5t225.5 87.5q75 0 134.5 -25.5t95 -68t54.5 -93t19 -104.5h-138q0 69 -42 116.5t-123 47.5t-123 -47.5t-42 -116.5h-139z" />
    <glyph glyph-name="Udblgrave" unicode="&#x214;" horiz-adv-x="1347" 
d="M363 1365v-876q0 -149 84.5 -234.5t226.5 -85.5q141 0 225.5 86t84.5 234v876h226v-907q0 -217 -144.5 -351t-391.5 -134q-248 0 -392 133.5t-144 351.5v907h225zM614 1509h-158l-255 264h203zM937 1509h-158l-255 264h203z" />
    <glyph glyph-name="udblgrave" unicode="&#x215;" horiz-adv-x="1168" 
d="M1027 1057v-1057h-218v147h-10q-29 -69 -107 -116t-198 -47q-168 0 -267.5 95.5t-99.5 274.5v703h222v-642q0 -129 62.5 -184t162.5 -55q103 0 167 63.5t64 178.5v639h222zM367 1188l-233 283h179l194 -283h-140zM672 1188l-234 283h179l194 -283h-139z" />
    <glyph glyph-name="Uinvertedbreve" unicode="&#x216;" horiz-adv-x="1347" 
d="M363 1365v-876q0 -149 84.5 -234.5t226.5 -85.5q141 0 225.5 86t84.5 234v876h226v-907q0 -217 -144.5 -351t-391.5 -134q-248 0 -392 133.5t-144 351.5v907h225zM673 1660q-80 0 -121 -43t-41 -108h-133q0 111 76.5 192t218.5 81t217.5 -81t75.5 -192h-132
q0 65 -40.5 108t-120.5 43z" />
    <glyph glyph-name="uinvertedbreve" unicode="&#x217;" horiz-adv-x="1168" 
d="M1027 1057v-1057h-218v147h-10q-29 -69 -107 -116t-198 -47q-168 0 -267.5 95.5t-99.5 274.5v703h222v-642q0 -129 62.5 -184t162.5 -55q103 0 167 63.5t64 178.5v639h222zM276 1210q-1 116 78.5 203.5t225.5 87.5q75 0 134.5 -25.5t95 -68t54.5 -93t19 -104.5h-138
q0 69 -42 116.5t-123 47.5t-123 -47.5t-42 -116.5h-139z" />
    <glyph glyph-name="Scommaaccent" unicode="&#x218;" horiz-adv-x="1183" 
d="M60 379h222q8 -94 88.5 -156.5t218.5 -62.5q132 0 207 57.5t75 154.5q0 77 -52 122.5t-164 72.5l-224 56q-70 16 -127 44t-105 71.5t-75 108t-27 144.5q0 126 68.5 219.5t179 139t245.5 45.5q207 0 347 -106.5t144 -291.5h-218q-8 93 -78.5 152.5t-197.5 59.5
q-119 0 -190.5 -53.5t-71.5 -147.5q0 -139 189 -182l223 -55q82 -20 144 -48.5t113 -72.5t77.5 -109t26.5 -149q0 -197 -144.5 -308t-381.5 -111q-110 0 -198.5 25t-145 65t-95 94t-55 109t-18.5 113zM561 -489h-159l85 335h188z" />
    <glyph glyph-name="scommaaccent" unicode="&#x219;" horiz-adv-x="1014" 
d="M102 748q0 83 33.5 147t91 102.5t129.5 58t155 19.5q184 0 287.5 -88.5t103.5 -232.5h-200q-3 30 -14 56t-32.5 49.5t-60 37t-90.5 13.5q-86 0 -138 -37t-52 -103q0 -26 10 -46.5t29.5 -35t40.5 -25.5t53.5 -19t56.5 -13t60 -12q11 -2 17 -3q81 -15 138.5 -34
t108.5 -51.5t77 -85.5t26 -125q0 -159 -117.5 -248.5t-318.5 -89.5q-190 0 -302 83.5t-112 225.5h216q9 -66 64.5 -105t147.5 -39q101 0 153.5 41t52.5 104q0 37 -18 63.5t-55.5 42.5t-73.5 25t-95 21q-15 3 -22 4q-63 13 -111 28t-95 39.5t-77 55.5t-48.5 76t-18.5 101z
M500 -489h-159l85 335h188z" />
    <glyph glyph-name="Tcommaaccent" unicode="&#x21a;" horiz-adv-x="1061" 
d="M643 0h-225v1171h-401v194h1027v-194h-401v-1171zM520 -489h-159l85 335h188z" />
    <glyph glyph-name="tcommaaccent" unicode="&#x21b;" horiz-adv-x="728" 
d="M216 1057v257h218v-257h206v-178h-206v-564q0 -85 35.5 -116t126.5 -31q37 0 50 2v-170q-42 -7 -105 -7q-128 0 -200 33t-100 97t-28 174v582h-146v178h149zM427 -489h-159l85 335h188z" />
    <glyph glyph-name="Hcaron" unicode="&#x21e;" horiz-adv-x="1386" 
d="M1232 0h-227v605h-625v-605h-227v1365h227v-567h625v567h227v-1365zM401 1795h172l116 -165h6l116 165h172l-221 -287h-140z" />
    <glyph glyph-name="hcaron" unicode="&#x21f;" horiz-adv-x="1176" 
d="M144 0v1437h222v-528h8q33 65 110.5 114.5t194.5 49.5q166 0 268.5 -103t102.5 -291v-679h-221v634q0 122 -63 184t-167 62q-113 0 -173 -70t-60 -180v-630h-222zM-39 1867h172l116 -165h6l116 165h172l-221 -287h-140z" />
    <glyph glyph-name="Adotaccent" unicode="&#x226;" horiz-adv-x="1233" 
d="M251 0h-231l470 1365h254l469 -1365h-240l-121 378h-479zM618 1129h-9l-185 -577h377zM495 1644q0 50 36 85t86 35t86 -35t36 -85t-36 -85t-86 -35t-86 35t-36 85z" />
    <glyph glyph-name="adotaccent" unicode="&#x227;" horiz-adv-x="1076" 
d="M725 130q-83 -146 -295 -146q-155 0 -250.5 87t-95.5 233q0 143 96.5 225t276.5 82h268v101q0 90 -51.5 139t-144.5 49q-89 0 -140.5 -42.5t-57.5 -114.5h-208q7 146 109 238t302 92q184 0 297 -91t113 -262v-720h-211v130h-8zM497 153q98 0 163 55t65 140v117h-230
q-94 0 -141 -40t-47 -109q0 -78 55.5 -120.5t134.5 -42.5zM421 1309q0 50 34 84.5t82 34.5q51 0 85.5 -34.5t34.5 -84.5t-34.5 -83.5t-85.5 -33.5q-48 0 -82 34t-34 83z" />
    <glyph glyph-name="Ecedilla" unicode="&#x228;" horiz-adv-x="1114" 
d="M574 -470q-87 -3 -148 16v114q47 -14 113 -14q114 0 114 70q0 22 -10 35.5t-31.5 19.5t-42 7.5t-55.5 1.5h-54v90l49 130h-356v1365h852v-191h-626v-389h590v-183h-590v-411h626v-191h-357l-43 -113q94 0 148.5 -43t54.5 -122q0 -94 -64 -141t-170 -51z" />
    <glyph glyph-name="ecedilla" unicode="&#x229;" horiz-adv-x="1099" 
d="M317 633h470v2q0 115 -65 191.5t-169 76.5q-105 0 -170.5 -76.5t-65.5 -191.5v-2zM561 -484q-85 -4 -149 15v114q47 -14 114 -14q48 0 81 16t33 54q0 22 -10 35.5t-31.5 19.5t-42 7.5t-55.5 1.5h-54v91l49 129q-186 20 -292 151t-106 346v107q0 222 123 354t331 132
q210 0 331 -135t121 -361v-101h-687v-25q0 -134 67 -215t180 -81q84 0 140 39t77 108h211q-23 -124 -114.5 -211.5t-242.5 -105.5l-43 -115q93 0 148 -42.5t55 -121.5q0 -94 -64 -141.5t-170 -50.5z" />
    <glyph glyph-name="Odieresismacron" unicode="&#x22a;" horiz-adv-x="1334" 
d="M328 772v-189q0 -204 93.5 -310.5t245.5 -106.5t245 106t93 311v189q0 205 -93.5 315.5t-244.5 110.5t-245 -110.5t-94 -315.5zM99 583v187q0 290 153.5 456t415.5 166q263 0 415 -166t152 -456v-187q0 -287 -152.5 -448.5t-416.5 -161.5t-415.5 161t-151.5 449z
M500 1485q-41 0 -68.5 28.5t-27.5 70.5q0 43 27.5 72t68.5 29q42 0 70 -29t28 -72q0 -42 -28 -70.5t-70 -28.5zM828 1485q-41 0 -68.5 28.5t-27.5 70.5q0 43 27.5 72t68.5 29q42 0 70 -29t28 -72q0 -42 -28 -70.5t-70 -28.5zM945 1790h-560v121h560v-121z" />
    <glyph glyph-name="odieresismacron" unicode="&#x22b;" horiz-adv-x="1137" 
d="M569 1075q222 0 345.5 -139.5t123.5 -362.5v-85q0 -229 -122.5 -367.5t-346.5 -138.5t-347.5 138.5t-123.5 367.5v85q0 222 124.5 362t346.5 140zM569 897q-120 0 -183.5 -89t-63.5 -238v-81q0 -148 63.5 -238t183.5 -90t183 90t63 238v81q0 150 -63 238.5t-183 88.5z
M396 1197q-44 0 -73.5 30t-29.5 74q0 46 29.5 76.5t73.5 30.5q45 0 74.5 -30.5t29.5 -76.5q0 -44 -29.5 -74t-74.5 -30zM760 1197q-43 0 -72.5 30t-29.5 74q0 46 29 76.5t73 30.5q46 0 76 -30.5t30 -76.5q0 -44 -30 -74t-76 -30zM853 1547h-566v135h566v-135z" />
    <glyph glyph-name="Otildemacron" unicode="&#x22c;" horiz-adv-x="1334" 
d="M328 772v-189q0 -204 93.5 -310.5t245.5 -106.5t245 106t93 311v189q0 205 -93.5 315.5t-244.5 110.5t-245 -110.5t-94 -315.5zM99 583v187q0 290 153.5 456t415.5 166q263 0 415 -166t152 -456v-187q0 -287 -152.5 -448.5t-416.5 -161.5t-415.5 161t-151.5 449z
M774 1479q-42 0 -77 17.5t-55 38.5t-43.5 38.5t-43.5 17.5q-53 0 -58 -93h-121q0 85 45.5 145.5t129.5 60.5q42 0 78.5 -17.5t57 -38.5t44 -38.5t42.5 -17.5q29 0 44 29t18 67h122q0 -83 -49 -146t-134 -63zM945 1790h-560v121h560v-121z" />
    <glyph glyph-name="otildemacron" unicode="&#x22d;" horiz-adv-x="1137" 
d="M569 1075q222 0 345.5 -139.5t123.5 -362.5v-85q0 -229 -122.5 -367.5t-346.5 -138.5t-347.5 138.5t-123.5 367.5v85q0 222 124.5 362t346.5 140zM569 897q-120 0 -183.5 -89t-63.5 -238v-81q0 -148 63.5 -238t183.5 -90t183 90t63 238v81q0 150 -63 238.5t-183 88.5z
M682 1181q-45 0 -84 19.5t-61.5 43.5t-49 43.5t-49.5 19.5q-25 0 -40.5 -20.5t-19.5 -41t-5 -43.5h-135q0 96 51 164t142 68q37 0 69.5 -13t55 -31.5t42 -37t40 -31.5t40.5 -13q34 0 51.5 33t20.5 76h136q0 -93 -55.5 -164.5t-148.5 -71.5zM853 1547h-566v135h566v-135z" />
    <glyph glyph-name="Odotaccent" unicode="&#x22e;" horiz-adv-x="1334" 
d="M328 772v-189q0 -204 93.5 -310.5t245.5 -106.5t245 106t93 311v189q0 205 -93.5 315.5t-244.5 110.5t-245 -110.5t-94 -315.5zM99 583v187q0 290 153.5 456t415.5 166q263 0 415 -166t152 -456v-187q0 -287 -152.5 -448.5t-416.5 -161.5t-415.5 161t-151.5 449z
M543 1644q0 50 36 85t86 35t86 -35t36 -85t-36 -85t-86 -35t-86 35t-36 85z" />
    <glyph glyph-name="odotaccent" unicode="&#x22f;" horiz-adv-x="1137" 
d="M569 1075q222 0 345.5 -139.5t123.5 -362.5v-85q0 -229 -122.5 -367.5t-346.5 -138.5t-347.5 138.5t-123.5 367.5v85q0 222 124.5 362t346.5 140zM569 897q-120 0 -183.5 -89t-63.5 -238v-81q0 -148 63.5 -238t183.5 -90t183 90t63 238v81q0 150 -63 238.5t-183 88.5z
M452 1309q0 50 34 84.5t82 34.5q51 0 85.5 -34.5t34.5 -84.5t-34.5 -83.5t-85.5 -33.5q-48 0 -82 34t-34 83z" />
    <glyph glyph-name="Odotaccentmacron" unicode="&#x230;" horiz-adv-x="1334" 
d="M328 772v-189q0 -204 93.5 -310.5t245.5 -106.5t245 106t93 311v189q0 205 -93.5 315.5t-244.5 110.5t-245 -110.5t-94 -315.5zM99 583v187q0 290 153.5 456t415.5 166q263 0 415 -166t152 -456v-187q0 -287 -152.5 -448.5t-416.5 -161.5t-415.5 161t-151.5 449z
M551 1578q0 47 33.5 80t80.5 33t80.5 -33t33.5 -80t-33.5 -80t-80.5 -33t-80.5 33t-33.5 80zM945 1790h-560v121h560v-121z" />
    <glyph glyph-name="odotaccentmacron" unicode="&#x231;" horiz-adv-x="1137" 
d="M569 1075q222 0 345.5 -139.5t123.5 -362.5v-85q0 -229 -122.5 -367.5t-346.5 -138.5t-347.5 138.5t-123.5 367.5v85q0 222 124.5 362t346.5 140zM569 897q-120 0 -183.5 -89t-63.5 -238v-81q0 -148 63.5 -238t183.5 -90t183 90t63 238v81q0 150 -63 238.5t-183 88.5z
M451 1301q0 50 34 84.5t82 34.5q51 0 85.5 -34.5t34.5 -84.5t-34.5 -83.5t-85.5 -33.5q-48 0 -82 34t-34 83zM853 1547h-566v135h566v-135z" />
    <glyph glyph-name="Ymacron" unicode="&#x232;" horiz-adv-x="1123" 
d="M674 0h-225v550l-457 815h253l314 -591h8l315 591h249l-457 -811v-554zM841 1516h-560v121h560v-121z" />
    <glyph glyph-name="ymacron" unicode="&#x233;" horiz-adv-x="1004" 
d="M1000 1057q-7 -24 -24 -74.5t-39.5 -116.5t-49.5 -144t-55.5 -159.5t-56 -160.5t-52 -149t-43 -123t-29.5 -84l-11 -32l-27 -73q-64 -173 -158.5 -242.5t-251.5 -69.5q-65 0 -117 10v168q28 -5 81 -5q90 0 136.5 33t63.5 111l13 46l-377 1065h246l253 -840h7l256 840h235
zM790 1234h-566v135h566v-135z" />
    <glyph glyph-name="dotlessj" unicode="&#x237;" horiz-adv-x="524" 
d="M372 1057v-1081q0 -177 -84 -262t-236 -85q-67 0 -105 9v165q21 -4 62 -4q75 0 108.5 42.5t33.5 137.5v1078h221z" />
    <glyph glyph-name="quoteright" unicode="&#x2019;" horiz-adv-x="490" 
d="M255 900h-169l100 465h218z" />
    <glyph glyph-name="quoteright" unicode="&#x2bc;" horiz-adv-x="490" 
d="M255 900h-169l100 465h218z" />
    <glyph glyph-name="circumflex" unicode="&#x2c6;" horiz-adv-x="945" 
d="M180 1188l221 305h143l220 -305h-174l-116 178h-4l-116 -178h-174z" />
    <glyph glyph-name="caron" unicode="&#x2c7;" horiz-adv-x="946" 
d="M176 1493h174l116 -178h4l117 178h173l-220 -305h-143z" />
    <glyph glyph-name="breve" unicode="&#x2d8;" horiz-adv-x="946" 
d="M168 1471h138q0 -68 41.5 -115t121.5 -47t121.5 47t41.5 115h136q0 -53 -18.5 -103t-54 -92t-94 -67t-132.5 -25t-133.5 25t-95 67t-54 92t-18.5 103z" />
    <glyph glyph-name="dotaccent" unicode="&#x2d9;" horiz-adv-x="944" 
d="M354 1328q0 50 34 84.5t82 34.5q51 0 85.5 -34.5t34.5 -84.5t-34.5 -83.5t-85.5 -33.5q-48 0 -82 34t-34 83z" />
    <glyph glyph-name="ring" unicode="&#x2da;" horiz-adv-x="944" 
d="M483 1182q-86 0 -144.5 56.5t-58.5 141.5t58.5 141t144.5 56t144.5 -56t58.5 -141t-58.5 -141.5t-144.5 -56.5zM385 1379q0 -41 28 -69.5t70 -28.5q41 0 69 28.5t28 69.5q0 42 -28 70.5t-69 28.5q-42 0 -70 -28.5t-28 -70.5z" />
    <glyph glyph-name="ogonek" unicode="&#x2db;" horiz-adv-x="946" 
d="M656 -229v-136q-51 -23 -139 -23q-97 0 -158.5 49.5t-61.5 140.5q0 38 12 74.5t35.5 70.5t42.5 57.5t49 54.5t39 42h135q-28 -29 -47 -51t-45 -57t-40 -70t-14 -67q0 -46 31 -70.5t78 -24.5q40 0 83 10z" />
    <glyph glyph-name="tilde" unicode="&#x2dc;" horiz-adv-x="946" 
d="M585 1197q-45 0 -84 19.5t-61.5 43.5t-49 43.5t-49.5 19.5q-35 0 -49.5 -33t-15.5 -72h-135q0 96 51 164t142 68q37 0 69.5 -13t55 -31.5t42 -37t40 -31.5t40.5 -13q34 0 51.5 33t20.5 76h136q0 -93 -55.5 -164.5t-148.5 -71.5z" />
    <glyph glyph-name="hungarumlaut" unicode="&#x2dd;" horiz-adv-x="946" 
d="M250 1188h-139l195 282h179zM555 1188h-140l196 282h179z" />
    <glyph glyph-name="gravecmb" unicode="&#x300;" horiz-adv-x="0" 
d="M93 1188h-161l-239 282h206z" />
    <glyph glyph-name="acutecmb" unicode="&#x301;" horiz-adv-x="0" 
d="M68 1188h-161l195 282h205z" />
    <glyph glyph-name="circumflexcmb" unicode="&#x302;" horiz-adv-x="0" 
d="M-292 1188l221 305h143l220 -305h-174l-116 178h-4l-116 -178h-174z" />
    <glyph glyph-name="tildecmb" unicode="&#x303;" horiz-adv-x="0" 
d="M112 1197q-45 0 -84 19.5t-61.5 43.5t-49 43.5t-49.5 19.5q-25 0 -40.5 -20.5t-19.5 -41t-5 -43.5h-135q0 96 51 164t142 68q37 0 69.5 -13t55 -31.5t42 -37t40 -31.5t40.5 -13q34 0 51.5 33t20.5 76h136q0 -93 -55.5 -164.5t-148.5 -71.5z" />
    <glyph glyph-name="macroncmb" unicode="&#x304;" horiz-adv-x="0" 
d="M283 1234h-566v135h566v-135z" />
    <glyph glyph-name="brevecmb" unicode="&#x306;" horiz-adv-x="0" 
d="M-301 1471h138q0 -68 41.5 -115t121.5 -47t121.5 47t41.5 115h136q0 -53 -18.5 -103t-54 -92t-94 -67t-132.5 -25t-133.5 25t-95 67t-54 92t-18.5 103z" />
    <glyph glyph-name="dotaccentcmb" unicode="&#x307;" horiz-adv-x="0" 
d="M-118 1309q0 50 34 84.5t82 34.5q51 0 85.5 -34.5t34.5 -84.5t-34.5 -83.5t-85.5 -33.5q-48 0 -82 34t-34 83z" />
    <glyph glyph-name="dieresiscmb" unicode="&#x308;" horiz-adv-x="0" 
d="M-174 1197q-44 0 -73.5 30t-29.5 74q0 46 29.5 76.5t73.5 30.5q45 0 74.5 -30.5t29.5 -76.5q0 -44 -29.5 -74t-74.5 -30zM190 1197q-43 0 -72.5 30t-29.5 74q0 46 29 76.5t73 30.5q46 0 76 -30.5t30 -76.5q0 -44 -30 -74t-76 -30z" />
    <glyph glyph-name="hookabovecmb" unicode="&#x309;" horiz-adv-x="0" 
d="M-144 1420v109q38 18 108 18q96 0 153.5 -51t57.5 -134q0 -128 -155 -195l-67 88q49 21 70.5 44t21.5 55q0 36 -29 60.5t-75 24.5q-42 0 -85 -19z" />
    <glyph glyph-name="ringcmb" unicode="&#x30a;" horiz-adv-x="0" 
d="M0 1182q-86 0 -144.5 56.5t-58.5 141.5t58.5 141t144.5 56t144.5 -56t58.5 -141t-58.5 -141.5t-144.5 -56.5zM-98 1379q0 -41 28 -69.5t70 -28.5q41 0 69 28.5t28 69.5q0 42 -28 70.5t-69 28.5q-42 0 -70 -28.5t-28 -70.5z" />
    <glyph glyph-name="hungarumlautcmb" unicode="&#x30b;" horiz-adv-x="0" 
d="M-113 1188h-139l195 282h179zM192 1188h-140l196 282h179z" />
    <glyph glyph-name="caroncmb" unicode="&#x30c;" horiz-adv-x="0" 
d="M-292 1493h174l116 -178h4l117 178h173l-220 -305h-143z" />
    <glyph glyph-name="dblgravecmb" unicode="&#x30f;" horiz-adv-x="0" 
d="M-213 1188l-233 283h179l194 -283h-140zM92 1188l-234 283h179l194 -283h-139z" />
    <glyph glyph-name="invertedbrevecmb" unicode="&#x311;" horiz-adv-x="0" 
d="M-304 1210q-1 116 78.5 203.5t225.5 87.5q75 0 134.5 -25.5t95 -68t54.5 -93t19 -104.5h-138q0 69 -42 116.5t-123 47.5t-123 -47.5t-42 -116.5h-139z" />
    <glyph glyph-name="horncmb" unicode="&#x31b;" horiz-adv-x="0" 
d="M1 925v177q34 -30 87 -30q63 1 88 37.5t25 103.5v157h185v-172q0 -48 -8.5 -91t-27.5 -82t-47.5 -67t-71 -44.5t-95.5 -16.5q-93 0 -135 28z" />
    <glyph glyph-name="dotbelowcmb" unicode="&#x323;" horiz-adv-x="0" 
d="M-103 -265q0 45 30.5 76t73.5 31q45 0 75 -30.5t30 -76.5q0 -45 -30 -76t-75 -31q-43 0 -73.5 31t-30.5 76z" />
    <glyph glyph-name="dieresisbelowcmb" unicode="&#x324;" horiz-adv-x="0" 
d="M-184 -379q-44 0 -73.5 30t-29.5 74q0 46 29.5 76.5t73.5 30.5q45 0 74.5 -30.5t29.5 -76.5q0 -44 -29.5 -74t-74.5 -30zM180 -379q-43 0 -72.5 30t-29.5 74q0 46 29 76.5t73 30.5q46 0 76 -30.5t30 -76.5q0 -44 -30 -74t-76 -30z" />
    <glyph glyph-name="ringbelowcmb" unicode="&#x325;" horiz-adv-x="0" 
d="M0 -511q-86 0 -144.5 56.5t-58.5 141.5t58.5 141t144.5 56t144.5 -56t58.5 -141t-58.5 -141.5t-144.5 -56.5zM-98 -314q0 -41 28 -69.5t70 -28.5q41 0 69 28.5t28 69.5q0 42 -28 70.5t-69 28.5q-42 0 -70 -28.5t-28 -70.5z" />
    <glyph glyph-name="commabelowcmb" unicode="&#x326;" horiz-adv-x="0" 
d="M-10 -489h-159l85 335h188z" />
    <glyph glyph-name="cedillacmb" unicode="&#x327;" horiz-adv-x="0" 
d="M-118 -235v91l57 151h138l-51 -135q94 0 148.5 -42.5t54.5 -121.5q0 -94 -64 -141.5t-170 -50.5q-86 -4 -148 15v114q47 -14 114 -14q47 0 80 16t33 54q0 22 -10 35.5t-31.5 19.5t-42 7.5t-55.5 1.5h-53z" />
    <glyph glyph-name="ogonekcmb" unicode="&#x328;" horiz-adv-x="0" 
d="M158 -229v-136q-51 -23 -139 -23q-97 0 -158.5 49.5t-61.5 140.5q0 38 12 74.5t35.5 70.5t42.5 57.5t49 54.5t39 42h135q-28 -29 -47 -51t-45 -57t-40 -70t-14 -67q0 -46 31 -70.5t78 -24.5q40 0 83 10z" />
    <glyph glyph-name="circumflexbelowcmb" unicode="&#x32d;" horiz-adv-x="0" 
d="M-289 -397l217 283h144l217 -283h-171l-115 171h-6l-115 -171h-171z" />
    <glyph glyph-name="brevebelowcmb" unicode="&#x32e;" horiz-adv-x="0" 
d="M-318 -134h147q0 -69 44 -116.5t127 -47.5t127 47.5t44 116.5h139q0 -55 -18.5 -105.5t-54.5 -93t-97 -68t-140 -25.5q-104 0 -178 43.5t-107 108t-33 140.5z" />
    <glyph glyph-name="tildebelowcmb" unicode="&#x330;" horiz-adv-x="0" 
d="M114 -376q-43 0 -80.5 19t-59 41t-46.5 41t-47 19q-32 0 -45.5 -31.5t-14.5 -68.5h-130q0 92 48 157t135 65q44 0 82 -19t59.5 -41.5t47 -41.5t47.5 -19q31 0 48 31t20 73h130q0 -89 -52 -157t-142 -68z" />
    <glyph glyph-name="macronbelowcmb" unicode="&#x332;" horiz-adv-x="0" 
d="M283 -344h-566v135h566v-135z" />
    <glyph glyph-name="macronbelowcmb" unicode="&#x331;" horiz-adv-x="0" 
d="M283 -344h-566v135h566v-135z" />
    <glyph glyph-name="greekquestionmark" unicode="&#x37e;" horiz-adv-x="542" 
d="M221 -269h-165l103 468h224zM135 810q0 56 40 96.5t97 40.5q56 0 96.5 -40.5t40.5 -96.5t-40.5 -96.5t-96.5 -40.5q-57 0 -97 40.5t-40 96.5z" />
    <glyph glyph-name="tonosgreek" unicode="&#x384;" horiz-adv-x="830" 
d="M294 1188l75 315h209l-126 -315h-158z" />
    <glyph glyph-name="dieresistonosgreek" unicode="&#x385;" horiz-adv-x="1100" 
d="M278 1197q-43 0 -72.5 30t-29.5 74q0 46 29.5 76.5t72.5 30.5q45 0 74.5 -30.5t29.5 -76.5q0 -44 -29.5 -74t-74.5 -30zM818 1197q-43 0 -72.5 30t-29.5 74q0 46 29 76.5t73 30.5q45 0 75 -30.5t30 -76.5q0 -44 -30 -74t-75 -30zM445 1188l32 315h209l-84 -315h-157z" />
    <glyph glyph-name="Alphatonosgreek" unicode="&#x386;" horiz-adv-x="1289" 
d="M307 0h-231l470 1365h254l469 -1365h-240l-121 378h-479zM674 1129h-9l-185 -577h377zM60 1050l75 315h209l-126 -315h-158z" />
    <glyph glyph-name="anoteleia" unicode="&#x387;" horiz-adv-x="608" 
d="M164 919q0 58 41 99t99 41t99 -41t41 -99q0 -57 -41 -98t-99 -41t-99 41t-41 98z" />
    <glyph glyph-name="Epsilontonosgreek" unicode="&#x388;" horiz-adv-x="1427" 
d="M1318 190v-191h-852v1365h852v-191h-626v-389h590v-183h-590v-411h626zM40 1050l75 315h209l-126 -315h-158z" />
    <glyph glyph-name="Etatonosgreek" unicode="&#x389;" horiz-adv-x="1699" 
d="M1545 0h-227v605h-625v-605h-227v1365h227v-567h625v567h227v-1365zM40 1050l75 315h209l-126 -315h-158z" />
    <glyph glyph-name="Iotatonosgreek" unicode="&#x38a;" horiz-adv-x="847" 
d="M693 0h-227v1365h227v-1365zM40 1050l75 315h209l-126 -315h-158z" />
    <glyph glyph-name="Omicrontonosgreek" unicode="&#x38c;" horiz-adv-x="1541" 
d="M535 772v-189q0 -204 93.5 -310.5t245.5 -106.5t245 106t93 311v189q0 205 -93.5 315.5t-244.5 110.5t-245 -110.5t-94 -315.5zM306 583v187q0 290 153.5 456t415.5 166q263 0 415 -166t152 -456v-187q0 -287 -152.5 -448.5t-416.5 -161.5t-415.5 161t-151.5 449z
M40 1050l75 315h209l-126 -315h-158z" />
    <glyph glyph-name="Upsilontonosgreek" unicode="&#x38e;" horiz-adv-x="1544" 
d="M1095 0h-225v550l-457 815h253l314 -591h8l315 591h249l-457 -811v-554zM40 1050l75 315h209l-126 -315h-158z" />
    <glyph glyph-name="Omegatonosgreek" unicode="&#x38f;" horiz-adv-x="1559" 
d="M964 0v226q102 33 173.5 165t71.5 299v89q0 206 -94.5 312.5t-246.5 106.5q-155 0 -248.5 -107t-93.5 -312v-89q0 -165 70.5 -297.5t174.5 -166.5v-226h-495v197h239v13q-95 57 -157 187.5t-62 293.5v92q0 292 155 450.5t417 158.5t416 -158.5t154 -450.5v-92
q0 -163 -62 -294.5t-156 -186.5v-13h239v-197h-495zM40 1050l75 315h209l-126 -315h-158z" />
    <glyph glyph-name="iotadieresistonosgreek" unicode="&#x390;" horiz-adv-x="631" 
d="M143 1057h221v-742q0 -85 34.5 -116t124.5 -31q22 0 56 2v-168q-41 -9 -111 -9q-183 0 -254 67.5t-71 236.5v760zM0 1197q-43 0 -72.5 30t-29.5 74q0 46 29.5 76.5t72.5 30.5q45 0 74.5 -30.5t29.5 -76.5q0 -44 -29.5 -74t-74.5 -30zM540 1197q-43 0 -72.5 30t-29.5 74
q0 46 29 76.5t73 30.5q45 0 75 -30.5t30 -76.5q0 -44 -30 -74t-75 -30zM167 1188l32 315h209l-84 -315h-157z" />
    <glyph glyph-name="Alphagreek" unicode="&#x391;" horiz-adv-x="1233" 
d="M251 0h-231l470 1365h254l469 -1365h-240l-121 378h-479zM618 1129h-9l-185 -577h377z" />
    <glyph glyph-name="Betagreek" unicode="&#x392;" horiz-adv-x="1242" 
d="M153 0v1365h544q179 0 285.5 -90.5t106.5 -245.5q0 -117 -60.5 -194t-165.5 -106v-10q134 -16 217 -103.5t83 -231.5q0 -179 -130 -281.5t-346 -102.5h-534zM379 1185v-397h192q151 0 222 50.5t71 152.5q0 91 -56.5 142.5t-157.5 51.5h-271zM379 617v-437h217
q177 0 256.5 51.5t79.5 160.5q0 106 -69 165.5t-195 59.5h-289z" />
    <glyph glyph-name="Gammagreek" unicode="&#x393;" horiz-adv-x="1031" 
d="M380 0h-227v1365h822v-193h-595v-1172z" />
    <glyph glyph-name="Deltagreek" unicode="&#x2206;" horiz-adv-x="1242" 
d="M48 0v129l448 1236h253l445 -1236v-129h-1146zM615 1119l-329 -945h662l-325 945h-8z" />
    </font>
</defs>
</svg>
